{"glyphs":{"0":{"ha":1442,"x_min":38,"x_max":1404,"o":"m 721 -31 q 456 7 579 -31 q 238 110 332 44 q 90 265 143 176 q 38 453 38 353 q 85 638 38 551 q 223 791 133 725 q 438 894 313 857 q 721 931 564 931 q 1004 894 878 931 q 1220 791 1131 857 q 1357 638 1310 725 q 1404 453 1404 551 q 1351 265 1404 353 q 1204 110 1299 176 q 986 7 1110 44 q 721 -31 863 -31 m 721 26 q 881 134 824 26 q 939 450 939 242 q 920 684 939 590 q 854 826 901 778 q 721 874 807 874 q 588 826 635 874 q 522 684 540 778 q 503 450 503 590 q 560 134 503 242 q 721 26 618 26 m 415 54 l 418 61 q 239 224 308 122 q 169 451 169 325 q 239 681 169 579 q 418 843 308 783 l 415 850 q 247 751 319 811 q 133 614 174 690 q 93 451 93 538 q 133 290 93 367 q 247 153 174 214 q 415 54 319 93 m 963 69 q 1033 172 1001 111 q 1083 304 1064 232 q 1103 451 1103 376 q 1083 600 1103 528 q 1033 733 1064 672 q 963 835 1001 794 l 956 831 q 1006 653 989 747 q 1024 451 1024 558 q 1006 251 1024 346 q 956 74 989 157 l 963 69 z "},"1":{"ha":1285,"x_min":79,"x_max":1206,"o":"m 210 0 l 210 60 l 318 60 q 424 94 379 60 q 468 211 468 128 l 468 601 q 483 751 468 699 q 497 803 497 803 l 138 554 l 79 625 l 524 903 l 1206 903 l 1206 843 l 1097 843 q 1022 822 1057 843 q 967 767 988 801 q 947 690 947 732 l 947 211 q 992 94 947 128 q 1097 60 1036 60 l 1206 60 l 1206 0 l 210 0 m 561 60 l 651 60 l 651 843 l 561 843 l 561 60 z "},"2":{"ha":1401,"x_min":69,"x_max":1322,"o":"m 69 0 l 69 92 q 207 138 129 110 q 369 205 285 167 q 535 291 454 243 q 681 395 615 339 q 785 515 746 451 q 824 649 824 578 q 799 772 824 726 q 740 840 775 818 q 674 869 706 863 q 625 875 642 875 q 468 842 544 875 q 328 756 392 810 q 222 635 264 701 q 167 503 179 569 l 118 503 l 118 881 l 167 881 l 167 806 q 288 864 218 835 q 454 912 357 893 q 682 931 551 931 q 831 923 747 931 q 1001 898 915 915 q 1160 849 1088 881 q 1278 771 1233 818 q 1322 658 1322 724 q 1264 527 1322 590 q 1106 406 1206 464 q 883 296 1007 347 q 624 201 758 244 q 363 124 490 158 q 131 65 235 89 l 131 58 q 590 78 389 60 q 957 129 792 96 q 1268 206 1122 163 l 1268 319 l 1317 319 l 1317 0 l 69 0 m 728 346 q 752 355 728 346 q 812 384 776 364 q 882 438 847 404 q 941 524 917 472 q 965 644 965 575 q 945 728 965 690 q 898 792 925 765 q 851 833 871 819 q 831 847 831 847 l 826 843 q 845 822 826 843 q 882 759 864 801 q 900 649 900 717 q 870 524 900 582 q 799 423 840 467 q 725 353 758 379 l 728 346 z "},"3":{"ha":1424,"x_min":72,"x_max":1353,"o":"m 668 -31 q 360 -1 504 -31 q 121 68 215 28 l 121 8 l 72 8 l 72 296 l 121 296 q 193 191 142 240 q 317 104 244 142 q 473 46 389 67 q 644 25 557 25 q 774 54 719 25 q 857 133 828 83 q 886 243 886 183 q 822 403 886 342 q 649 464 758 464 q 535 449 588 464 q 452 405 483 435 q 421 328 421 375 l 374 328 l 374 638 l 421 638 q 448 561 421 588 q 519 525 475 535 q 614 515 564 515 q 774 565 717 515 q 831 690 831 614 q 808 780 831 738 q 739 849 786 822 q 614 875 692 875 q 444 845 531 875 q 284 755 357 815 q 167 603 211 694 l 118 603 l 118 868 l 167 868 l 167 810 q 309 869 238 842 q 467 914 381 897 q 668 931 554 931 q 980 897 849 931 q 1183 808 1111 863 q 1256 693 1256 754 q 1199 601 1256 644 q 1045 528 1143 558 q 822 486 947 499 q 1106 442 988 475 q 1289 357 1225 408 q 1353 240 1353 306 q 1299 135 1353 185 q 1152 49 1246 86 q 934 -10 1058 11 q 668 -31 810 -31 m 867 533 q 944 608 915 564 q 974 696 974 651 q 944 784 974 740 q 867 858 915 828 l 860 854 q 893 777 881 818 q 906 696 906 736 q 893 615 906 656 q 860 538 881 574 l 867 533 m 915 46 q 991 133 961 82 q 1021 236 1021 183 q 992 339 1021 289 q 915 426 963 389 l 910 419 q 945 327 936 376 q 954 236 954 278 q 945 145 954 194 q 910 51 936 96 l 915 46 z "},"4":{"ha":1406,"x_min":79,"x_max":1328,"o":"m 331 0 l 331 60 l 438 60 q 544 93 500 60 q 589 210 589 126 l 589 247 l 79 247 l 79 306 l 644 903 l 1326 903 l 1326 843 l 1218 843 q 1143 822 1178 843 q 1088 767 1108 801 q 1068 690 1068 732 l 1068 306 l 1328 306 l 1328 247 l 1068 247 l 1068 210 q 1113 93 1068 126 q 1218 60 1157 60 l 1326 60 l 1326 0 l 331 0 m 682 58 l 772 58 l 772 843 l 682 843 l 682 58 m 199 306 l 589 306 l 589 590 q 603 740 589 688 q 618 792 618 792 l 199 306 z "},"5":{"ha":1417,"x_min":68,"x_max":1349,"o":"m 614 -31 q 415 -17 506 -31 q 257 15 324 -3 q 154 46 190 32 q 118 60 118 60 l 118 0 l 69 0 l 69 276 l 118 276 q 198 190 154 233 q 300 108 242 146 q 435 48 358 71 q 611 25 511 25 q 744 51 693 25 q 820 115 794 76 q 855 197 846 154 q 864 274 864 239 q 854 352 864 308 q 810 437 844 396 q 706 505 776 478 q 514 532 635 532 q 339 507 417 532 q 206 449 261 482 q 121 390 150 415 q 92 365 92 365 l 68 388 l 488 921 l 515 921 q 521 917 515 921 q 549 908 526 913 q 624 903 572 903 l 1231 903 q 1301 912 1285 903 q 1317 921 1317 921 l 1349 903 l 997 729 l 399 729 l 231 514 q 365 562 300 542 q 510 594 429 582 q 710 606 592 606 q 864 596 781 606 q 1029 565 947 586 q 1180 507 1111 543 q 1290 418 1249 471 q 1331 293 1331 365 q 1286 167 1331 221 q 1167 75 1242 113 q 999 14 1093 38 q 806 -20 906 -10 q 614 -31 707 -31 m 842 25 q 865 34 842 25 q 919 69 889 43 q 972 146 949 94 q 996 281 996 197 q 978 392 996 346 q 933 467 960 438 q 878 511 906 496 q 832 532 850 526 q 814 538 814 538 l 811 532 q 828 519 811 532 q 869 476 846 506 q 909 398 892 447 q 926 278 926 349 q 913 159 926 207 q 883 83 900 111 q 853 42 867 54 q 840 31 840 31 l 842 25 z "},"6":{"ha":1524,"x_min":79,"x_max":1444,"o":"m 751 -31 q 507 3 626 -31 q 290 100 388 38 q 136 250 193 163 q 79 446 79 338 q 136 643 79 554 q 292 797 193 732 q 520 896 392 861 q 792 931 649 931 q 990 917 903 931 q 1138 887 1078 904 q 1231 856 1199 869 q 1263 843 1263 843 l 1263 893 l 1310 893 l 1310 661 l 1263 661 q 1238 683 1263 661 q 1172 736 1214 704 q 1076 800 1131 768 q 959 853 1021 832 q 833 875 897 875 q 665 828 728 875 q 574 696 601 781 q 547 497 547 611 q 580 510 547 497 q 669 541 613 524 q 799 572 725 558 q 956 585 872 585 q 1124 567 1038 585 q 1283 513 1210 549 q 1400 425 1356 478 q 1444 301 1444 372 q 1405 178 1444 232 q 1297 84 1365 124 q 1139 19 1228 44 q 951 -18 1050 -6 q 751 -31 851 -31 m 415 74 l 419 81 q 392 105 419 81 q 326 176 364 129 q 261 291 289 222 q 233 447 233 360 q 255 576 233 518 q 308 677 276 633 q 372 751 340 721 q 426 797 404 782 q 447 813 447 813 l 443 821 q 414 808 443 821 q 342 768 385 796 q 256 697 299 740 q 185 591 214 653 q 156 447 156 529 q 182 303 156 365 q 247 198 208 242 q 324 126 286 154 q 389 86 363 99 q 415 74 415 74 m 990 39 q 1011 51 990 39 q 1058 91 1032 63 q 1106 169 1085 119 q 1126 293 1126 218 q 1106 416 1126 368 q 1057 491 1085 464 q 1008 528 1029 518 q 988 539 988 539 l 985 533 q 1003 510 985 533 q 1041 433 1022 486 q 1060 293 1060 381 q 1042 151 1060 206 q 1005 70 1024 96 q 986 44 986 44 l 990 39 m 761 24 q 891 53 844 24 q 958 126 938 82 q 982 213 978 169 q 986 286 986 257 q 968 395 986 342 q 912 483 950 449 q 811 518 874 518 q 717 506 764 518 q 632 480 671 494 q 569 453 593 465 q 546 442 546 442 l 546 385 q 551 255 546 319 q 576 138 557 190 q 640 55 596 86 q 761 24 685 24 z "},"7":{"ha":1536,"x_min":67,"x_max":1457,"o":"m 447 0 q 480 226 447 117 q 560 432 513 336 l 336 432 l 336 493 l 592 493 q 686 642 638 575 q 777 758 735 710 q 845 833 819 807 q 871 860 871 860 q 852 862 871 860 q 799 864 833 864 q 667 853 747 864 q 492 812 588 843 q 297 719 396 781 q 106 556 197 658 l 67 556 l 67 903 l 1457 903 l 1457 840 l 1329 840 q 1294 819 1329 840 q 1204 754 1258 797 q 1091 646 1150 711 q 986 493 1032 581 l 1193 493 l 1193 432 l 958 432 q 920 306 935 374 q 906 161 906 239 q 908 112 906 136 q 913 60 910 88 l 1118 60 l 1118 0 l 447 0 m 536 60 l 611 60 q 642 269 611 168 q 721 459 672 369 q 823 622 769 549 q 925 749 876 696 q 1004 832 974 803 q 1035 861 1035 861 l 960 861 q 929 832 960 861 q 850 749 899 803 q 748 623 801 696 q 646 460 694 550 q 567 269 597 371 q 536 60 536 168 m 136 681 l 193 724 l 193 840 l 136 840 l 136 681 z "},"8":{"ha":1525,"x_min":79,"x_max":1446,"o":"m 763 -31 q 497 -9 621 -31 q 279 49 374 13 q 132 136 185 86 q 79 242 79 186 q 192 397 79 328 q 506 494 304 465 l 506 500 q 334 549 408 518 q 218 619 260 579 q 176 704 176 660 q 249 818 176 767 q 452 900 321 869 q 763 931 583 931 q 1074 900 943 931 q 1278 818 1206 869 q 1350 704 1350 767 q 1308 619 1350 660 q 1192 549 1267 579 q 1021 500 1118 518 l 1021 494 q 1333 397 1221 465 q 1446 242 1446 328 q 1393 136 1446 186 q 1246 49 1340 86 q 1028 -9 1151 13 q 763 -31 904 -31 m 763 513 q 923 558 865 513 q 981 701 981 604 q 962 808 981 765 q 896 874 943 851 q 763 896 849 896 q 631 874 678 896 q 565 808 583 851 q 546 701 546 765 q 603 558 546 604 q 763 513 661 513 m 490 528 l 493 533 q 369 608 415 564 q 322 704 322 651 q 370 803 322 757 q 499 879 418 849 l 497 885 q 322 809 388 857 q 256 704 256 761 q 320 604 256 650 q 490 528 385 558 m 1008 531 q 1088 608 1058 564 q 1117 704 1117 653 q 1088 801 1117 757 q 1010 879 1058 846 l 1004 874 q 1036 792 1024 835 q 1049 704 1049 749 q 1036 616 1049 658 q 1003 535 1024 574 l 1008 531 m 763 17 q 923 74 865 17 q 981 242 981 131 q 933 415 981 350 q 763 479 886 479 q 597 421 649 479 q 544 242 544 363 q 602 74 544 131 q 763 17 660 17 m 446 28 l 449 33 q 292 123 351 68 q 233 242 233 178 q 291 361 233 307 q 446 450 349 415 l 443 456 q 234 365 313 421 q 156 242 156 310 q 235 117 156 174 q 446 28 315 61 m 1017 35 q 1110 126 1076 72 q 1143 242 1143 181 q 1110 358 1143 304 q 1015 450 1076 411 l 1013 444 q 1052 347 1038 399 q 1067 242 1067 296 q 1052 136 1067 188 q 1011 39 1038 85 l 1017 35 z "},"9":{"ha":1510,"x_min":79,"x_max":1431,"o":"m 719 -31 q 465 -13 571 -31 q 304 21 360 4 q 249 38 249 38 l 249 -10 l 200 -10 l 200 219 l 249 219 q 272 200 249 219 q 338 151 296 181 q 435 93 381 122 q 552 44 490 64 q 678 25 614 25 q 899 119 836 25 q 963 383 963 213 q 930 370 963 383 q 841 340 897 357 q 711 310 785 324 q 556 297 638 297 q 388 313 472 297 q 234 361 304 328 q 122 449 164 394 q 79 581 79 503 q 138 722 79 660 q 294 830 196 785 q 513 899 392 875 q 758 922 633 922 q 1003 890 883 922 q 1220 795 1124 857 q 1374 642 1317 733 q 1431 435 1431 551 q 1374 240 1431 326 q 1217 94 1317 154 q 990 1 1118 33 q 719 -31 863 -31 m 700 364 q 794 376 747 364 q 879 403 840 388 q 941 430 918 418 q 964 442 964 442 l 964 531 q 958 651 964 592 q 932 760 953 711 q 868 838 911 808 q 750 867 825 867 q 623 838 669 867 q 556 767 576 810 q 529 681 535 725 q 524 606 524 638 q 542 485 524 540 q 599 397 560 429 q 700 364 638 364 m 946 35 q 974 58 946 35 q 1038 131 1001 82 q 1103 256 1075 181 q 1131 433 1131 331 q 1110 612 1131 536 q 1061 737 1089 688 q 1013 810 1033 786 q 990 833 992 835 l 986 831 q 1003 794 986 831 q 1036 671 1019 757 q 1053 433 1053 585 q 1036 273 1053 346 q 998 148 1019 200 q 960 67 976 96 q 943 39 943 39 l 946 35 m 328 367 l 329 371 q 315 382 329 371 q 281 417 300 393 q 247 479 261 440 q 232 572 232 518 q 247 667 232 626 q 281 733 263 707 q 315 771 300 758 q 326 782 329 783 l 325 786 q 301 776 325 786 q 246 742 278 767 q 190 676 214 718 q 167 572 167 635 q 190 469 167 510 q 245 407 214 429 q 301 376 276 385 q 328 367 326 367 z "},"A":{"ha":1940,"x_min":-19,"x_max":1958,"o":"m -19 0 l -19 60 q 71 81 26 60 q 153 134 115 103 q 221 197 192 165 q 267 249 250 228 q 283 271 283 271 l 640 725 l 606 768 q 539 824 575 806 q 435 843 503 843 l 325 843 l 325 903 l 1119 903 l 1800 60 l 1958 60 l 1958 0 l 915 0 l 915 60 l 1018 60 q 1076 75 1053 60 q 1100 119 1100 90 q 1060 206 1100 156 l 1008 269 l 393 269 q 363 208 372 238 q 353 156 353 179 q 383 85 353 110 q 457 60 413 60 l 586 60 l 586 0 l -19 0 m 1289 60 l 1396 60 l 764 843 l 657 843 l 1289 60 m 446 336 l 956 336 l 694 658 l 446 336 z "},"Á":{"ha":1940,"x_min":-19,"x_max":1958,"o":"m -19 0 l -19 60 q 71 81 26 60 q 153 134 115 103 q 221 197 192 165 q 267 249 250 228 q 283 271 283 271 l 640 725 l 606 768 q 539 824 575 806 q 435 843 503 843 l 325 843 l 325 903 l 1119 903 l 1800 60 l 1958 60 l 1958 0 l 915 0 l 915 60 l 1018 60 q 1076 75 1053 60 q 1100 119 1100 90 q 1060 206 1100 156 l 1008 269 l 393 269 q 363 208 372 238 q 353 156 353 179 q 383 85 353 110 q 457 60 413 60 l 586 60 l 586 0 l -19 0 m 1289 60 l 1396 60 l 764 843 l 657 843 l 1289 60 m 446 336 l 956 336 l 694 658 l 446 336 m 422 994 l 422 1044 q 597 1063 531 1044 q 706 1115 664 1081 q 782 1197 747 1149 l 1186 1197 q 1178 1176 1186 1197 q 1148 1124 1169 1154 q 1086 1064 1126 1093 q 981 1019 1046 1035 q 877 1005 940 1010 q 744 998 814 1000 q 608 995 674 996 q 497 994 543 994 l 422 994 m 697 1049 q 816 1072 769 1053 q 889 1117 863 1092 q 926 1158 915 1142 l 838 1158 q 800 1112 825 1133 q 747 1076 775 1090 q 697 1054 718 1061 l 697 1049 z "},"Ă":{"ha":1940,"x_min":-19,"x_max":1958,"o":"m -19 0 l -19 60 q 71 81 26 60 q 153 134 115 103 q 221 197 192 165 q 267 249 250 228 q 283 271 283 271 l 640 725 l 606 768 q 539 824 575 806 q 435 843 503 843 l 325 843 l 325 903 l 1119 903 l 1800 60 l 1958 60 l 1958 0 l 915 0 l 915 60 l 1018 60 q 1076 75 1053 60 q 1100 119 1100 90 q 1060 206 1100 156 l 1008 269 l 393 269 q 363 208 372 238 q 353 156 353 179 q 383 85 353 110 q 457 60 413 60 l 586 60 l 586 0 l -19 0 m 1289 60 l 1396 60 l 764 843 l 657 843 l 1289 60 m 446 336 l 956 336 l 694 658 l 446 336 m 806 949 q 669 984 732 949 q 570 1080 607 1019 q 533 1213 533 1140 l 563 1221 q 663 1161 606 1186 q 806 1136 721 1136 q 949 1161 892 1136 q 1047 1221 1006 1186 l 1075 1213 q 1039 1080 1075 1140 q 942 984 1003 1019 q 806 949 882 949 m 806 993 q 919 1023 867 993 q 999 1103 971 1053 l 992 1107 q 910 1065 958 1082 q 806 1049 863 1049 q 703 1065 753 1049 q 621 1107 654 1082 l 614 1103 q 694 1023 642 1053 q 806 993 746 993 z "},"Â":{"ha":1940,"x_min":-19,"x_max":1958,"o":"m -19 0 l -19 60 q 71 81 26 60 q 153 134 115 103 q 221 197 192 165 q 267 249 250 228 q 283 271 283 271 l 640 725 l 606 768 q 539 824 575 806 q 435 843 503 843 l 325 843 l 325 903 l 1119 903 l 1800 60 l 1958 60 l 1958 0 l 915 0 l 915 60 l 1018 60 q 1076 75 1053 60 q 1100 119 1100 90 q 1060 206 1100 156 l 1008 269 l 393 269 q 363 208 372 238 q 353 156 353 179 q 383 85 353 110 q 457 60 413 60 l 586 60 l 586 0 l -19 0 m 1289 60 l 1396 60 l 764 843 l 657 843 l 1289 60 m 446 336 l 956 336 l 694 658 l 446 336 m 393 994 l 579 1197 l 1029 1197 l 1214 994 l 1093 994 l 950 1150 l 806 994 l 393 994 m 547 1047 l 633 1047 l 738 1163 l 651 1163 l 547 1047 z "},"Ä":{"ha":1940,"x_min":-19,"x_max":1958,"o":"m -19 0 l -19 60 q 71 81 26 60 q 153 134 115 103 q 221 197 192 165 q 267 249 250 228 q 283 271 283 271 l 640 725 l 606 768 q 539 824 575 806 q 435 843 503 843 l 325 843 l 325 903 l 1119 903 l 1800 60 l 1958 60 l 1958 0 l 915 0 l 915 60 l 1018 60 q 1076 75 1053 60 q 1100 119 1100 90 q 1060 206 1100 156 l 1008 269 l 393 269 q 363 208 372 238 q 353 156 353 179 q 383 85 353 110 q 457 60 413 60 l 586 60 l 586 0 l -19 0 m 1289 60 l 1396 60 l 764 843 l 657 843 l 1289 60 m 446 336 l 956 336 l 694 658 l 446 336 m 1119 951 q 1025 972 1068 951 q 956 1029 982 993 q 931 1108 931 1065 q 956 1189 931 1153 q 1025 1247 982 1225 q 1119 1268 1068 1268 q 1217 1247 1174 1268 q 1285 1189 1260 1225 q 1311 1108 1311 1153 q 1285 1029 1311 1065 q 1217 972 1260 993 q 1119 951 1174 951 m 486 951 q 392 972 435 951 q 323 1029 349 993 q 297 1108 297 1065 q 323 1189 297 1153 q 392 1247 349 1225 q 486 1268 435 1268 q 583 1247 540 1268 q 652 1189 626 1225 q 678 1108 678 1153 q 652 1029 678 1065 q 583 972 626 993 q 486 951 540 951 m 444 983 l 449 988 q 417 1040 429 1010 q 406 1108 406 1071 q 417 1176 406 1146 q 449 1229 429 1207 l 444 1233 q 376 1182 403 1215 q 349 1108 349 1149 q 376 1035 349 1069 q 444 983 403 1001 m 1078 983 l 1082 988 q 1051 1040 1063 1010 q 1039 1108 1039 1071 q 1051 1176 1039 1146 q 1082 1229 1063 1207 l 1078 1233 q 1009 1182 1036 1215 q 982 1108 982 1149 q 1009 1035 982 1069 q 1078 983 1036 1001 z "},"À":{"ha":1940,"x_min":-19,"x_max":1958,"o":"m -19 0 l -19 60 q 71 81 26 60 q 153 134 115 103 q 221 197 192 165 q 267 249 250 228 q 283 271 283 271 l 640 725 l 606 768 q 539 824 575 806 q 435 843 503 843 l 325 843 l 325 903 l 1119 903 l 1800 60 l 1958 60 l 1958 0 l 915 0 l 915 60 l 1018 60 q 1076 75 1053 60 q 1100 119 1100 90 q 1060 206 1100 156 l 1008 269 l 393 269 q 363 208 372 238 q 353 156 353 179 q 383 85 353 110 q 457 60 413 60 l 586 60 l 586 0 l -19 0 m 1289 60 l 1396 60 l 764 843 l 657 843 l 1289 60 m 446 336 l 956 336 l 694 658 l 446 336 m 1111 994 q 1000 995 1065 994 q 865 998 935 996 q 731 1005 794 1000 q 628 1019 668 1010 q 523 1064 564 1035 q 460 1124 482 1093 q 431 1176 439 1154 q 422 1197 422 1197 l 826 1197 q 903 1115 861 1149 q 1011 1063 944 1081 q 1186 1044 1078 1044 l 1186 994 l 1111 994 m 753 1049 l 753 1054 q 703 1076 732 1061 q 650 1112 675 1090 q 613 1158 625 1133 l 524 1158 q 562 1117 536 1142 q 634 1072 588 1092 q 753 1049 681 1053 z "},"Ā":{"ha":1940,"x_min":-19,"x_max":1958,"o":"m -19 0 l -19 60 q 71 81 26 60 q 153 134 115 103 q 221 197 192 165 q 267 249 250 228 q 283 271 283 271 l 640 725 l 606 768 q 539 824 575 806 q 435 843 503 843 l 325 843 l 325 903 l 1119 903 l 1800 60 l 1958 60 l 1958 0 l 915 0 l 915 60 l 1018 60 q 1076 75 1053 60 q 1100 119 1100 90 q 1060 206 1100 156 l 1008 269 l 393 269 q 363 208 372 238 q 353 156 353 179 q 383 85 353 110 q 457 60 413 60 l 586 60 l 586 0 l -19 0 m 1289 60 l 1396 60 l 764 843 l 657 843 l 1289 60 m 446 336 l 956 336 l 694 658 l 446 336 m 522 1003 l 522 1189 l 1085 1189 l 1085 1003 l 522 1003 m 607 1031 l 682 1031 l 682 1161 l 607 1161 l 607 1031 z "},"Ą":{"ha":1940,"x_min":-19,"x_max":1958,"o":"m -19 0 l -19 60 q 71 81 26 60 q 153 134 115 103 q 221 197 192 165 q 267 249 250 228 q 283 271 283 271 l 640 725 l 606 768 q 539 824 575 806 q 435 843 503 843 l 325 843 l 325 903 l 1119 903 l 1800 60 l 1958 60 l 1958 0 l 915 0 l 915 60 l 1018 60 q 1076 75 1053 60 q 1100 119 1100 90 q 1060 206 1100 156 l 1008 269 l 393 269 q 363 208 372 238 q 353 156 353 179 q 383 85 353 110 q 457 60 413 60 l 586 60 l 586 0 l -19 0 m 1289 60 l 1396 60 l 764 843 l 657 843 l 1289 60 m 446 336 l 956 336 l 694 658 l 446 336 m 1635 -311 q 1522 -307 1579 -311 q 1417 -290 1464 -303 q 1340 -252 1369 -276 q 1311 -186 1311 -228 q 1351 -97 1311 -135 q 1460 -32 1392 -58 q 1612 10 1528 -6 q 1785 31 1696 25 l 1785 8 q 1648 -48 1693 -6 q 1603 -147 1603 -90 q 1635 -222 1603 -199 q 1711 -244 1667 -244 q 1788 -226 1749 -244 q 1858 -178 1826 -208 q 1904 -111 1890 -147 l 1958 -111 l 1958 -262 q 1819 -297 1906 -282 q 1635 -311 1733 -311 m 1508 -279 l 1511 -272 q 1459 -228 1482 -260 q 1436 -165 1436 -196 q 1499 -61 1436 -97 l 1494 -54 q 1403 -101 1440 -71 q 1367 -172 1367 -131 q 1403 -241 1367 -211 q 1508 -279 1440 -271 z "},"Å":{"ha":1940,"x_min":-19,"x_max":1958,"o":"m -19 0 l -19 60 q 71 81 26 60 q 153 134 115 103 q 221 197 192 165 q 267 249 250 228 q 283 271 283 271 l 640 725 l 606 768 q 539 824 575 806 q 435 843 503 843 l 325 843 l 325 903 l 1119 903 l 1800 60 l 1958 60 l 1958 0 l 915 0 l 915 60 l 1018 60 q 1076 75 1053 60 q 1100 119 1100 90 q 1060 206 1100 156 l 1008 269 l 393 269 q 363 208 372 238 q 353 156 353 179 q 383 85 353 110 q 457 60 413 60 l 586 60 l 586 0 l -19 0 m 1289 60 l 1396 60 l 764 843 l 657 843 l 1289 60 m 446 336 l 956 336 l 694 658 l 446 336 m 803 928 q 694 952 743 928 q 615 1017 644 976 q 585 1108 585 1058 q 615 1200 585 1158 q 694 1267 644 1242 q 803 1292 743 1292 q 914 1267 864 1292 q 994 1200 964 1242 q 1024 1108 1024 1158 q 994 1017 1024 1058 q 914 952 964 976 q 803 928 864 928 m 803 971 q 850 1011 831 971 q 869 1108 869 1051 q 850 1206 869 1165 q 803 1246 831 1246 q 756 1206 776 1246 q 736 1108 736 1165 q 756 1011 736 1051 q 803 971 776 971 m 724 979 l 728 983 q 697 1039 708 1007 q 685 1108 685 1071 q 728 1233 685 1183 l 724 1238 q 656 1184 682 1219 q 629 1108 629 1149 q 656 1034 629 1069 q 724 979 682 999 z "},"Ǻ":{"ha":1940,"x_min":-19,"x_max":1958,"o":"m -19 0 l -19 60 q 71 81 26 60 q 153 134 115 103 q 221 197 192 165 q 267 249 250 228 q 283 271 283 271 l 640 725 l 606 768 q 539 824 575 806 q 435 843 503 843 l 325 843 l 325 903 l 1119 903 l 1800 60 l 1958 60 l 1958 0 l 915 0 l 915 60 l 1018 60 q 1076 75 1053 60 q 1100 119 1100 90 q 1060 206 1100 156 l 1008 269 l 393 269 q 363 208 372 238 q 353 156 353 179 q 383 85 353 110 q 457 60 413 60 l 586 60 l 586 0 l -19 0 m 1289 60 l 1396 60 l 764 843 l 657 843 l 1289 60 m 446 336 l 956 336 l 694 658 l 446 336 m 814 928 q 705 950 754 928 q 626 1010 656 972 q 596 1094 596 1049 q 621 1178 596 1147 q 685 1230 646 1210 q 767 1269 724 1250 q 846 1317 810 1289 q 900 1393 882 1346 l 1174 1393 q 1147 1339 1169 1374 q 1075 1272 1124 1304 q 944 1231 1026 1240 q 1010 1172 985 1207 q 1035 1094 1035 1136 q 1005 1010 1035 1049 q 925 950 975 972 q 814 928 875 928 m 806 1244 q 922 1268 876 1249 q 993 1313 967 1288 q 1031 1354 1019 1338 l 942 1354 q 904 1308 929 1329 q 851 1272 879 1286 q 801 1250 822 1257 l 806 1244 m 814 971 q 861 1007 842 971 q 881 1094 881 1043 q 861 1182 881 1146 q 814 1218 842 1218 q 767 1182 788 1218 q 747 1094 747 1146 q 767 1007 747 1043 q 814 971 788 971 m 735 979 l 739 983 q 708 1033 719 1004 q 696 1094 696 1061 q 708 1158 696 1128 q 739 1210 719 1188 l 735 1214 q 667 1163 693 1196 q 640 1094 640 1131 q 667 1028 640 1060 q 735 979 693 996 z "},"Ã":{"ha":1940,"x_min":-19,"x_max":1958,"o":"m -19 0 l -19 60 q 71 81 26 60 q 153 134 115 103 q 221 197 192 165 q 267 249 250 228 q 283 271 283 271 l 640 725 l 606 768 q 539 824 575 806 q 435 843 503 843 l 325 843 l 325 903 l 1119 903 l 1800 60 l 1958 60 l 1958 0 l 915 0 l 915 60 l 1018 60 q 1076 75 1053 60 q 1100 119 1100 90 q 1060 206 1100 156 l 1008 269 l 393 269 q 363 208 372 238 q 353 156 353 179 q 383 85 353 110 q 457 60 413 60 l 586 60 l 586 0 l -19 0 m 1289 60 l 1396 60 l 764 843 l 657 843 l 1289 60 m 446 336 l 956 336 l 694 658 l 446 336 m 954 979 q 814 990 872 979 q 706 1013 756 1000 q 606 1037 657 1026 q 486 1047 554 1047 q 433 1033 456 1047 q 400 996 410 1019 l 361 996 q 384 1060 364 1022 q 443 1134 404 1097 q 540 1196 482 1171 q 675 1221 599 1221 q 808 1213 753 1221 q 907 1196 863 1206 q 994 1178 951 1186 q 1093 1171 1038 1171 q 1163 1184 1139 1171 q 1201 1219 1188 1197 l 1247 1219 q 1226 1151 1244 1192 q 1171 1072 1207 1111 q 1081 1006 1135 1032 q 954 979 1026 979 m 964 1026 q 1063 1044 1013 1026 q 1149 1090 1114 1061 l 1146 1096 q 1075 1081 1117 1086 q 1003 1075 1033 1075 q 865 1084 922 1075 q 763 1106 808 1093 q 674 1127 718 1118 q 572 1136 629 1136 q 507 1124 533 1136 q 461 1094 481 1111 l 465 1089 q 495 1094 481 1092 q 524 1096 510 1096 q 647 1078 582 1096 q 789 1044 711 1061 q 964 1026 867 1026 z "},"Æ":{"ha":2546,"x_min":-19,"x_max":2435,"o":"m -19 0 l -19 60 q 71 81 26 60 q 153 134 115 103 q 221 197 192 165 q 267 249 250 228 q 283 271 283 271 l 640 725 l 606 768 q 539 824 575 806 q 435 843 503 843 l 325 843 l 325 903 l 2435 903 l 2435 583 l 2394 583 q 2269 703 2350 644 q 2067 801 2189 763 q 1774 840 1946 840 q 1659 803 1701 840 q 1617 706 1617 765 l 1617 658 q 1625 597 1617 631 q 1659 540 1633 564 q 1739 517 1685 517 q 1836 531 1785 517 q 1936 568 1888 544 q 2022 624 1985 592 q 2076 693 2060 656 l 2128 693 l 2128 269 l 2076 269 q 1997 359 2054 322 q 1869 415 1939 396 q 1739 433 1800 433 q 1665 415 1692 433 q 1628 367 1639 396 q 1617 310 1617 339 l 1617 260 q 1624 153 1617 199 q 1656 84 1631 108 q 1736 60 1681 60 l 1771 60 q 1928 65 1846 60 q 2094 92 2011 69 q 2254 162 2178 114 q 2394 294 2331 210 l 2435 294 l 2435 0 l 758 0 l 758 60 l 925 60 q 1033 93 989 60 q 1076 210 1076 126 l 1076 433 l 521 433 l 393 269 q 361 209 369 239 q 353 156 353 179 q 383 85 353 110 q 457 60 413 60 l 586 60 l 586 0 l -19 0 m 925 843 l 840 843 l 586 517 l 1076 517 l 1076 704 q 1043 804 1076 765 q 925 843 1010 843 m 1169 60 l 1261 60 l 1261 843 l 1169 843 l 1169 60 z "},"Ǽ":{"ha":2546,"x_min":-19,"x_max":2435,"o":"m -19 0 l -19 60 q 71 81 26 60 q 153 134 115 103 q 221 197 192 165 q 267 249 250 228 q 283 271 283 271 l 640 725 l 606 768 q 539 824 575 806 q 435 843 503 843 l 325 843 l 325 903 l 2435 903 l 2435 583 l 2394 583 q 2269 703 2350 644 q 2067 801 2189 763 q 1774 840 1946 840 q 1659 803 1701 840 q 1617 706 1617 765 l 1617 658 q 1625 597 1617 631 q 1659 540 1633 564 q 1739 517 1685 517 q 1836 531 1785 517 q 1936 568 1888 544 q 2022 624 1985 592 q 2076 693 2060 656 l 2128 693 l 2128 269 l 2076 269 q 1997 359 2054 322 q 1869 415 1939 396 q 1739 433 1800 433 q 1665 415 1692 433 q 1628 367 1639 396 q 1617 310 1617 339 l 1617 260 q 1624 153 1617 199 q 1656 84 1631 108 q 1736 60 1681 60 l 1771 60 q 1928 65 1846 60 q 2094 92 2011 69 q 2254 162 2178 114 q 2394 294 2331 210 l 2435 294 l 2435 0 l 758 0 l 758 60 l 925 60 q 1033 93 989 60 q 1076 210 1076 126 l 1076 433 l 521 433 l 393 269 q 361 209 369 239 q 353 156 353 179 q 383 85 353 110 q 457 60 413 60 l 586 60 l 586 0 l -19 0 m 925 843 l 840 843 l 586 517 l 1076 517 l 1076 704 q 1043 804 1076 765 q 925 843 1010 843 m 1169 60 l 1261 60 l 1261 843 l 1169 843 l 1169 60 m 1072 994 l 1072 1044 q 1247 1063 1181 1044 q 1356 1115 1314 1081 q 1432 1197 1397 1149 l 1836 1197 q 1828 1176 1836 1197 q 1798 1124 1819 1154 q 1736 1064 1776 1093 q 1631 1019 1696 1035 q 1527 1005 1590 1010 q 1394 998 1464 1000 q 1258 995 1324 996 q 1147 994 1193 994 l 1072 994 m 1347 1049 q 1466 1072 1419 1053 q 1539 1117 1513 1092 q 1576 1158 1565 1142 l 1488 1158 q 1450 1112 1475 1133 q 1397 1076 1425 1090 q 1347 1054 1368 1061 l 1347 1049 z "},"B":{"ha":2057,"x_min":101,"x_max":1974,"o":"m 101 0 l 101 60 l 268 60 q 374 94 331 60 q 418 210 418 128 l 418 690 q 398 767 418 732 q 344 822 378 801 q 268 843 310 843 l 101 843 l 101 903 l 1438 903 q 1613 896 1531 903 q 1758 869 1694 889 q 1856 808 1821 849 q 1892 701 1892 768 q 1870 613 1892 650 q 1817 549 1849 575 q 1756 508 1786 524 q 1706 486 1725 493 l 1706 479 q 1773 461 1729 475 q 1863 421 1817 447 q 1942 351 1910 394 q 1974 243 1974 307 q 1945 141 1974 183 q 1870 72 1917 99 q 1767 28 1824 44 q 1653 6 1710 13 q 1547 0 1596 0 l 101 0 m 513 60 l 603 60 l 603 843 l 513 843 l 513 60 m 961 503 l 1179 503 q 1263 520 1221 503 q 1333 575 1304 538 q 1361 672 1361 613 q 1300 798 1361 754 q 1125 842 1239 842 q 1005 804 1049 842 q 961 706 961 767 l 961 503 m 1422 506 q 1529 567 1486 526 q 1572 664 1572 608 q 1530 762 1572 721 q 1422 821 1488 803 l 1418 817 q 1459 748 1444 785 q 1474 664 1474 711 q 1460 581 1474 618 q 1418 511 1446 544 l 1422 506 m 1078 60 l 1204 60 q 1299 78 1251 60 q 1381 138 1347 96 q 1414 256 1414 181 q 1349 404 1414 358 q 1189 450 1285 450 l 961 450 l 961 201 q 988 99 961 139 q 1078 60 1014 60 m 1449 65 q 1577 140 1526 90 q 1628 256 1628 190 q 1577 374 1628 324 q 1449 449 1526 424 l 1444 443 q 1507 363 1483 410 q 1531 256 1531 317 q 1508 150 1531 196 q 1446 71 1485 104 l 1449 65 z "},"C":{"ha":1524,"x_min":31,"x_max":1506,"o":"m 925 -31 q 585 -3 746 -31 q 299 83 424 25 q 102 234 174 142 q 31 456 31 326 q 81 640 31 561 q 216 776 131 719 q 410 867 301 832 q 639 919 519 903 q 875 936 758 936 q 1142 904 1015 936 q 1374 833 1268 872 l 1374 903 l 1440 903 l 1440 571 l 1374 571 q 1296 676 1347 622 q 1176 774 1244 729 q 1028 847 1107 819 q 868 875 950 875 q 742 849 788 875 q 677 777 696 822 q 658 674 658 732 l 658 293 q 718 91 658 154 q 929 28 778 28 q 1156 53 1061 28 q 1314 113 1250 79 q 1416 173 1378 147 q 1472 199 1454 199 q 1494 193 1482 199 q 1506 171 1506 188 q 1468 122 1506 150 q 1361 58 1431 94 q 1187 -3 1292 24 q 925 -31 1082 -31 m 494 82 l 496 89 q 355 172 419 122 q 251 290 290 222 q 211 444 211 358 q 251 615 211 540 q 355 744 290 689 q 496 833 419 799 l 494 840 q 297 750 383 810 q 161 613 210 690 q 113 444 113 535 q 161 291 113 363 q 297 165 210 219 q 494 82 383 111 z "},"Ć":{"ha":1524,"x_min":31,"x_max":1506,"o":"m 925 -31 q 585 -3 746 -31 q 299 83 424 25 q 102 234 174 142 q 31 456 31 326 q 81 640 31 561 q 216 776 131 719 q 410 867 301 832 q 639 919 519 903 q 875 936 758 936 q 1142 904 1015 936 q 1374 833 1268 872 l 1374 903 l 1440 903 l 1440 571 l 1374 571 q 1296 676 1347 622 q 1176 774 1244 729 q 1028 847 1107 819 q 868 875 950 875 q 742 849 788 875 q 677 777 696 822 q 658 674 658 732 l 658 293 q 718 91 658 154 q 929 28 778 28 q 1156 53 1061 28 q 1314 113 1250 79 q 1416 173 1378 147 q 1472 199 1454 199 q 1494 193 1482 199 q 1506 171 1506 188 q 1468 122 1506 150 q 1361 58 1431 94 q 1187 -3 1292 24 q 925 -31 1082 -31 m 494 82 l 496 89 q 355 172 419 122 q 251 290 290 222 q 211 444 211 358 q 251 615 211 540 q 355 744 290 689 q 496 833 419 799 l 494 840 q 297 750 383 810 q 161 613 210 690 q 113 444 113 535 q 161 291 113 363 q 297 165 210 219 q 494 82 383 111 m 467 994 l 467 1044 q 642 1063 575 1044 q 750 1115 708 1081 q 826 1197 792 1149 l 1231 1197 q 1222 1176 1231 1197 q 1192 1124 1214 1154 q 1131 1064 1171 1093 q 1025 1019 1090 1035 q 922 1005 985 1010 q 788 998 858 1000 q 653 995 718 996 q 542 994 588 994 l 467 994 m 742 1049 q 860 1072 814 1053 q 933 1117 907 1092 q 971 1158 960 1142 l 882 1158 q 844 1112 869 1133 q 791 1076 819 1090 q 742 1054 763 1061 l 742 1049 z "},"Č":{"ha":1524,"x_min":31,"x_max":1506,"o":"m 925 -31 q 585 -3 746 -31 q 299 83 424 25 q 102 234 174 142 q 31 456 31 326 q 81 640 31 561 q 216 776 131 719 q 410 867 301 832 q 639 919 519 903 q 875 936 758 936 q 1142 904 1015 936 q 1374 833 1268 872 l 1374 903 l 1440 903 l 1440 571 l 1374 571 q 1296 676 1347 622 q 1176 774 1244 729 q 1028 847 1107 819 q 868 875 950 875 q 742 849 788 875 q 677 777 696 822 q 658 674 658 732 l 658 293 q 718 91 658 154 q 929 28 778 28 q 1156 53 1061 28 q 1314 113 1250 79 q 1416 173 1378 147 q 1472 199 1454 199 q 1494 193 1482 199 q 1506 171 1506 188 q 1468 122 1506 150 q 1361 58 1431 94 q 1187 -3 1292 24 q 925 -31 1082 -31 m 494 82 l 496 89 q 355 172 419 122 q 251 290 290 222 q 211 444 211 358 q 251 615 211 540 q 355 744 290 689 q 496 833 419 799 l 494 840 q 297 750 383 810 q 161 613 210 690 q 113 444 113 535 q 161 291 113 363 q 297 165 210 219 q 494 82 383 111 m 624 994 l 438 1197 l 850 1197 l 994 1042 l 1138 1197 l 1258 1197 l 1074 994 l 624 994 m 696 1029 l 782 1029 l 678 1144 l 592 1144 l 696 1029 z "},"Ç":{"ha":1524,"x_min":31,"x_max":1506,"o":"m 925 -31 q 585 -3 746 -31 q 299 83 424 25 q 102 234 174 142 q 31 456 31 326 q 81 640 31 561 q 216 776 131 719 q 410 867 301 832 q 639 919 519 903 q 875 936 758 936 q 1142 904 1015 936 q 1374 833 1268 872 l 1374 903 l 1440 903 l 1440 571 l 1374 571 q 1296 676 1347 622 q 1176 774 1244 729 q 1028 847 1107 819 q 868 875 950 875 q 742 849 788 875 q 677 777 696 822 q 658 674 658 732 l 658 293 q 718 91 658 154 q 929 28 778 28 q 1156 53 1061 28 q 1314 113 1250 79 q 1416 173 1378 147 q 1472 199 1454 199 q 1494 193 1482 199 q 1506 171 1506 188 q 1468 122 1506 150 q 1361 58 1431 94 q 1187 -3 1292 24 q 925 -31 1082 -31 m 494 82 l 496 89 q 355 172 419 122 q 251 290 290 222 q 211 444 211 358 q 251 615 211 540 q 355 744 290 689 q 496 833 419 799 l 494 840 q 297 750 383 810 q 161 613 210 690 q 113 444 113 535 q 161 291 113 363 q 297 165 210 219 q 494 82 383 111 m 763 -310 q 578 -295 664 -310 q 439 -261 492 -281 l 439 -110 l 493 -110 q 540 -176 508 -146 q 610 -225 571 -207 q 686 -243 650 -243 q 763 -220 731 -243 q 794 -146 794 -197 q 613 0 794 -26 l 613 22 q 785 9 701 22 q 938 -31 869 -4 q 1046 -95 1006 -57 q 1086 -185 1086 -133 q 1057 -251 1086 -226 q 981 -288 1028 -275 q 876 -306 933 -301 q 763 -310 819 -310 m 819 -261 q 877 -238 847 -254 q 927 -199 907 -222 q 947 -149 947 -175 q 910 -78 947 -104 q 819 -33 874 -51 l 814 -42 q 878 -149 878 -81 q 861 -209 878 -179 q 815 -253 844 -239 l 819 -261 z "},"Ĉ":{"ha":1524,"x_min":31,"x_max":1506,"o":"m 925 -31 q 585 -3 746 -31 q 299 83 424 25 q 102 234 174 142 q 31 456 31 326 q 81 640 31 561 q 216 776 131 719 q 410 867 301 832 q 639 919 519 903 q 875 936 758 936 q 1142 904 1015 936 q 1374 833 1268 872 l 1374 903 l 1440 903 l 1440 571 l 1374 571 q 1296 676 1347 622 q 1176 774 1244 729 q 1028 847 1107 819 q 868 875 950 875 q 742 849 788 875 q 677 777 696 822 q 658 674 658 732 l 658 293 q 718 91 658 154 q 929 28 778 28 q 1156 53 1061 28 q 1314 113 1250 79 q 1416 173 1378 147 q 1472 199 1454 199 q 1494 193 1482 199 q 1506 171 1506 188 q 1468 122 1506 150 q 1361 58 1431 94 q 1187 -3 1292 24 q 925 -31 1082 -31 m 494 82 l 496 89 q 355 172 419 122 q 251 290 290 222 q 211 444 211 358 q 251 615 211 540 q 355 744 290 689 q 496 833 419 799 l 494 840 q 297 750 383 810 q 161 613 210 690 q 113 444 113 535 q 161 291 113 363 q 297 165 210 219 q 494 82 383 111 m 438 994 l 624 1197 l 1074 1197 l 1258 994 l 1138 994 l 994 1150 l 850 994 l 438 994 m 592 1047 l 678 1047 l 782 1163 l 696 1163 l 592 1047 z "},"Ċ":{"ha":1524,"x_min":31,"x_max":1506,"o":"m 925 -31 q 585 -3 746 -31 q 299 83 424 25 q 102 234 174 142 q 31 456 31 326 q 81 640 31 561 q 216 776 131 719 q 410 867 301 832 q 639 919 519 903 q 875 936 758 936 q 1142 904 1015 936 q 1374 833 1268 872 l 1374 903 l 1440 903 l 1440 571 l 1374 571 q 1296 676 1347 622 q 1176 774 1244 729 q 1028 847 1107 819 q 868 875 950 875 q 742 849 788 875 q 677 777 696 822 q 658 674 658 732 l 658 293 q 718 91 658 154 q 929 28 778 28 q 1156 53 1061 28 q 1314 113 1250 79 q 1416 173 1378 147 q 1472 199 1454 199 q 1494 193 1482 199 q 1506 171 1506 188 q 1468 122 1506 150 q 1361 58 1431 94 q 1187 -3 1292 24 q 925 -31 1082 -31 m 494 82 l 496 89 q 355 172 419 122 q 251 290 290 222 q 211 444 211 358 q 251 615 211 540 q 355 744 290 689 q 496 833 419 799 l 494 840 q 297 750 383 810 q 161 613 210 690 q 113 444 113 535 q 161 291 113 363 q 297 165 210 219 q 494 82 383 111 m 847 951 q 753 972 796 951 q 684 1029 710 993 q 658 1108 658 1065 q 684 1189 658 1153 q 753 1247 710 1225 q 847 1268 796 1268 q 944 1247 901 1268 q 1013 1189 988 1225 q 1039 1108 1039 1153 q 1013 1029 1039 1065 q 944 972 988 993 q 847 951 901 951 m 779 996 l 782 1000 q 755 1048 765 1019 q 744 1108 744 1076 q 755 1169 744 1140 q 782 1217 765 1197 l 779 1221 q 719 1174 743 1204 q 696 1108 696 1143 q 719 1043 696 1074 q 779 996 743 1013 z "},"D":{"ha":2040,"x_min":97,"x_max":2008,"o":"m 97 0 l 97 60 l 264 60 q 371 94 326 60 q 415 211 415 128 l 415 692 q 395 767 415 733 q 340 822 375 801 q 264 843 306 843 l 97 843 l 97 903 l 1157 903 q 1408 888 1285 903 q 1640 842 1532 874 q 1831 760 1749 811 q 1961 636 1914 708 q 2008 468 2008 564 q 1973 299 2008 371 q 1878 174 1938 226 q 1743 88 1818 122 q 1587 35 1668 54 q 1427 8 1506 15 q 1285 0 1349 0 l 97 0 m 508 60 l 599 60 l 599 843 l 508 843 l 508 60 m 1072 60 l 1199 60 q 1308 93 1264 60 q 1379 182 1353 126 q 1418 308 1406 238 q 1431 450 1431 378 q 1403 650 1431 561 q 1308 790 1375 739 q 1121 842 1240 842 q 1000 805 1044 842 q 956 706 956 768 l 956 201 q 982 99 956 139 q 1072 60 1008 60 m 1436 69 q 1604 219 1542 129 q 1667 450 1667 310 q 1604 681 1667 590 q 1436 831 1542 771 l 1433 826 q 1523 652 1492 747 q 1554 450 1554 557 q 1523 249 1554 344 q 1433 74 1492 153 l 1436 69 z "},"Ð":{"ha":2040,"x_min":97,"x_max":2008,"o":"m 97 0 l 97 60 l 264 60 q 371 94 326 60 q 415 211 415 128 l 415 396 l 206 396 l 206 507 l 415 507 l 415 692 q 395 767 415 733 q 340 822 375 801 q 264 843 306 843 l 97 843 l 97 903 l 1157 903 q 1408 888 1285 903 q 1640 842 1532 874 q 1831 760 1749 811 q 1961 636 1914 708 q 2008 468 2008 564 q 1973 299 2008 371 q 1878 174 1938 226 q 1743 88 1818 122 q 1587 35 1668 54 q 1427 8 1506 15 q 1285 0 1349 0 l 97 0 m 508 60 l 599 60 l 599 843 l 508 843 l 508 60 m 1072 60 l 1199 60 q 1308 93 1264 60 q 1379 182 1353 126 q 1418 308 1406 238 q 1431 450 1431 378 q 1403 650 1431 561 q 1308 790 1375 739 q 1121 842 1240 842 q 1000 805 1044 842 q 956 706 956 768 l 956 507 l 1217 507 l 1217 396 l 956 396 l 956 201 q 982 99 956 139 q 1072 60 1008 60 m 1436 69 q 1604 219 1542 129 q 1667 450 1667 310 q 1604 681 1667 590 q 1436 831 1542 771 l 1433 826 q 1523 652 1492 747 q 1554 450 1554 557 q 1523 249 1554 344 q 1433 74 1492 153 l 1436 69 z "},"Ď":{"ha":2040,"x_min":97,"x_max":2008,"o":"m 97 0 l 97 60 l 264 60 q 371 94 326 60 q 415 211 415 128 l 415 692 q 395 767 415 733 q 340 822 375 801 q 264 843 306 843 l 97 843 l 97 903 l 1157 903 q 1408 888 1285 903 q 1640 842 1532 874 q 1831 760 1749 811 q 1961 636 1914 708 q 2008 468 2008 564 q 1973 299 2008 371 q 1878 174 1938 226 q 1743 88 1818 122 q 1587 35 1668 54 q 1427 8 1506 15 q 1285 0 1349 0 l 97 0 m 508 60 l 599 60 l 599 843 l 508 843 l 508 60 m 1072 60 l 1199 60 q 1308 93 1264 60 q 1379 182 1353 126 q 1418 308 1406 238 q 1431 450 1431 378 q 1403 650 1431 561 q 1308 790 1375 739 q 1121 842 1240 842 q 1000 805 1044 842 q 956 706 956 768 l 956 201 q 982 99 956 139 q 1072 60 1008 60 m 1436 69 q 1604 219 1542 129 q 1667 450 1667 310 q 1604 681 1667 590 q 1436 831 1542 771 l 1433 826 q 1523 652 1492 747 q 1554 450 1554 557 q 1523 249 1554 344 q 1433 74 1492 153 l 1436 69 m 796 994 l 610 1197 l 1022 1197 l 1167 1042 l 1310 1197 l 1431 1197 l 1246 994 l 796 994 m 868 1029 l 954 1029 l 850 1144 l 764 1144 l 868 1029 z "},"Đ":{"ha":2040,"x_min":97,"x_max":2008,"o":"m 97 0 l 97 60 l 264 60 q 371 94 326 60 q 415 211 415 128 l 415 396 l 206 396 l 206 507 l 415 507 l 415 692 q 395 767 415 733 q 340 822 375 801 q 264 843 306 843 l 97 843 l 97 903 l 1157 903 q 1408 888 1285 903 q 1640 842 1532 874 q 1831 760 1749 811 q 1961 636 1914 708 q 2008 468 2008 564 q 1973 299 2008 371 q 1878 174 1938 226 q 1743 88 1818 122 q 1587 35 1668 54 q 1427 8 1506 15 q 1285 0 1349 0 l 97 0 m 508 60 l 599 60 l 599 843 l 508 843 l 508 60 m 1072 60 l 1199 60 q 1308 93 1264 60 q 1379 182 1353 126 q 1418 308 1406 238 q 1431 450 1431 378 q 1403 650 1431 561 q 1308 790 1375 739 q 1121 842 1240 842 q 1000 805 1044 842 q 956 706 956 768 l 956 507 l 1217 507 l 1217 396 l 956 396 l 956 201 q 982 99 956 139 q 1072 60 1008 60 m 1436 69 q 1604 219 1542 129 q 1667 450 1667 310 q 1604 681 1667 590 q 1436 831 1542 771 l 1433 826 q 1523 652 1492 747 q 1554 450 1554 557 q 1523 249 1554 344 q 1433 74 1492 153 l 1436 69 z "},"E":{"ha":1889,"x_min":101,"x_max":1778,"o":"m 101 0 l 101 60 l 268 60 q 376 93 332 60 q 419 210 419 126 l 419 690 q 399 767 419 732 q 345 822 379 801 q 268 843 311 843 l 101 843 l 101 903 l 1778 903 l 1778 583 l 1738 583 q 1613 703 1693 644 q 1410 801 1532 763 q 1117 840 1289 840 q 1002 803 1044 840 q 960 706 960 765 l 960 658 q 967 597 960 631 q 1001 540 975 564 q 1082 517 1028 517 q 1179 531 1128 517 q 1279 568 1231 544 q 1365 624 1328 592 q 1419 693 1403 656 l 1471 693 l 1471 269 l 1419 269 q 1340 359 1397 322 q 1213 415 1282 396 q 1082 433 1143 433 q 1008 415 1035 433 q 971 367 982 396 q 960 310 960 339 l 960 260 q 967 153 960 199 q 999 84 974 108 q 1079 60 1024 60 l 1114 60 q 1272 65 1189 60 q 1438 92 1354 69 q 1597 162 1521 114 q 1738 294 1674 210 l 1778 294 l 1778 0 l 101 0 m 513 60 l 604 60 l 604 843 l 513 843 l 513 60 z "},"É":{"ha":1889,"x_min":101,"x_max":1778,"o":"m 101 0 l 101 60 l 268 60 q 376 93 332 60 q 419 210 419 126 l 419 690 q 399 767 419 732 q 345 822 379 801 q 268 843 311 843 l 101 843 l 101 903 l 1778 903 l 1778 583 l 1738 583 q 1613 703 1693 644 q 1410 801 1532 763 q 1117 840 1289 840 q 1002 803 1044 840 q 960 706 960 765 l 960 658 q 967 597 960 631 q 1001 540 975 564 q 1082 517 1028 517 q 1179 531 1128 517 q 1279 568 1231 544 q 1365 624 1328 592 q 1419 693 1403 656 l 1471 693 l 1471 269 l 1419 269 q 1340 359 1397 322 q 1213 415 1282 396 q 1082 433 1143 433 q 1008 415 1035 433 q 971 367 982 396 q 960 310 960 339 l 960 260 q 967 153 960 199 q 999 84 974 108 q 1079 60 1024 60 l 1114 60 q 1272 65 1189 60 q 1438 92 1354 69 q 1597 162 1521 114 q 1738 294 1674 210 l 1778 294 l 1778 0 l 101 0 m 513 60 l 604 60 l 604 843 l 513 843 l 513 60 m 688 994 l 688 1044 q 863 1063 796 1044 q 971 1115 929 1081 q 1047 1197 1013 1149 l 1451 1197 q 1443 1176 1451 1197 q 1413 1124 1435 1154 q 1351 1064 1392 1093 q 1246 1019 1311 1035 q 1142 1005 1206 1010 q 1009 998 1079 1000 q 874 995 939 996 q 763 994 808 994 l 688 994 m 963 1049 q 1081 1072 1035 1053 q 1154 1117 1128 1092 q 1192 1158 1181 1142 l 1103 1158 q 1065 1112 1090 1133 q 1012 1076 1040 1090 q 963 1054 983 1061 l 963 1049 z "},"Ĕ":{"ha":1889,"x_min":101,"x_max":1778,"o":"m 101 0 l 101 60 l 268 60 q 376 93 332 60 q 419 210 419 126 l 419 690 q 399 767 419 732 q 345 822 379 801 q 268 843 311 843 l 101 843 l 101 903 l 1778 903 l 1778 583 l 1738 583 q 1613 703 1693 644 q 1410 801 1532 763 q 1117 840 1289 840 q 1002 803 1044 840 q 960 706 960 765 l 960 658 q 967 597 960 631 q 1001 540 975 564 q 1082 517 1028 517 q 1179 531 1128 517 q 1279 568 1231 544 q 1365 624 1328 592 q 1419 693 1403 656 l 1471 693 l 1471 269 l 1419 269 q 1340 359 1397 322 q 1213 415 1282 396 q 1082 433 1143 433 q 1008 415 1035 433 q 971 367 982 396 q 960 310 960 339 l 960 260 q 967 153 960 199 q 999 84 974 108 q 1079 60 1024 60 l 1114 60 q 1272 65 1189 60 q 1438 92 1354 69 q 1597 162 1521 114 q 1738 294 1674 210 l 1778 294 l 1778 0 l 101 0 m 513 60 l 604 60 l 604 843 l 513 843 l 513 60 m 1071 949 q 935 984 997 949 q 835 1080 872 1019 q 799 1213 799 1140 l 828 1221 q 928 1161 871 1186 q 1071 1136 986 1136 q 1214 1161 1157 1136 q 1313 1221 1271 1186 l 1340 1213 q 1304 1080 1340 1140 q 1208 984 1268 1019 q 1071 949 1147 949 m 1071 993 q 1184 1023 1132 993 q 1264 1103 1236 1053 l 1257 1107 q 1176 1065 1224 1082 q 1071 1049 1128 1049 q 969 1065 1018 1049 q 886 1107 919 1082 l 879 1103 q 959 1023 907 1053 q 1071 993 1011 993 z "},"Ě":{"ha":1889,"x_min":101,"x_max":1778,"o":"m 101 0 l 101 60 l 268 60 q 376 93 332 60 q 419 210 419 126 l 419 690 q 399 767 419 732 q 345 822 379 801 q 268 843 311 843 l 101 843 l 101 903 l 1778 903 l 1778 583 l 1738 583 q 1613 703 1693 644 q 1410 801 1532 763 q 1117 840 1289 840 q 1002 803 1044 840 q 960 706 960 765 l 960 658 q 967 597 960 631 q 1001 540 975 564 q 1082 517 1028 517 q 1179 531 1128 517 q 1279 568 1231 544 q 1365 624 1328 592 q 1419 693 1403 656 l 1471 693 l 1471 269 l 1419 269 q 1340 359 1397 322 q 1213 415 1282 396 q 1082 433 1143 433 q 1008 415 1035 433 q 971 367 982 396 q 960 310 960 339 l 960 260 q 967 153 960 199 q 999 84 974 108 q 1079 60 1024 60 l 1114 60 q 1272 65 1189 60 q 1438 92 1354 69 q 1597 162 1521 114 q 1738 294 1674 210 l 1778 294 l 1778 0 l 101 0 m 513 60 l 604 60 l 604 843 l 513 843 l 513 60 m 844 994 l 658 1197 l 1071 1197 l 1215 1042 l 1358 1197 l 1479 1197 l 1294 994 l 844 994 m 917 1029 l 1003 1029 l 899 1144 l 813 1144 l 917 1029 z "},"Ê":{"ha":1889,"x_min":101,"x_max":1778,"o":"m 101 0 l 101 60 l 268 60 q 376 93 332 60 q 419 210 419 126 l 419 690 q 399 767 419 732 q 345 822 379 801 q 268 843 311 843 l 101 843 l 101 903 l 1778 903 l 1778 583 l 1738 583 q 1613 703 1693 644 q 1410 801 1532 763 q 1117 840 1289 840 q 1002 803 1044 840 q 960 706 960 765 l 960 658 q 967 597 960 631 q 1001 540 975 564 q 1082 517 1028 517 q 1179 531 1128 517 q 1279 568 1231 544 q 1365 624 1328 592 q 1419 693 1403 656 l 1471 693 l 1471 269 l 1419 269 q 1340 359 1397 322 q 1213 415 1282 396 q 1082 433 1143 433 q 1008 415 1035 433 q 971 367 982 396 q 960 310 960 339 l 960 260 q 967 153 960 199 q 999 84 974 108 q 1079 60 1024 60 l 1114 60 q 1272 65 1189 60 q 1438 92 1354 69 q 1597 162 1521 114 q 1738 294 1674 210 l 1778 294 l 1778 0 l 101 0 m 513 60 l 604 60 l 604 843 l 513 843 l 513 60 m 658 994 l 844 1197 l 1294 1197 l 1479 994 l 1358 994 l 1215 1150 l 1071 994 l 658 994 m 813 1047 l 899 1047 l 1003 1163 l 917 1163 l 813 1047 z "},"Ë":{"ha":1889,"x_min":101,"x_max":1778,"o":"m 101 0 l 101 60 l 268 60 q 376 93 332 60 q 419 210 419 126 l 419 690 q 399 767 419 732 q 345 822 379 801 q 268 843 311 843 l 101 843 l 101 903 l 1778 903 l 1778 583 l 1738 583 q 1613 703 1693 644 q 1410 801 1532 763 q 1117 840 1289 840 q 1002 803 1044 840 q 960 706 960 765 l 960 658 q 967 597 960 631 q 1001 540 975 564 q 1082 517 1028 517 q 1179 531 1128 517 q 1279 568 1231 544 q 1365 624 1328 592 q 1419 693 1403 656 l 1471 693 l 1471 269 l 1419 269 q 1340 359 1397 322 q 1213 415 1282 396 q 1082 433 1143 433 q 1008 415 1035 433 q 971 367 982 396 q 960 310 960 339 l 960 260 q 967 153 960 199 q 999 84 974 108 q 1079 60 1024 60 l 1114 60 q 1272 65 1189 60 q 1438 92 1354 69 q 1597 162 1521 114 q 1738 294 1674 210 l 1778 294 l 1778 0 l 101 0 m 513 60 l 604 60 l 604 843 l 513 843 l 513 60 m 1385 951 q 1290 972 1333 951 q 1222 1029 1247 993 q 1196 1108 1196 1065 q 1222 1189 1196 1153 q 1290 1247 1247 1225 q 1385 1268 1333 1268 q 1482 1247 1439 1268 q 1551 1189 1525 1225 q 1576 1108 1576 1153 q 1551 1029 1576 1065 q 1482 972 1525 993 q 1385 951 1439 951 m 751 951 q 657 972 700 951 q 588 1029 614 993 q 563 1108 563 1065 q 588 1189 563 1153 q 657 1247 614 1225 q 751 1268 700 1268 q 849 1247 806 1268 q 917 1189 892 1225 q 943 1108 943 1153 q 917 1029 943 1065 q 849 972 892 993 q 751 951 806 951 m 710 983 l 714 988 q 683 1040 694 1010 q 671 1108 671 1071 q 683 1176 671 1146 q 714 1229 694 1207 l 710 1233 q 641 1182 668 1215 q 614 1108 614 1149 q 641 1035 614 1069 q 710 983 668 1001 m 1343 983 l 1347 988 q 1316 1040 1328 1010 q 1304 1108 1304 1071 q 1316 1176 1304 1146 q 1347 1229 1328 1207 l 1343 1233 q 1274 1182 1301 1215 q 1247 1108 1247 1149 q 1274 1035 1247 1069 q 1343 983 1301 1001 z "},"Ė":{"ha":1889,"x_min":101,"x_max":1778,"o":"m 101 0 l 101 60 l 268 60 q 376 93 332 60 q 419 210 419 126 l 419 690 q 399 767 419 732 q 345 822 379 801 q 268 843 311 843 l 101 843 l 101 903 l 1778 903 l 1778 583 l 1738 583 q 1613 703 1693 644 q 1410 801 1532 763 q 1117 840 1289 840 q 1002 803 1044 840 q 960 706 960 765 l 960 658 q 967 597 960 631 q 1001 540 975 564 q 1082 517 1028 517 q 1179 531 1128 517 q 1279 568 1231 544 q 1365 624 1328 592 q 1419 693 1403 656 l 1471 693 l 1471 269 l 1419 269 q 1340 359 1397 322 q 1213 415 1282 396 q 1082 433 1143 433 q 1008 415 1035 433 q 971 367 982 396 q 960 310 960 339 l 960 260 q 967 153 960 199 q 999 84 974 108 q 1079 60 1024 60 l 1114 60 q 1272 65 1189 60 q 1438 92 1354 69 q 1597 162 1521 114 q 1738 294 1674 210 l 1778 294 l 1778 0 l 101 0 m 513 60 l 604 60 l 604 843 l 513 843 l 513 60 m 1068 951 q 974 972 1017 951 q 905 1029 931 993 q 879 1108 879 1065 q 905 1189 879 1153 q 974 1247 931 1225 q 1068 1268 1017 1268 q 1165 1247 1122 1268 q 1234 1189 1208 1225 q 1260 1108 1260 1153 q 1234 1029 1260 1065 q 1165 972 1208 993 q 1068 951 1122 951 m 1000 996 l 1003 1000 q 976 1048 986 1019 q 965 1108 965 1076 q 976 1169 965 1140 q 1003 1217 986 1197 l 1000 1221 q 940 1174 964 1204 q 917 1108 917 1143 q 940 1043 917 1074 q 1000 996 964 1013 z "},"È":{"ha":1889,"x_min":101,"x_max":1778,"o":"m 101 0 l 101 60 l 268 60 q 376 93 332 60 q 419 210 419 126 l 419 690 q 399 767 419 732 q 345 822 379 801 q 268 843 311 843 l 101 843 l 101 903 l 1778 903 l 1778 583 l 1738 583 q 1613 703 1693 644 q 1410 801 1532 763 q 1117 840 1289 840 q 1002 803 1044 840 q 960 706 960 765 l 960 658 q 967 597 960 631 q 1001 540 975 564 q 1082 517 1028 517 q 1179 531 1128 517 q 1279 568 1231 544 q 1365 624 1328 592 q 1419 693 1403 656 l 1471 693 l 1471 269 l 1419 269 q 1340 359 1397 322 q 1213 415 1282 396 q 1082 433 1143 433 q 1008 415 1035 433 q 971 367 982 396 q 960 310 960 339 l 960 260 q 967 153 960 199 q 999 84 974 108 q 1079 60 1024 60 l 1114 60 q 1272 65 1189 60 q 1438 92 1354 69 q 1597 162 1521 114 q 1738 294 1674 210 l 1778 294 l 1778 0 l 101 0 m 513 60 l 604 60 l 604 843 l 513 843 l 513 60 m 1376 994 q 1265 995 1331 994 q 1130 998 1200 996 q 997 1005 1060 1000 q 893 1019 933 1010 q 788 1064 829 1035 q 726 1124 747 1093 q 696 1176 704 1154 q 688 1197 688 1197 l 1092 1197 q 1168 1115 1126 1149 q 1276 1063 1210 1081 q 1451 1044 1343 1044 l 1451 994 l 1376 994 m 1018 1049 l 1018 1054 q 969 1076 997 1061 q 915 1112 940 1090 q 878 1158 890 1133 l 789 1158 q 827 1117 801 1142 q 899 1072 853 1092 q 1018 1049 946 1053 z "},"Ē":{"ha":1889,"x_min":101,"x_max":1778,"o":"m 101 0 l 101 60 l 268 60 q 376 93 332 60 q 419 210 419 126 l 419 690 q 399 767 419 732 q 345 822 379 801 q 268 843 311 843 l 101 843 l 101 903 l 1778 903 l 1778 583 l 1738 583 q 1613 703 1693 644 q 1410 801 1532 763 q 1117 840 1289 840 q 1002 803 1044 840 q 960 706 960 765 l 960 658 q 967 597 960 631 q 1001 540 975 564 q 1082 517 1028 517 q 1179 531 1128 517 q 1279 568 1231 544 q 1365 624 1328 592 q 1419 693 1403 656 l 1471 693 l 1471 269 l 1419 269 q 1340 359 1397 322 q 1213 415 1282 396 q 1082 433 1143 433 q 1008 415 1035 433 q 971 367 982 396 q 960 310 960 339 l 960 260 q 967 153 960 199 q 999 84 974 108 q 1079 60 1024 60 l 1114 60 q 1272 65 1189 60 q 1438 92 1354 69 q 1597 162 1521 114 q 1738 294 1674 210 l 1778 294 l 1778 0 l 101 0 m 513 60 l 604 60 l 604 843 l 513 843 l 513 60 m 788 1003 l 788 1189 l 1350 1189 l 1350 1003 l 788 1003 m 872 1031 l 947 1031 l 947 1161 l 872 1161 l 872 1031 z "},"Ę":{"ha":1889,"x_min":101,"x_max":1778,"o":"m 101 0 l 101 60 l 268 60 q 376 93 332 60 q 419 210 419 126 l 419 690 q 399 767 419 732 q 345 822 379 801 q 268 843 311 843 l 101 843 l 101 903 l 1778 903 l 1778 583 l 1738 583 q 1613 703 1693 644 q 1410 801 1532 763 q 1117 840 1289 840 q 1002 803 1044 840 q 960 706 960 765 l 960 658 q 967 597 960 631 q 1001 540 975 564 q 1082 517 1028 517 q 1179 531 1128 517 q 1279 568 1231 544 q 1365 624 1328 592 q 1419 693 1403 656 l 1471 693 l 1471 269 l 1419 269 q 1340 359 1397 322 q 1213 415 1282 396 q 1082 433 1143 433 q 1008 415 1035 433 q 971 367 982 396 q 960 310 960 339 l 960 260 q 967 153 960 199 q 999 84 974 108 q 1079 60 1024 60 l 1114 60 q 1272 65 1189 60 q 1438 92 1354 69 q 1597 162 1521 114 q 1738 294 1674 210 l 1778 294 l 1778 0 l 101 0 m 513 60 l 604 60 l 604 843 l 513 843 l 513 60 m 1454 -311 q 1341 -307 1399 -311 q 1236 -290 1283 -303 q 1160 -252 1189 -276 q 1131 -186 1131 -228 q 1171 -97 1131 -135 q 1279 -32 1211 -58 q 1431 10 1347 -6 q 1604 31 1515 25 l 1604 8 q 1467 -48 1513 -6 q 1422 -147 1422 -90 q 1454 -222 1422 -199 q 1531 -244 1486 -244 q 1607 -226 1568 -244 q 1678 -178 1646 -208 q 1724 -111 1710 -147 l 1778 -111 l 1778 -262 q 1639 -297 1725 -282 q 1454 -311 1553 -311 m 1328 -279 l 1331 -272 q 1278 -228 1301 -260 q 1256 -165 1256 -196 q 1318 -61 1256 -97 l 1314 -54 q 1223 -101 1260 -71 q 1186 -172 1186 -131 q 1223 -241 1186 -211 q 1328 -279 1260 -271 z "},"F":{"ha":1715,"x_min":101,"x_max":1678,"o":"m 101 0 l 101 60 l 268 60 q 374 94 331 60 q 418 211 418 128 l 418 690 q 374 798 418 753 q 268 843 331 843 l 101 843 l 101 903 l 1678 903 l 1678 643 l 1639 643 q 1569 712 1607 676 q 1474 776 1531 747 q 1331 824 1417 806 q 1117 842 1244 842 q 1002 803 1043 842 q 961 706 961 765 l 961 658 q 969 597 961 631 q 1002 540 976 564 q 1082 517 1028 517 q 1236 554 1172 517 q 1335 643 1300 592 l 1386 643 l 1386 296 l 1335 296 q 1236 406 1300 376 q 1082 435 1172 435 q 1008 416 1035 435 q 972 369 982 397 q 961 310 961 340 l 961 204 q 978 109 961 140 q 1031 69 994 78 q 1125 60 1067 60 l 1264 60 l 1264 0 l 101 0 m 513 60 l 603 60 l 603 843 l 513 843 l 513 60 z "},"G":{"ha":1906,"x_min":31,"x_max":1949,"o":"m 925 -32 q 575 -5 738 -32 q 290 80 413 22 q 99 231 168 138 q 31 456 31 324 q 75 650 31 568 q 199 787 119 732 q 384 875 278 842 q 615 922 490 908 q 875 936 740 936 q 1185 912 1021 936 q 1499 843 1349 888 l 1499 903 l 1565 903 l 1565 610 l 1499 610 q 1413 703 1468 657 q 1285 789 1358 750 q 1126 851 1211 828 q 950 874 1042 874 q 803 853 869 874 q 697 788 736 833 q 658 669 658 743 l 658 282 q 669 190 658 235 q 710 108 681 144 q 792 51 739 72 q 929 29 846 29 q 1000 38 961 29 q 1074 68 1039 46 q 1133 133 1110 90 q 1156 243 1156 175 l 1156 343 q 1132 415 1156 383 q 1072 465 1108 447 q 997 483 1036 483 l 838 483 l 838 543 l 1949 543 l 1949 483 l 1685 483 l 1685 0 l 1618 0 q 1593 63 1618 38 q 1519 88 1568 88 q 1431 69 1481 88 q 1312 28 1381 51 q 1148 -14 1243 4 q 925 -32 1053 -32 m 417 93 l 418 99 q 276 248 332 150 q 221 465 221 346 q 276 681 221 585 q 418 828 332 778 l 415 835 q 262 752 329 807 q 156 624 194 697 q 118 465 118 550 q 156 306 118 381 q 262 177 194 232 q 417 93 329 122 m 1269 99 q 1302 126 1286 99 q 1328 199 1318 153 q 1339 299 1339 244 l 1339 481 l 1249 481 l 1249 207 q 1254 119 1249 140 q 1269 99 1260 99 z "},"Ğ":{"ha":1906,"x_min":31,"x_max":1949,"o":"m 925 -32 q 575 -5 738 -32 q 290 80 413 22 q 99 231 168 138 q 31 456 31 324 q 75 650 31 568 q 199 787 119 732 q 384 875 278 842 q 615 922 490 908 q 875 936 740 936 q 1185 912 1021 936 q 1499 843 1349 888 l 1499 903 l 1565 903 l 1565 610 l 1499 610 q 1413 703 1468 657 q 1285 789 1358 750 q 1126 851 1211 828 q 950 874 1042 874 q 803 853 869 874 q 697 788 736 833 q 658 669 658 743 l 658 282 q 669 190 658 235 q 710 108 681 144 q 792 51 739 72 q 929 29 846 29 q 1000 38 961 29 q 1074 68 1039 46 q 1133 133 1110 90 q 1156 243 1156 175 l 1156 343 q 1132 415 1156 383 q 1072 465 1108 447 q 997 483 1036 483 l 838 483 l 838 543 l 1949 543 l 1949 483 l 1685 483 l 1685 0 l 1618 0 q 1593 63 1618 38 q 1519 88 1568 88 q 1431 69 1481 88 q 1312 28 1381 51 q 1148 -14 1243 4 q 925 -32 1053 -32 m 417 93 l 418 99 q 276 248 332 150 q 221 465 221 346 q 276 681 221 585 q 418 828 332 778 l 415 835 q 262 752 329 807 q 156 624 194 697 q 118 465 118 550 q 156 306 118 381 q 262 177 194 232 q 417 93 329 122 m 1269 99 q 1302 126 1286 99 q 1328 199 1318 153 q 1339 299 1339 244 l 1339 481 l 1249 481 l 1249 207 q 1254 119 1249 140 q 1269 99 1260 99 m 899 949 q 763 984 825 949 q 663 1080 700 1019 q 626 1213 626 1140 l 656 1221 q 756 1161 699 1186 q 899 1136 814 1136 q 1042 1161 985 1136 q 1140 1221 1099 1186 l 1168 1213 q 1132 1080 1168 1140 q 1035 984 1096 1019 q 899 949 975 949 m 899 993 q 1012 1023 960 993 q 1092 1103 1064 1053 l 1085 1107 q 1003 1065 1051 1082 q 899 1049 956 1049 q 797 1065 846 1049 q 714 1107 747 1082 l 707 1103 q 787 1023 735 1053 q 899 993 839 993 z "},"Ĝ":{"ha":1906,"x_min":31,"x_max":1949,"o":"m 925 -32 q 575 -5 738 -32 q 290 80 413 22 q 99 231 168 138 q 31 456 31 324 q 75 650 31 568 q 199 787 119 732 q 384 875 278 842 q 615 922 490 908 q 875 936 740 936 q 1185 912 1021 936 q 1499 843 1349 888 l 1499 903 l 1565 903 l 1565 610 l 1499 610 q 1413 703 1468 657 q 1285 789 1358 750 q 1126 851 1211 828 q 950 874 1042 874 q 803 853 869 874 q 697 788 736 833 q 658 669 658 743 l 658 282 q 669 190 658 235 q 710 108 681 144 q 792 51 739 72 q 929 29 846 29 q 1000 38 961 29 q 1074 68 1039 46 q 1133 133 1110 90 q 1156 243 1156 175 l 1156 343 q 1132 415 1156 383 q 1072 465 1108 447 q 997 483 1036 483 l 838 483 l 838 543 l 1949 543 l 1949 483 l 1685 483 l 1685 0 l 1618 0 q 1593 63 1618 38 q 1519 88 1568 88 q 1431 69 1481 88 q 1312 28 1381 51 q 1148 -14 1243 4 q 925 -32 1053 -32 m 417 93 l 418 99 q 276 248 332 150 q 221 465 221 346 q 276 681 221 585 q 418 828 332 778 l 415 835 q 262 752 329 807 q 156 624 194 697 q 118 465 118 550 q 156 306 118 381 q 262 177 194 232 q 417 93 329 122 m 1269 99 q 1302 126 1286 99 q 1328 199 1318 153 q 1339 299 1339 244 l 1339 481 l 1249 481 l 1249 207 q 1254 119 1249 140 q 1269 99 1260 99 m 486 994 l 672 1197 l 1122 1197 l 1307 994 l 1186 994 l 1043 1150 l 899 994 l 486 994 m 640 1047 l 726 1047 l 831 1163 l 744 1163 l 640 1047 z "},"Ģ":{"ha":1906,"x_min":31,"x_max":1949,"o":"m 925 -32 q 575 -5 738 -32 q 290 80 413 22 q 99 231 168 138 q 31 456 31 324 q 75 650 31 568 q 199 787 119 732 q 384 875 278 842 q 615 922 490 908 q 875 936 740 936 q 1185 912 1021 936 q 1499 843 1349 888 l 1499 903 l 1565 903 l 1565 610 l 1499 610 q 1413 703 1468 657 q 1285 789 1358 750 q 1126 851 1211 828 q 950 874 1042 874 q 803 853 869 874 q 697 788 736 833 q 658 669 658 743 l 658 282 q 669 190 658 235 q 710 108 681 144 q 792 51 739 72 q 929 29 846 29 q 1000 38 961 29 q 1074 68 1039 46 q 1133 133 1110 90 q 1156 243 1156 175 l 1156 343 q 1132 415 1156 383 q 1072 465 1108 447 q 997 483 1036 483 l 838 483 l 838 543 l 1949 543 l 1949 483 l 1685 483 l 1685 0 l 1618 0 q 1593 63 1618 38 q 1519 88 1568 88 q 1431 69 1481 88 q 1312 28 1381 51 q 1148 -14 1243 4 q 925 -32 1053 -32 m 417 93 l 418 99 q 276 248 332 150 q 221 465 221 346 q 276 681 221 585 q 418 828 332 778 l 415 835 q 262 752 329 807 q 156 624 194 697 q 118 465 118 550 q 156 306 118 381 q 262 177 194 232 q 417 93 329 122 m 1269 99 q 1302 126 1286 99 q 1328 199 1318 153 q 1339 299 1339 244 l 1339 481 l 1249 481 l 1249 207 q 1254 119 1249 140 q 1269 99 1260 99 m 721 -550 l 721 -499 q 802 -489 754 -499 q 894 -455 850 -479 q 958 -390 939 -431 q 899 -399 932 -399 q 802 -377 846 -399 q 733 -319 758 -356 q 707 -239 707 -282 q 733 -159 707 -194 q 802 -103 758 -124 q 899 -82 846 -82 q 994 -103 951 -82 q 1062 -162 1036 -125 q 1088 -250 1088 -200 q 1053 -383 1088 -318 q 938 -494 1018 -449 q 721 -550 857 -540 m 846 -351 l 849 -347 q 822 -299 832 -328 q 811 -239 811 -271 q 822 -178 811 -207 q 849 -131 832 -150 l 846 -126 q 786 -174 810 -143 q 763 -239 763 -204 q 786 -304 763 -274 q 846 -351 810 -335 z "},"Ġ":{"ha":1906,"x_min":31,"x_max":1949,"o":"m 925 -32 q 575 -5 738 -32 q 290 80 413 22 q 99 231 168 138 q 31 456 31 324 q 75 650 31 568 q 199 787 119 732 q 384 875 278 842 q 615 922 490 908 q 875 936 740 936 q 1185 912 1021 936 q 1499 843 1349 888 l 1499 903 l 1565 903 l 1565 610 l 1499 610 q 1413 703 1468 657 q 1285 789 1358 750 q 1126 851 1211 828 q 950 874 1042 874 q 803 853 869 874 q 697 788 736 833 q 658 669 658 743 l 658 282 q 669 190 658 235 q 710 108 681 144 q 792 51 739 72 q 929 29 846 29 q 1000 38 961 29 q 1074 68 1039 46 q 1133 133 1110 90 q 1156 243 1156 175 l 1156 343 q 1132 415 1156 383 q 1072 465 1108 447 q 997 483 1036 483 l 838 483 l 838 543 l 1949 543 l 1949 483 l 1685 483 l 1685 0 l 1618 0 q 1593 63 1618 38 q 1519 88 1568 88 q 1431 69 1481 88 q 1312 28 1381 51 q 1148 -14 1243 4 q 925 -32 1053 -32 m 417 93 l 418 99 q 276 248 332 150 q 221 465 221 346 q 276 681 221 585 q 418 828 332 778 l 415 835 q 262 752 329 807 q 156 624 194 697 q 118 465 118 550 q 156 306 118 381 q 262 177 194 232 q 417 93 329 122 m 1269 99 q 1302 126 1286 99 q 1328 199 1318 153 q 1339 299 1339 244 l 1339 481 l 1249 481 l 1249 207 q 1254 119 1249 140 q 1269 99 1260 99 m 896 951 q 801 972 844 951 q 733 1029 758 993 q 707 1108 707 1065 q 733 1189 707 1153 q 801 1247 758 1225 q 896 1268 844 1268 q 993 1247 950 1268 q 1062 1189 1036 1225 q 1088 1108 1088 1153 q 1062 1029 1088 1065 q 993 972 1036 993 q 896 951 950 951 m 828 996 l 831 1000 q 803 1048 814 1019 q 793 1108 793 1076 q 803 1169 793 1140 q 831 1217 814 1197 l 828 1221 q 768 1174 792 1204 q 744 1108 744 1143 q 768 1043 744 1074 q 828 996 792 1013 z "},"H":{"ha":2376,"x_min":101,"x_max":2267,"o":"m 101 0 l 101 60 l 268 60 q 374 93 331 60 q 418 210 418 126 l 418 690 q 398 767 418 732 q 344 822 378 801 q 268 843 310 843 l 101 843 l 101 903 l 1149 903 l 1149 843 q 1032 825 1072 843 q 976 776 992 807 q 961 706 961 746 l 961 515 l 1406 515 l 1406 706 q 1390 776 1406 746 q 1335 825 1375 807 q 1218 843 1294 843 l 1218 903 l 2267 903 l 2267 843 l 2099 843 q 2024 822 2058 843 q 1968 767 1989 801 q 1947 690 1947 732 l 1947 210 q 1992 93 1947 126 q 2099 60 2038 60 l 2267 60 l 2267 0 l 1218 0 l 1218 60 q 1326 69 1288 60 q 1381 97 1364 79 q 1401 140 1397 115 q 1406 193 1406 164 l 1406 381 q 1394 422 1406 403 q 1347 442 1382 442 l 1019 442 q 974 422 986 442 q 961 381 961 403 l 961 189 q 970 122 961 151 q 1018 76 979 93 q 1149 60 1057 60 l 1149 0 l 101 0 m 513 60 l 603 60 l 603 843 l 513 843 l 513 60 m 1501 60 l 1592 60 l 1592 843 l 1501 843 l 1501 60 z "},"Ħ":{"ha":2376,"x_min":101,"x_max":2267,"o":"m 101 0 l 101 60 l 268 60 q 374 93 331 60 q 418 210 418 126 l 418 608 l 251 608 l 251 708 l 417 708 q 368 803 410 764 q 268 843 326 843 l 101 843 l 101 903 l 1149 903 l 1149 843 q 1032 825 1072 843 q 976 777 992 807 q 961 708 961 747 l 1406 708 q 1390 778 1406 747 q 1333 826 1374 808 q 1218 843 1293 843 l 1218 903 l 2267 903 l 2267 843 l 2099 843 q 1999 803 2042 843 q 1949 708 1956 764 l 2114 708 l 2114 608 l 1947 608 l 1947 210 q 1992 93 1947 126 q 2099 60 2038 60 l 2267 60 l 2267 0 l 1218 0 l 1218 60 q 1326 69 1288 60 q 1381 97 1364 79 q 1401 140 1397 115 q 1406 193 1406 164 l 1406 381 q 1394 422 1406 403 q 1347 442 1382 442 l 1019 442 q 974 422 986 442 q 961 381 961 403 l 961 189 q 970 122 961 151 q 1018 76 979 93 q 1149 60 1057 60 l 1149 0 l 101 0 m 513 60 l 603 60 l 603 843 l 513 843 l 513 60 m 1501 60 l 1592 60 l 1592 843 l 1501 843 l 1501 60 m 961 515 l 1406 515 l 1406 608 l 961 608 l 961 515 z "},"Ĥ":{"ha":2376,"x_min":101,"x_max":2267,"o":"m 101 0 l 101 60 l 268 60 q 374 93 331 60 q 418 210 418 126 l 418 690 q 398 767 418 732 q 344 822 378 801 q 268 843 310 843 l 101 843 l 101 903 l 1149 903 l 1149 843 q 1032 825 1072 843 q 976 776 992 807 q 961 706 961 746 l 961 515 l 1406 515 l 1406 706 q 1390 776 1406 746 q 1335 825 1375 807 q 1218 843 1294 843 l 1218 903 l 2267 903 l 2267 843 l 2099 843 q 2024 822 2058 843 q 1968 767 1989 801 q 1947 690 1947 732 l 1947 210 q 1992 93 1947 126 q 2099 60 2038 60 l 2267 60 l 2267 0 l 1218 0 l 1218 60 q 1326 69 1288 60 q 1381 97 1364 79 q 1401 140 1397 115 q 1406 193 1406 164 l 1406 381 q 1394 422 1406 403 q 1347 442 1382 442 l 1019 442 q 974 422 986 442 q 961 381 961 403 l 961 189 q 970 122 961 151 q 1018 76 979 93 q 1149 60 1057 60 l 1149 0 l 101 0 m 513 60 l 603 60 l 603 843 l 513 843 l 513 60 m 1501 60 l 1592 60 l 1592 843 l 1501 843 l 1501 60 m 778 994 l 964 1197 l 1414 1197 l 1599 994 l 1478 994 l 1335 1150 l 1190 994 l 778 994 m 932 1047 l 1018 1047 l 1122 1163 l 1036 1163 l 932 1047 z "},"I":{"ha":1393,"x_min":101,"x_max":1283,"o":"m 101 0 l 101 60 l 271 60 q 378 93 333 60 q 422 210 422 126 l 422 690 q 402 767 422 732 q 347 822 382 801 q 271 843 313 843 l 101 843 l 101 903 l 1283 903 l 1283 843 l 1115 843 q 1040 822 1074 843 q 985 767 1006 801 q 964 690 964 732 l 964 210 q 1008 93 964 126 q 1115 60 1053 60 l 1283 60 l 1283 0 l 101 0 m 515 60 l 606 60 l 606 843 l 515 843 l 515 60 z "},"Ĳ":{"ha":2904,"x_min":101,"x_max":2886,"o":"m 101 0 l 101 60 l 271 60 q 378 93 333 60 q 422 210 422 126 l 422 690 q 402 767 422 732 q 347 822 382 801 q 271 843 313 843 l 101 843 l 101 903 l 1283 903 l 1283 843 l 1115 843 q 1040 822 1074 843 q 985 767 1006 801 q 964 690 964 732 l 964 210 q 1008 93 964 126 q 1115 60 1053 60 l 1283 60 l 1283 0 l 101 0 m 515 60 l 606 60 l 606 843 l 515 843 l 515 60 m 1996 -31 q 1743 -10 1857 -31 q 1551 34 1629 10 q 1442 71 1474 58 l 1442 0 l 1374 0 l 1374 364 l 1442 364 q 1460 330 1442 364 q 1514 247 1478 296 q 1605 147 1550 197 q 1735 63 1660 97 q 1904 29 1810 29 q 2010 63 1965 29 q 2056 179 2056 96 l 2056 690 q 2016 797 2056 751 q 1904 843 1976 843 l 1736 843 l 1736 903 l 2886 903 l 2886 843 l 2749 843 q 2637 797 2676 843 q 2597 690 2597 751 l 2597 272 q 2569 145 2597 201 q 2473 50 2540 89 q 2289 -10 2406 11 q 1996 -31 2172 -31 m 2149 89 q 2188 117 2168 97 q 2223 179 2208 138 q 2238 289 2238 221 l 2238 843 l 2149 843 l 2149 89 z "},"Í":{"ha":1393,"x_min":101,"x_max":1283,"o":"m 101 0 l 101 60 l 271 60 q 378 93 333 60 q 422 210 422 126 l 422 690 q 402 767 422 732 q 347 822 382 801 q 271 843 313 843 l 101 843 l 101 903 l 1283 903 l 1283 843 l 1115 843 q 1040 822 1074 843 q 985 767 1006 801 q 964 690 964 732 l 964 210 q 1008 93 964 126 q 1115 60 1053 60 l 1283 60 l 1283 0 l 101 0 m 515 60 l 606 60 l 606 843 l 515 843 l 515 60 m 315 994 l 315 1044 q 490 1063 424 1044 q 599 1115 557 1081 q 675 1197 640 1149 l 1079 1197 q 1071 1176 1079 1197 q 1041 1124 1063 1154 q 979 1064 1019 1093 q 874 1019 939 1035 q 770 1005 833 1010 q 637 998 707 1000 q 501 995 567 996 q 390 994 436 994 l 315 994 m 590 1049 q 709 1072 663 1053 q 782 1117 756 1092 q 819 1158 808 1142 l 731 1158 q 693 1112 718 1133 q 640 1076 668 1090 q 590 1054 611 1061 l 590 1049 z "},"Ĭ":{"ha":1393,"x_min":101,"x_max":1283,"o":"m 101 0 l 101 60 l 271 60 q 378 93 333 60 q 422 210 422 126 l 422 690 q 402 767 422 732 q 347 822 382 801 q 271 843 313 843 l 101 843 l 101 903 l 1283 903 l 1283 843 l 1115 843 q 1040 822 1074 843 q 985 767 1006 801 q 964 690 964 732 l 964 210 q 1008 93 964 126 q 1115 60 1053 60 l 1283 60 l 1283 0 l 101 0 m 515 60 l 606 60 l 606 843 l 515 843 l 515 60 m 699 949 q 563 984 625 949 q 463 1080 500 1019 q 426 1213 426 1140 l 456 1221 q 556 1161 499 1186 q 699 1136 614 1136 q 842 1161 785 1136 q 940 1221 899 1186 l 968 1213 q 932 1080 968 1140 q 835 984 896 1019 q 699 949 775 949 m 699 993 q 812 1023 760 993 q 892 1103 864 1053 l 885 1107 q 803 1065 851 1082 q 699 1049 756 1049 q 597 1065 646 1049 q 514 1107 547 1082 l 507 1103 q 587 1023 535 1053 q 699 993 639 993 z "},"Î":{"ha":1393,"x_min":101,"x_max":1283,"o":"m 101 0 l 101 60 l 271 60 q 378 93 333 60 q 422 210 422 126 l 422 690 q 402 767 422 732 q 347 822 382 801 q 271 843 313 843 l 101 843 l 101 903 l 1283 903 l 1283 843 l 1115 843 q 1040 822 1074 843 q 985 767 1006 801 q 964 690 964 732 l 964 210 q 1008 93 964 126 q 1115 60 1053 60 l 1283 60 l 1283 0 l 101 0 m 515 60 l 606 60 l 606 843 l 515 843 l 515 60 m 286 994 l 472 1197 l 922 1197 l 1107 994 l 986 994 l 843 1150 l 699 994 l 286 994 m 440 1047 l 526 1047 l 631 1163 l 544 1163 l 440 1047 z "},"Ï":{"ha":1393,"x_min":101,"x_max":1283,"o":"m 101 0 l 101 60 l 271 60 q 378 93 333 60 q 422 210 422 126 l 422 690 q 402 767 422 732 q 347 822 382 801 q 271 843 313 843 l 101 843 l 101 903 l 1283 903 l 1283 843 l 1115 843 q 1040 822 1074 843 q 985 767 1006 801 q 964 690 964 732 l 964 210 q 1008 93 964 126 q 1115 60 1053 60 l 1283 60 l 1283 0 l 101 0 m 515 60 l 606 60 l 606 843 l 515 843 l 515 60 m 1013 951 q 918 972 961 951 q 849 1029 875 993 q 824 1108 824 1065 q 849 1189 824 1153 q 918 1247 875 1225 q 1013 1268 961 1268 q 1110 1247 1067 1268 q 1178 1189 1153 1225 q 1204 1108 1204 1153 q 1178 1029 1204 1065 q 1110 972 1153 993 q 1013 951 1067 951 m 379 951 q 285 972 328 951 q 216 1029 242 993 q 190 1108 190 1065 q 216 1189 190 1153 q 285 1247 242 1225 q 379 1268 328 1268 q 476 1247 433 1268 q 545 1189 519 1225 q 571 1108 571 1153 q 545 1029 571 1065 q 476 972 519 993 q 379 951 433 951 m 338 983 l 342 988 q 310 1040 322 1010 q 299 1108 299 1071 q 310 1176 299 1146 q 342 1229 322 1207 l 338 1233 q 269 1182 296 1215 q 242 1108 242 1149 q 269 1035 242 1069 q 338 983 296 1001 m 971 983 l 975 988 q 944 1040 956 1010 q 932 1108 932 1071 q 944 1176 932 1146 q 975 1229 956 1207 l 971 1233 q 902 1182 929 1215 q 875 1108 875 1149 q 902 1035 875 1069 q 971 983 929 1001 z "},"İ":{"ha":1393,"x_min":101,"x_max":1283,"o":"m 101 0 l 101 60 l 271 60 q 378 93 333 60 q 422 210 422 126 l 422 690 q 402 767 422 732 q 347 822 382 801 q 271 843 313 843 l 101 843 l 101 903 l 1283 903 l 1283 843 l 1115 843 q 1040 822 1074 843 q 985 767 1006 801 q 964 690 964 732 l 964 210 q 1008 93 964 126 q 1115 60 1053 60 l 1283 60 l 1283 0 l 101 0 m 515 60 l 606 60 l 606 843 l 515 843 l 515 60 m 696 951 q 601 972 644 951 q 533 1029 558 993 q 507 1108 507 1065 q 533 1189 507 1153 q 601 1247 558 1225 q 696 1268 644 1268 q 793 1247 750 1268 q 862 1189 836 1225 q 888 1108 888 1153 q 862 1029 888 1065 q 793 972 836 993 q 696 951 750 951 m 628 996 l 631 1000 q 603 1048 614 1019 q 593 1108 593 1076 q 603 1169 593 1140 q 631 1217 614 1197 l 628 1221 q 568 1174 592 1204 q 544 1108 544 1143 q 568 1043 544 1074 q 628 996 592 1013 z "},"Ì":{"ha":1393,"x_min":101,"x_max":1283,"o":"m 101 0 l 101 60 l 271 60 q 378 93 333 60 q 422 210 422 126 l 422 690 q 402 767 422 732 q 347 822 382 801 q 271 843 313 843 l 101 843 l 101 903 l 1283 903 l 1283 843 l 1115 843 q 1040 822 1074 843 q 985 767 1006 801 q 964 690 964 732 l 964 210 q 1008 93 964 126 q 1115 60 1053 60 l 1283 60 l 1283 0 l 101 0 m 515 60 l 606 60 l 606 843 l 515 843 l 515 60 m 1004 994 q 893 995 958 994 q 758 998 828 996 q 624 1005 688 1000 q 521 1019 561 1010 q 416 1064 457 1035 q 353 1124 375 1093 q 324 1176 332 1154 q 315 1197 315 1197 l 719 1197 q 796 1115 754 1149 q 904 1063 838 1081 q 1079 1044 971 1044 l 1079 994 l 1004 994 m 646 1049 l 646 1054 q 597 1076 625 1061 q 543 1112 568 1090 q 506 1158 518 1133 l 417 1158 q 455 1117 429 1142 q 527 1072 481 1092 q 646 1049 574 1053 z "},"Ī":{"ha":1393,"x_min":101,"x_max":1283,"o":"m 101 0 l 101 60 l 271 60 q 378 93 333 60 q 422 210 422 126 l 422 690 q 402 767 422 732 q 347 822 382 801 q 271 843 313 843 l 101 843 l 101 903 l 1283 903 l 1283 843 l 1115 843 q 1040 822 1074 843 q 985 767 1006 801 q 964 690 964 732 l 964 210 q 1008 93 964 126 q 1115 60 1053 60 l 1283 60 l 1283 0 l 101 0 m 515 60 l 606 60 l 606 843 l 515 843 l 515 60 m 415 1003 l 415 1189 l 978 1189 l 978 1003 l 415 1003 m 500 1031 l 575 1031 l 575 1161 l 500 1161 l 500 1031 z "},"Į":{"ha":1393,"x_min":101,"x_max":1283,"o":"m 101 0 l 101 60 l 271 60 q 378 93 333 60 q 422 210 422 126 l 422 690 q 402 767 422 732 q 347 822 382 801 q 271 843 313 843 l 101 843 l 101 903 l 1283 903 l 1283 843 l 1115 843 q 1040 822 1074 843 q 985 767 1006 801 q 964 690 964 732 l 964 210 q 1008 93 964 126 q 1115 60 1053 60 l 1283 60 l 1283 0 l 101 0 m 515 60 l 606 60 l 606 843 l 515 843 l 515 60 m 710 -311 q 597 -307 654 -311 q 492 -290 539 -303 q 415 -252 444 -276 q 386 -186 386 -228 q 426 -97 386 -135 q 535 -32 467 -58 q 687 10 603 -6 q 860 31 771 25 l 860 8 q 723 -48 768 -6 q 678 -147 678 -90 q 710 -222 678 -199 q 786 -244 742 -244 q 863 -226 824 -244 q 933 -178 901 -208 q 979 -111 965 -147 l 1033 -111 l 1033 -262 q 894 -297 981 -282 q 710 -311 808 -311 m 583 -279 l 586 -272 q 534 -228 557 -260 q 511 -165 511 -196 q 574 -61 511 -97 l 569 -54 q 478 -101 515 -71 q 442 -172 442 -131 q 478 -241 442 -211 q 583 -279 515 -271 z "},"Ĩ":{"ha":1393,"x_min":101,"x_max":1283,"o":"m 101 0 l 101 60 l 271 60 q 378 93 333 60 q 422 210 422 126 l 422 690 q 402 767 422 732 q 347 822 382 801 q 271 843 313 843 l 101 843 l 101 903 l 1283 903 l 1283 843 l 1115 843 q 1040 822 1074 843 q 985 767 1006 801 q 964 690 964 732 l 964 210 q 1008 93 964 126 q 1115 60 1053 60 l 1283 60 l 1283 0 l 101 0 m 515 60 l 606 60 l 606 843 l 515 843 l 515 60 m 847 979 q 707 990 765 979 q 599 1013 649 1000 q 499 1037 550 1026 q 379 1047 447 1047 q 326 1033 349 1047 q 293 996 303 1019 l 254 996 q 277 1060 257 1022 q 336 1134 297 1097 q 433 1196 375 1171 q 568 1221 492 1221 q 701 1213 646 1221 q 800 1196 756 1206 q 888 1178 844 1186 q 986 1171 931 1171 q 1056 1184 1032 1171 q 1094 1219 1081 1197 l 1140 1219 q 1119 1151 1138 1192 q 1064 1072 1100 1111 q 974 1006 1028 1032 q 847 979 919 979 m 857 1026 q 956 1044 906 1026 q 1042 1090 1007 1061 l 1039 1096 q 968 1081 1010 1086 q 896 1075 926 1075 q 758 1084 815 1075 q 656 1106 701 1093 q 567 1127 611 1118 q 465 1136 522 1136 q 400 1124 426 1136 q 354 1094 374 1111 l 358 1089 q 388 1094 374 1092 q 417 1096 403 1096 q 540 1078 475 1096 q 682 1044 604 1061 q 857 1026 760 1026 z "},"J":{"ha":1511,"x_min":-19,"x_max":1493,"o":"m 603 -31 q 350 -10 464 -31 q 158 34 236 10 q 49 71 81 58 l 49 0 l -19 0 l -19 364 l 49 364 q 67 330 49 364 q 121 247 85 296 q 212 147 157 197 q 342 63 267 97 q 511 29 417 29 q 617 63 572 29 q 663 179 663 96 l 663 690 q 623 797 663 751 q 511 843 583 843 l 343 843 l 343 903 l 1493 903 l 1493 843 l 1356 843 q 1244 797 1283 843 q 1204 690 1204 751 l 1204 272 q 1176 145 1204 201 q 1080 50 1147 89 q 896 -10 1013 11 q 603 -31 779 -31 m 756 89 q 795 117 775 97 q 830 179 815 138 q 844 289 844 221 l 844 843 l 756 843 l 756 89 z "},"Ĵ":{"ha":1511,"x_min":-19,"x_max":1493,"o":"m 603 -31 q 350 -10 464 -31 q 158 34 236 10 q 49 71 81 58 l 49 0 l -19 0 l -19 364 l 49 364 q 67 330 49 364 q 121 247 85 296 q 212 147 157 197 q 342 63 267 97 q 511 29 417 29 q 617 63 572 29 q 663 179 663 96 l 663 690 q 623 797 663 751 q 511 843 583 843 l 343 843 l 343 903 l 1493 903 l 1493 843 l 1356 843 q 1244 797 1283 843 q 1204 690 1204 751 l 1204 272 q 1176 145 1204 201 q 1080 50 1147 89 q 896 -10 1013 11 q 603 -31 779 -31 m 756 89 q 795 117 775 97 q 830 179 815 138 q 844 289 844 221 l 844 843 l 756 843 l 756 89 m 511 994 l 697 1197 l 1147 1197 l 1332 994 l 1211 994 l 1068 1150 l 924 994 l 511 994 m 665 1047 l 751 1047 l 856 1163 l 769 1163 l 665 1047 z "},"K":{"ha":2299,"x_min":101,"x_max":2268,"o":"m 101 0 l 101 60 l 268 60 q 374 94 331 60 q 418 210 418 128 l 418 692 q 398 767 418 733 q 344 822 378 801 q 268 843 310 843 l 101 843 l 101 903 l 1271 903 l 1271 843 l 1117 843 q 1003 805 1044 843 q 961 707 961 767 l 961 560 q 976 506 961 532 q 1042 479 990 479 l 1069 479 q 1135 489 1107 479 q 1200 515 1164 499 l 1474 639 q 1601 712 1561 679 q 1640 782 1640 744 q 1597 831 1640 819 q 1446 843 1553 843 l 1446 903 l 2268 903 l 2268 843 l 2119 843 q 2034 827 2085 843 q 1928 786 1983 811 q 1822 735 1872 761 q 1735 690 1771 710 q 1689 664 1699 669 q 1660 638 1674 654 q 1647 601 1647 622 q 1668 551 1647 576 l 2082 60 l 2268 60 l 2268 0 l 1496 0 l 1129 411 l 1019 411 q 973 392 985 411 q 961 350 961 372 l 961 210 q 1006 94 961 128 q 1113 60 1050 60 l 1213 60 l 1213 0 l 101 0 m 513 60 l 603 60 l 603 843 l 513 843 l 513 60 m 1564 60 l 1685 60 l 1336 450 l 1215 450 l 1564 60 z "},"Ķ":{"ha":2299,"x_min":101,"x_max":2268,"o":"m 101 0 l 101 60 l 268 60 q 374 94 331 60 q 418 210 418 128 l 418 692 q 398 767 418 733 q 344 822 378 801 q 268 843 310 843 l 101 843 l 101 903 l 1271 903 l 1271 843 l 1117 843 q 1003 805 1044 843 q 961 707 961 767 l 961 560 q 976 506 961 532 q 1042 479 990 479 l 1069 479 q 1135 489 1107 479 q 1200 515 1164 499 l 1474 639 q 1601 712 1561 679 q 1640 782 1640 744 q 1597 831 1640 819 q 1446 843 1553 843 l 1446 903 l 2268 903 l 2268 843 l 2119 843 q 2034 827 2085 843 q 1928 786 1983 811 q 1822 735 1872 761 q 1735 690 1771 710 q 1689 664 1699 669 q 1660 638 1674 654 q 1647 601 1647 622 q 1668 551 1647 576 l 2082 60 l 2268 60 l 2268 0 l 1496 0 l 1129 411 l 1019 411 q 973 392 985 411 q 961 350 961 372 l 961 210 q 1006 94 961 128 q 1113 60 1050 60 l 1213 60 l 1213 0 l 101 0 m 513 60 l 603 60 l 603 843 l 513 843 l 513 60 m 1564 60 l 1685 60 l 1336 450 l 1215 450 l 1564 60 m 1001 -550 l 1001 -499 q 1083 -489 1035 -499 q 1175 -455 1131 -479 q 1239 -390 1219 -431 q 1179 -399 1213 -399 q 1083 -377 1126 -399 q 1013 -319 1039 -356 q 988 -239 988 -282 q 1013 -159 988 -194 q 1083 -103 1039 -124 q 1179 -82 1126 -82 q 1274 -103 1232 -82 q 1342 -162 1317 -125 q 1368 -250 1368 -200 q 1333 -383 1368 -318 q 1218 -494 1299 -449 q 1001 -550 1138 -540 m 1126 -351 l 1129 -347 q 1102 -299 1113 -328 q 1092 -239 1092 -271 q 1102 -178 1092 -207 q 1129 -131 1113 -150 l 1126 -126 q 1067 -174 1090 -143 q 1043 -239 1043 -204 q 1067 -304 1043 -274 q 1126 -351 1090 -335 z "},"L":{"ha":1735,"x_min":101,"x_max":1717,"o":"m 101 0 l 101 60 l 268 60 q 374 93 331 60 q 418 210 418 126 l 418 690 q 398 767 418 732 q 344 822 378 801 q 268 843 310 843 l 101 843 l 101 903 l 1344 903 l 1344 843 l 1113 843 q 1037 822 1071 843 q 982 767 1003 801 q 961 690 961 732 l 961 210 q 974 135 961 169 q 1020 80 988 100 q 1113 60 1053 60 q 1229 74 1164 60 q 1368 124 1294 88 q 1518 228 1442 161 q 1669 400 1594 294 l 1717 400 l 1717 0 l 101 0 m 513 60 l 603 60 l 603 843 l 513 843 l 513 60 z "},"Ĺ":{"ha":1735,"x_min":101,"x_max":1717,"o":"m 101 0 l 101 60 l 268 60 q 374 93 331 60 q 418 210 418 126 l 418 690 q 398 767 418 732 q 344 822 378 801 q 268 843 310 843 l 101 843 l 101 903 l 1344 903 l 1344 843 l 1113 843 q 1037 822 1071 843 q 982 767 1003 801 q 961 690 961 732 l 961 210 q 974 135 961 169 q 1020 80 988 100 q 1113 60 1053 60 q 1229 74 1164 60 q 1368 124 1294 88 q 1518 228 1442 161 q 1669 400 1594 294 l 1717 400 l 1717 0 l 101 0 m 513 60 l 603 60 l 603 843 l 513 843 l 513 60 m 389 994 l 389 1044 q 564 1063 497 1044 q 672 1115 631 1081 q 749 1197 714 1149 l 1153 1197 q 1144 1176 1153 1197 q 1115 1124 1136 1154 q 1053 1064 1093 1093 q 947 1019 1013 1035 q 844 1005 907 1010 q 710 998 781 1000 q 575 995 640 996 q 464 994 510 994 l 389 994 m 664 1049 q 783 1072 736 1053 q 856 1117 829 1092 q 893 1158 882 1142 l 804 1158 q 767 1112 792 1133 q 713 1076 742 1090 q 664 1054 685 1061 l 664 1049 z "},"Ľ":{"ha":1735,"x_min":101,"x_max":1717,"o":"m 101 0 l 101 60 l 268 60 q 374 93 331 60 q 418 210 418 126 l 418 690 q 398 767 418 732 q 344 822 378 801 q 268 843 310 843 l 101 843 l 101 903 l 1344 903 l 1344 843 l 1113 843 q 1037 822 1071 843 q 982 767 1003 801 q 961 690 961 732 l 961 210 q 974 135 961 169 q 1020 80 988 100 q 1113 60 1053 60 q 1229 74 1164 60 q 1368 124 1294 88 q 1518 228 1442 161 q 1669 400 1594 294 l 1717 400 l 1717 0 l 101 0 m 513 60 l 603 60 l 603 843 l 513 843 l 513 60 m 1308 372 l 1308 424 q 1390 433 1342 424 q 1482 467 1438 443 q 1546 532 1526 492 q 1486 524 1519 524 q 1390 545 1433 524 q 1320 603 1346 567 q 1294 683 1294 640 q 1320 763 1294 728 q 1390 819 1346 799 q 1486 840 1433 840 q 1581 819 1539 840 q 1649 760 1624 797 q 1675 672 1675 722 q 1640 539 1675 604 q 1525 428 1606 474 q 1308 372 1444 382 m 1433 571 l 1436 575 q 1409 623 1419 594 q 1399 683 1399 651 q 1409 744 1399 715 q 1436 792 1419 772 l 1433 796 q 1374 749 1397 779 q 1350 683 1350 718 q 1374 618 1350 649 q 1433 571 1397 588 z "},"Ļ":{"ha":1735,"x_min":101,"x_max":1717,"o":"m 101 0 l 101 60 l 268 60 q 374 93 331 60 q 418 210 418 126 l 418 690 q 398 767 418 732 q 344 822 378 801 q 268 843 310 843 l 101 843 l 101 903 l 1344 903 l 1344 843 l 1113 843 q 1037 822 1071 843 q 982 767 1003 801 q 961 690 961 732 l 961 210 q 974 135 961 169 q 1020 80 988 100 q 1113 60 1053 60 q 1229 74 1164 60 q 1368 124 1294 88 q 1518 228 1442 161 q 1669 400 1594 294 l 1717 400 l 1717 0 l 101 0 m 513 60 l 603 60 l 603 843 l 513 843 l 513 60 m 785 -550 l 785 -499 q 866 -489 818 -499 q 958 -455 914 -479 q 1022 -390 1003 -431 q 963 -399 996 -399 q 866 -377 910 -399 q 797 -319 822 -356 q 771 -239 771 -282 q 797 -159 771 -194 q 866 -103 822 -124 q 963 -82 910 -82 q 1058 -103 1015 -82 q 1126 -162 1100 -125 q 1151 -250 1151 -200 q 1117 -383 1151 -318 q 1001 -494 1082 -449 q 785 -550 921 -540 m 910 -351 l 913 -347 q 885 -299 896 -328 q 875 -239 875 -271 q 885 -178 875 -207 q 913 -131 896 -150 l 910 -126 q 850 -174 874 -143 q 826 -239 826 -204 q 850 -304 826 -274 q 910 -351 874 -335 z "},"Ŀ":{"ha":1735,"x_min":101,"x_max":1717,"o":"m 101 0 l 101 60 l 268 60 q 374 93 331 60 q 418 210 418 126 l 418 690 q 398 767 418 732 q 344 822 378 801 q 268 843 310 843 l 101 843 l 101 903 l 1344 903 l 1344 843 l 1113 843 q 1037 822 1071 843 q 982 767 1003 801 q 961 690 961 732 l 961 210 q 974 135 961 169 q 1020 80 988 100 q 1113 60 1053 60 q 1229 74 1164 60 q 1368 124 1294 88 q 1518 228 1442 161 q 1669 400 1594 294 l 1717 400 l 1717 0 l 101 0 m 513 60 l 603 60 l 603 843 l 513 843 l 513 60 m 1236 358 q 1142 379 1185 358 q 1073 436 1099 400 q 1047 515 1047 472 q 1073 596 1047 560 q 1142 653 1099 632 q 1236 675 1185 675 q 1333 653 1290 675 q 1402 596 1376 632 q 1428 515 1428 560 q 1402 436 1428 472 q 1333 379 1376 400 q 1236 358 1290 358 m 1168 403 l 1171 407 q 1144 455 1154 426 q 1133 515 1133 483 q 1144 576 1133 547 q 1171 624 1154 604 l 1168 628 q 1108 581 1132 611 q 1085 515 1085 550 q 1108 450 1085 481 q 1168 403 1132 419 z "},"Ł":{"ha":1735,"x_min":101,"x_max":1717,"o":"m 101 0 l 101 60 l 268 60 q 374 93 331 60 q 418 210 418 126 l 418 301 l 210 235 l 210 346 l 418 413 l 418 690 q 398 767 418 732 q 344 822 378 801 q 268 843 310 843 l 101 843 l 101 903 l 1344 903 l 1344 843 l 1113 843 q 1037 822 1071 843 q 982 767 1003 801 q 961 690 961 732 l 961 589 l 1217 671 l 1217 560 l 961 478 l 961 210 q 974 135 961 169 q 1020 80 988 100 q 1113 60 1053 60 q 1229 74 1164 60 q 1368 124 1294 88 q 1518 228 1442 161 q 1669 400 1594 294 l 1717 400 l 1717 0 l 101 0 m 513 60 l 603 60 l 603 843 l 513 843 l 513 60 z "},"M":{"ha":2581,"x_min":31,"x_max":2535,"o":"m 49 0 l 49 60 q 194 77 118 60 q 337 133 271 94 q 444 233 403 171 q 486 385 486 296 l 486 531 q 448 659 486 601 q 344 758 410 717 q 198 821 279 799 q 31 843 117 843 l 31 903 l 929 903 l 1356 540 l 1589 903 l 2535 903 l 2535 843 l 2303 843 q 2196 817 2240 843 q 2151 731 2151 792 l 2151 210 q 2196 93 2151 126 q 2303 60 2240 60 l 2535 60 l 2535 0 l 1292 0 l 1292 60 l 1458 60 q 1565 93 1521 60 q 1610 210 1610 126 l 1610 776 l 1185 118 l 1113 118 l 576 571 l 576 385 q 618 233 576 296 q 726 133 660 171 q 868 77 792 94 q 1014 60 944 60 l 1014 0 l 49 0 m 1703 60 l 1793 60 l 1793 843 l 1703 843 l 1703 60 m 1126 235 l 1161 235 l 1161 322 l 550 840 l 411 840 l 1126 235 z "},"N":{"ha":2144,"x_min":32,"x_max":2124,"o":"m 1682 -58 l 715 526 q 694 536 715 526 q 646 546 672 546 q 598 526 619 546 q 576 449 576 507 l 576 385 q 618 233 576 294 q 726 133 660 171 q 868 77 792 94 q 1014 60 944 60 l 1014 0 l 49 0 l 49 60 q 194 77 118 60 q 337 133 271 94 q 444 233 403 171 q 486 385 486 294 l 486 531 q 448 659 486 601 q 344 758 410 717 q 199 821 279 799 q 32 843 118 843 l 32 903 l 1072 903 l 1556 599 q 1572 589 1556 599 q 1612 566 1589 579 q 1656 542 1635 553 q 1686 532 1676 532 q 1706 539 1694 532 q 1718 569 1718 546 q 1688 714 1718 660 q 1611 796 1658 768 q 1508 833 1564 824 q 1401 843 1453 843 l 1401 903 l 2124 903 l 2124 843 q 2017 833 2072 843 q 1914 796 1961 824 q 1837 714 1867 768 q 1807 569 1807 660 l 1807 -58 l 1682 -58 m 1682 49 l 1682 149 l 532 843 l 494 843 l 494 767 l 1682 49 z "},"Ń":{"ha":2144,"x_min":32,"x_max":2124,"o":"m 1682 -58 l 715 526 q 694 536 715 526 q 646 546 672 546 q 598 526 619 546 q 576 449 576 507 l 576 385 q 618 233 576 294 q 726 133 660 171 q 868 77 792 94 q 1014 60 944 60 l 1014 0 l 49 0 l 49 60 q 194 77 118 60 q 337 133 271 94 q 444 233 403 171 q 486 385 486 294 l 486 531 q 448 659 486 601 q 344 758 410 717 q 199 821 279 799 q 32 843 118 843 l 32 903 l 1072 903 l 1556 599 q 1572 589 1556 599 q 1612 566 1589 579 q 1656 542 1635 553 q 1686 532 1676 532 q 1706 539 1694 532 q 1718 569 1718 546 q 1688 714 1718 660 q 1611 796 1658 768 q 1508 833 1564 824 q 1401 843 1453 843 l 1401 903 l 2124 903 l 2124 843 q 2017 833 2072 843 q 1914 796 1961 824 q 1837 714 1867 768 q 1807 569 1807 660 l 1807 -58 l 1682 -58 m 1682 49 l 1682 149 l 532 843 l 494 843 l 494 767 l 1682 49 m 690 994 l 690 1044 q 865 1063 799 1044 q 974 1115 932 1081 q 1050 1197 1015 1149 l 1454 1197 q 1446 1176 1454 1197 q 1416 1124 1438 1154 q 1354 1064 1394 1093 q 1249 1019 1314 1035 q 1145 1005 1208 1010 q 1012 998 1082 1000 q 876 995 942 996 q 765 994 811 994 l 690 994 m 965 1049 q 1084 1072 1038 1053 q 1157 1117 1131 1092 q 1194 1158 1183 1142 l 1106 1158 q 1068 1112 1093 1133 q 1015 1076 1043 1090 q 965 1054 986 1061 l 965 1049 z "},"Ň":{"ha":2144,"x_min":32,"x_max":2124,"o":"m 1682 -58 l 715 526 q 694 536 715 526 q 646 546 672 546 q 598 526 619 546 q 576 449 576 507 l 576 385 q 618 233 576 294 q 726 133 660 171 q 868 77 792 94 q 1014 60 944 60 l 1014 0 l 49 0 l 49 60 q 194 77 118 60 q 337 133 271 94 q 444 233 403 171 q 486 385 486 294 l 486 531 q 448 659 486 601 q 344 758 410 717 q 199 821 279 799 q 32 843 118 843 l 32 903 l 1072 903 l 1556 599 q 1572 589 1556 599 q 1612 566 1589 579 q 1656 542 1635 553 q 1686 532 1676 532 q 1706 539 1694 532 q 1718 569 1718 546 q 1688 714 1718 660 q 1611 796 1658 768 q 1508 833 1564 824 q 1401 843 1453 843 l 1401 903 l 2124 903 l 2124 843 q 2017 833 2072 843 q 1914 796 1961 824 q 1837 714 1867 768 q 1807 569 1807 660 l 1807 -58 l 1682 -58 m 1682 49 l 1682 149 l 532 843 l 494 843 l 494 767 l 1682 49 m 847 994 l 661 1197 l 1074 1197 l 1218 1042 l 1361 1197 l 1482 1197 l 1297 994 l 847 994 m 919 1029 l 1006 1029 l 901 1144 l 815 1144 l 919 1029 z "},"Ņ":{"ha":2144,"x_min":32,"x_max":2124,"o":"m 1682 -58 l 715 526 q 694 536 715 526 q 646 546 672 546 q 598 526 619 546 q 576 449 576 507 l 576 385 q 618 233 576 294 q 726 133 660 171 q 868 77 792 94 q 1014 60 944 60 l 1014 0 l 49 0 l 49 60 q 194 77 118 60 q 337 133 271 94 q 444 233 403 171 q 486 385 486 294 l 486 531 q 448 659 486 601 q 344 758 410 717 q 199 821 279 799 q 32 843 118 843 l 32 903 l 1072 903 l 1556 599 q 1572 589 1556 599 q 1612 566 1589 579 q 1656 542 1635 553 q 1686 532 1676 532 q 1706 539 1694 532 q 1718 569 1718 546 q 1688 714 1718 660 q 1611 796 1658 768 q 1508 833 1564 824 q 1401 843 1453 843 l 1401 903 l 2124 903 l 2124 843 q 2017 833 2072 843 q 1914 796 1961 824 q 1837 714 1867 768 q 1807 569 1807 660 l 1807 -58 l 1682 -58 m 1682 49 l 1682 149 l 532 843 l 494 843 l 494 767 l 1682 49 m 896 -550 l 896 -499 q 977 -489 929 -499 q 1069 -455 1025 -479 q 1133 -390 1114 -431 q 1074 -399 1107 -399 q 977 -377 1021 -399 q 908 -319 933 -356 q 882 -239 882 -282 q 908 -159 882 -194 q 977 -103 933 -124 q 1074 -82 1021 -82 q 1169 -103 1126 -82 q 1237 -162 1211 -125 q 1263 -250 1263 -200 q 1228 -383 1263 -318 q 1113 -494 1193 -449 q 896 -550 1032 -540 m 1021 -351 l 1024 -347 q 997 -299 1007 -328 q 986 -239 986 -271 q 997 -178 986 -207 q 1024 -131 1007 -150 l 1021 -126 q 961 -174 985 -143 q 938 -239 938 -204 q 961 -304 938 -274 q 1021 -351 985 -335 z "},"Ñ":{"ha":2144,"x_min":32,"x_max":2124,"o":"m 1682 -58 l 715 526 q 694 536 715 526 q 646 546 672 546 q 598 526 619 546 q 576 449 576 507 l 576 385 q 618 233 576 294 q 726 133 660 171 q 868 77 792 94 q 1014 60 944 60 l 1014 0 l 49 0 l 49 60 q 194 77 118 60 q 337 133 271 94 q 444 233 403 171 q 486 385 486 294 l 486 531 q 448 659 486 601 q 344 758 410 717 q 199 821 279 799 q 32 843 118 843 l 32 903 l 1072 903 l 1556 599 q 1572 589 1556 599 q 1612 566 1589 579 q 1656 542 1635 553 q 1686 532 1676 532 q 1706 539 1694 532 q 1718 569 1718 546 q 1688 714 1718 660 q 1611 796 1658 768 q 1508 833 1564 824 q 1401 843 1453 843 l 1401 903 l 2124 903 l 2124 843 q 2017 833 2072 843 q 1914 796 1961 824 q 1837 714 1867 768 q 1807 569 1807 660 l 1807 -58 l 1682 -58 m 1682 49 l 1682 149 l 532 843 l 494 843 l 494 767 l 1682 49 m 1222 979 q 1082 990 1140 979 q 974 1013 1024 1000 q 874 1037 925 1026 q 754 1047 822 1047 q 701 1033 724 1047 q 668 996 678 1019 l 629 996 q 652 1060 632 1022 q 711 1134 672 1097 q 808 1196 750 1171 q 943 1221 867 1221 q 1076 1213 1021 1221 q 1175 1196 1131 1206 q 1263 1178 1219 1186 q 1361 1171 1306 1171 q 1431 1184 1407 1171 q 1469 1219 1456 1197 l 1515 1219 q 1494 1151 1513 1192 q 1439 1072 1475 1111 q 1349 1006 1403 1032 q 1222 979 1294 979 m 1232 1026 q 1331 1044 1281 1026 q 1417 1090 1382 1061 l 1414 1096 q 1343 1081 1385 1086 q 1271 1075 1301 1075 q 1133 1084 1190 1075 q 1031 1106 1076 1093 q 942 1127 986 1118 q 840 1136 897 1136 q 775 1124 801 1136 q 729 1094 749 1111 l 733 1089 q 763 1094 749 1092 q 792 1096 778 1096 q 915 1078 850 1096 q 1057 1044 979 1061 q 1232 1026 1135 1026 z "},"Ŋ":{"ha":2144,"x_min":32,"x_max":2124,"o":"m 1415 -393 q 1226 -368 1317 -393 q 1083 -296 1136 -343 l 1083 -361 l 1018 -361 l 1018 -106 l 1072 -106 q 1128 -242 1083 -185 q 1256 -300 1174 -300 q 1318 -275 1297 -300 q 1339 -187 1339 -250 l 1339 150 l 715 526 q 694 536 715 526 q 646 546 672 546 q 598 526 619 546 q 576 449 576 507 l 576 385 q 618 233 576 294 q 726 133 660 171 q 868 77 792 94 q 1014 60 944 60 l 1014 0 l 49 0 l 49 60 q 194 77 118 60 q 337 133 271 94 q 444 233 403 171 q 486 385 486 294 l 486 531 q 448 659 486 601 q 344 758 410 717 q 199 821 279 799 q 32 843 118 843 l 32 903 l 1072 903 l 1556 599 q 1572 589 1556 599 q 1612 566 1589 579 q 1656 542 1635 553 q 1686 532 1676 532 q 1706 539 1694 532 q 1718 569 1718 546 q 1688 714 1718 660 q 1611 796 1658 768 q 1508 833 1564 824 q 1401 843 1453 843 l 1401 903 l 2124 903 l 2124 843 q 2017 833 2072 843 q 1914 796 1961 824 q 1837 714 1867 768 q 1807 569 1807 660 l 1808 -119 q 1756 -274 1811 -214 q 1611 -364 1701 -335 q 1415 -393 1521 -393 m 1433 -275 q 1473 -247 1453 -267 q 1508 -185 1493 -226 q 1522 -75 1522 -143 l 1522 244 l 532 843 l 494 843 l 494 767 l 1433 199 l 1433 -275 z "},"O":{"ha":1868,"x_min":31,"x_max":1836,"o":"m 933 -31 q 583 7 746 -31 q 295 110 419 44 q 101 264 171 176 q 31 451 31 351 q 94 638 31 551 q 275 791 157 725 q 560 894 393 857 q 933 931 726 931 q 1307 894 1140 931 q 1592 791 1474 857 q 1773 638 1710 725 q 1836 451 1836 551 q 1766 264 1836 351 q 1572 110 1696 176 q 1284 7 1447 44 q 933 -31 1121 -31 m 933 26 q 1145 133 1069 26 q 1221 450 1221 240 q 1197 683 1221 589 q 1110 826 1172 778 q 933 874 1047 874 q 758 826 821 874 q 671 683 696 778 q 646 450 646 589 q 722 133 646 240 q 933 26 799 26 m 533 56 l 535 61 q 363 160 438 100 q 248 294 289 219 q 207 451 207 368 q 249 610 207 535 q 366 744 290 685 q 540 843 442 804 l 539 849 q 312 751 410 811 q 160 614 214 690 q 106 451 106 538 q 159 291 106 367 q 309 155 213 215 q 533 56 406 94 m 1263 65 q 1389 240 1340 138 q 1438 451 1438 342 q 1389 664 1438 563 q 1263 838 1340 765 l 1254 835 q 1312 649 1290 747 q 1333 451 1333 550 q 1312 255 1333 354 q 1254 68 1290 156 l 1263 65 z "},"Ó":{"ha":1868,"x_min":31,"x_max":1836,"o":"m 933 -31 q 583 7 746 -31 q 295 110 419 44 q 101 264 171 176 q 31 451 31 351 q 94 638 31 551 q 275 791 157 725 q 560 894 393 857 q 933 931 726 931 q 1307 894 1140 931 q 1592 791 1474 857 q 1773 638 1710 725 q 1836 451 1836 551 q 1766 264 1836 351 q 1572 110 1696 176 q 1284 7 1447 44 q 933 -31 1121 -31 m 933 26 q 1145 133 1069 26 q 1221 450 1221 240 q 1197 683 1221 589 q 1110 826 1172 778 q 933 874 1047 874 q 758 826 821 874 q 671 683 696 778 q 646 450 646 589 q 722 133 646 240 q 933 26 799 26 m 533 56 l 535 61 q 363 160 438 100 q 248 294 289 219 q 207 451 207 368 q 249 610 207 535 q 366 744 290 685 q 540 843 442 804 l 539 849 q 312 751 410 811 q 160 614 214 690 q 106 451 106 538 q 159 291 106 367 q 309 155 213 215 q 533 56 406 94 m 1263 65 q 1389 240 1340 138 q 1438 451 1438 342 q 1389 664 1438 563 q 1263 838 1340 765 l 1254 835 q 1312 649 1290 747 q 1333 451 1333 550 q 1312 255 1333 354 q 1254 68 1290 156 l 1263 65 m 553 994 l 553 1044 q 728 1063 661 1044 q 836 1115 794 1081 q 913 1197 878 1149 l 1317 1197 q 1308 1176 1317 1197 q 1278 1124 1300 1154 q 1217 1064 1257 1093 q 1111 1019 1176 1035 q 1008 1005 1071 1010 q 874 998 944 1000 q 739 995 804 996 q 628 994 674 994 l 553 994 m 828 1049 q 947 1072 900 1053 q 1019 1117 993 1092 q 1057 1158 1046 1142 l 968 1158 q 931 1112 956 1133 q 877 1076 906 1090 q 828 1054 849 1061 l 828 1049 z "},"Ŏ":{"ha":1868,"x_min":31,"x_max":1836,"o":"m 933 -31 q 583 7 746 -31 q 295 110 419 44 q 101 264 171 176 q 31 451 31 351 q 94 638 31 551 q 275 791 157 725 q 560 894 393 857 q 933 931 726 931 q 1307 894 1140 931 q 1592 791 1474 857 q 1773 638 1710 725 q 1836 451 1836 551 q 1766 264 1836 351 q 1572 110 1696 176 q 1284 7 1447 44 q 933 -31 1121 -31 m 933 26 q 1145 133 1069 26 q 1221 450 1221 240 q 1197 683 1221 589 q 1110 826 1172 778 q 933 874 1047 874 q 758 826 821 874 q 671 683 696 778 q 646 450 646 589 q 722 133 646 240 q 933 26 799 26 m 533 56 l 535 61 q 363 160 438 100 q 248 294 289 219 q 207 451 207 368 q 249 610 207 535 q 366 744 290 685 q 540 843 442 804 l 539 849 q 312 751 410 811 q 160 614 214 690 q 106 451 106 538 q 159 291 106 367 q 309 155 213 215 q 533 56 406 94 m 1263 65 q 1389 240 1340 138 q 1438 451 1438 342 q 1389 664 1438 563 q 1263 838 1340 765 l 1254 835 q 1312 649 1290 747 q 1333 451 1333 550 q 1312 255 1333 354 q 1254 68 1290 156 l 1263 65 m 936 949 q 800 984 863 949 q 701 1080 738 1019 q 664 1213 664 1140 l 693 1221 q 794 1161 736 1186 q 936 1136 851 1136 q 1079 1161 1022 1136 q 1178 1221 1136 1186 l 1206 1213 q 1169 1080 1206 1140 q 1073 984 1133 1019 q 936 949 1013 949 m 936 993 q 1049 1023 997 993 q 1129 1103 1101 1053 l 1122 1107 q 1041 1065 1089 1082 q 936 1049 993 1049 q 834 1065 883 1049 q 751 1107 785 1082 l 744 1103 q 824 1023 772 1053 q 936 993 876 993 z "},"Ô":{"ha":1868,"x_min":31,"x_max":1836,"o":"m 933 -31 q 583 7 746 -31 q 295 110 419 44 q 101 264 171 176 q 31 451 31 351 q 94 638 31 551 q 275 791 157 725 q 560 894 393 857 q 933 931 726 931 q 1307 894 1140 931 q 1592 791 1474 857 q 1773 638 1710 725 q 1836 451 1836 551 q 1766 264 1836 351 q 1572 110 1696 176 q 1284 7 1447 44 q 933 -31 1121 -31 m 933 26 q 1145 133 1069 26 q 1221 450 1221 240 q 1197 683 1221 589 q 1110 826 1172 778 q 933 874 1047 874 q 758 826 821 874 q 671 683 696 778 q 646 450 646 589 q 722 133 646 240 q 933 26 799 26 m 533 56 l 535 61 q 363 160 438 100 q 248 294 289 219 q 207 451 207 368 q 249 610 207 535 q 366 744 290 685 q 540 843 442 804 l 539 849 q 312 751 410 811 q 160 614 214 690 q 106 451 106 538 q 159 291 106 367 q 309 155 213 215 q 533 56 406 94 m 1263 65 q 1389 240 1340 138 q 1438 451 1438 342 q 1389 664 1438 563 q 1263 838 1340 765 l 1254 835 q 1312 649 1290 747 q 1333 451 1333 550 q 1312 255 1333 354 q 1254 68 1290 156 l 1263 65 m 524 994 l 710 1197 l 1160 1197 l 1344 994 l 1224 994 l 1081 1150 l 936 994 l 524 994 m 678 1047 l 764 1047 l 868 1163 l 782 1163 l 678 1047 z "},"Ö":{"ha":1868,"x_min":31,"x_max":1836,"o":"m 933 -31 q 583 7 746 -31 q 295 110 419 44 q 101 264 171 176 q 31 451 31 351 q 94 638 31 551 q 275 791 157 725 q 560 894 393 857 q 933 931 726 931 q 1307 894 1140 931 q 1592 791 1474 857 q 1773 638 1710 725 q 1836 451 1836 551 q 1766 264 1836 351 q 1572 110 1696 176 q 1284 7 1447 44 q 933 -31 1121 -31 m 933 26 q 1145 133 1069 26 q 1221 450 1221 240 q 1197 683 1221 589 q 1110 826 1172 778 q 933 874 1047 874 q 758 826 821 874 q 671 683 696 778 q 646 450 646 589 q 722 133 646 240 q 933 26 799 26 m 533 56 l 535 61 q 363 160 438 100 q 248 294 289 219 q 207 451 207 368 q 249 610 207 535 q 366 744 290 685 q 540 843 442 804 l 539 849 q 312 751 410 811 q 160 614 214 690 q 106 451 106 538 q 159 291 106 367 q 309 155 213 215 q 533 56 406 94 m 1263 65 q 1389 240 1340 138 q 1438 451 1438 342 q 1389 664 1438 563 q 1263 838 1340 765 l 1254 835 q 1312 649 1290 747 q 1333 451 1333 550 q 1312 255 1333 354 q 1254 68 1290 156 l 1263 65 m 1250 951 q 1156 972 1199 951 q 1087 1029 1113 993 q 1061 1108 1061 1065 q 1087 1189 1061 1153 q 1156 1247 1113 1225 q 1250 1268 1199 1268 q 1347 1247 1304 1268 q 1416 1189 1390 1225 q 1442 1108 1442 1153 q 1416 1029 1442 1065 q 1347 972 1390 993 q 1250 951 1304 951 m 617 951 q 522 972 565 951 q 453 1029 479 993 q 428 1108 428 1065 q 453 1189 428 1153 q 522 1247 479 1225 q 617 1268 565 1268 q 714 1247 671 1268 q 783 1189 757 1225 q 808 1108 808 1153 q 783 1029 808 1065 q 714 972 757 993 q 617 951 671 951 m 575 983 l 579 988 q 548 1040 560 1010 q 536 1108 536 1071 q 548 1176 536 1146 q 579 1229 560 1207 l 575 1233 q 506 1182 533 1215 q 479 1108 479 1149 q 506 1035 479 1069 q 575 983 533 1001 m 1208 983 l 1213 988 q 1181 1040 1193 1010 q 1169 1108 1169 1071 q 1181 1176 1169 1146 q 1213 1229 1193 1207 l 1208 1233 q 1140 1182 1167 1215 q 1113 1108 1113 1149 q 1140 1035 1113 1069 q 1208 983 1167 1001 z "},"Ò":{"ha":1868,"x_min":31,"x_max":1836,"o":"m 933 -31 q 583 7 746 -31 q 295 110 419 44 q 101 264 171 176 q 31 451 31 351 q 94 638 31 551 q 275 791 157 725 q 560 894 393 857 q 933 931 726 931 q 1307 894 1140 931 q 1592 791 1474 857 q 1773 638 1710 725 q 1836 451 1836 551 q 1766 264 1836 351 q 1572 110 1696 176 q 1284 7 1447 44 q 933 -31 1121 -31 m 933 26 q 1145 133 1069 26 q 1221 450 1221 240 q 1197 683 1221 589 q 1110 826 1172 778 q 933 874 1047 874 q 758 826 821 874 q 671 683 696 778 q 646 450 646 589 q 722 133 646 240 q 933 26 799 26 m 533 56 l 535 61 q 363 160 438 100 q 248 294 289 219 q 207 451 207 368 q 249 610 207 535 q 366 744 290 685 q 540 843 442 804 l 539 849 q 312 751 410 811 q 160 614 214 690 q 106 451 106 538 q 159 291 106 367 q 309 155 213 215 q 533 56 406 94 m 1263 65 q 1389 240 1340 138 q 1438 451 1438 342 q 1389 664 1438 563 q 1263 838 1340 765 l 1254 835 q 1312 649 1290 747 q 1333 451 1333 550 q 1312 255 1333 354 q 1254 68 1290 156 l 1263 65 m 1242 994 q 1131 995 1196 994 q 995 998 1065 996 q 862 1005 925 1000 q 758 1019 799 1010 q 653 1064 694 1035 q 591 1124 613 1093 q 561 1176 569 1154 q 553 1197 553 1197 l 957 1197 q 1033 1115 992 1149 q 1142 1063 1075 1081 q 1317 1044 1208 1044 l 1317 994 l 1242 994 m 883 1049 l 883 1054 q 834 1076 863 1061 q 781 1112 806 1090 q 743 1158 756 1133 l 654 1158 q 692 1117 667 1142 q 765 1072 718 1092 q 883 1049 811 1053 z "},"Ő":{"ha":1868,"x_min":31,"x_max":1836,"o":"m 933 -31 q 583 7 746 -31 q 295 110 419 44 q 101 264 171 176 q 31 451 31 351 q 94 638 31 551 q 275 791 157 725 q 560 894 393 857 q 933 931 726 931 q 1307 894 1140 931 q 1592 791 1474 857 q 1773 638 1710 725 q 1836 451 1836 551 q 1766 264 1836 351 q 1572 110 1696 176 q 1284 7 1447 44 q 933 -31 1121 -31 m 933 26 q 1145 133 1069 26 q 1221 450 1221 240 q 1197 683 1221 589 q 1110 826 1172 778 q 933 874 1047 874 q 758 826 821 874 q 671 683 696 778 q 646 450 646 589 q 722 133 646 240 q 933 26 799 26 m 533 56 l 535 61 q 363 160 438 100 q 248 294 289 219 q 207 451 207 368 q 249 610 207 535 q 366 744 290 685 q 540 843 442 804 l 539 849 q 312 751 410 811 q 160 614 214 690 q 106 451 106 538 q 159 291 106 367 q 309 155 213 215 q 533 56 406 94 m 1263 65 q 1389 240 1340 138 q 1438 451 1438 342 q 1389 664 1438 563 q 1263 838 1340 765 l 1254 835 q 1312 649 1290 747 q 1333 451 1333 550 q 1312 255 1333 354 q 1254 68 1290 156 l 1263 65 m 968 994 l 968 1044 q 1087 1063 1039 1044 q 1168 1115 1135 1081 q 1231 1197 1201 1149 l 1565 1197 q 1558 1176 1565 1197 q 1528 1125 1550 1156 q 1467 1065 1507 1094 q 1365 1019 1428 1036 q 1248 1003 1317 1008 q 1110 996 1179 997 q 989 994 1040 994 l 968 994 m 414 994 l 414 1044 q 533 1063 485 1044 q 614 1115 581 1081 q 676 1197 647 1149 l 1011 1197 q 1003 1176 1011 1197 q 974 1125 996 1156 q 913 1065 953 1094 q 811 1019 874 1036 q 694 1003 763 1008 q 556 996 625 997 q 435 994 486 994 l 414 994 m 592 1049 q 710 1072 664 1053 q 783 1117 757 1092 q 821 1158 810 1142 l 732 1158 q 694 1112 719 1133 q 641 1076 669 1090 q 592 1054 613 1061 l 592 1049 m 1146 1049 q 1265 1072 1218 1053 q 1338 1117 1311 1092 q 1375 1158 1364 1142 l 1286 1158 q 1248 1112 1274 1133 q 1194 1076 1222 1090 q 1146 1054 1167 1061 l 1146 1049 z "},"Ō":{"ha":1868,"x_min":31,"x_max":1836,"o":"m 933 -31 q 583 7 746 -31 q 295 110 419 44 q 101 264 171 176 q 31 451 31 351 q 94 638 31 551 q 275 791 157 725 q 560 894 393 857 q 933 931 726 931 q 1307 894 1140 931 q 1592 791 1474 857 q 1773 638 1710 725 q 1836 451 1836 551 q 1766 264 1836 351 q 1572 110 1696 176 q 1284 7 1447 44 q 933 -31 1121 -31 m 933 26 q 1145 133 1069 26 q 1221 450 1221 240 q 1197 683 1221 589 q 1110 826 1172 778 q 933 874 1047 874 q 758 826 821 874 q 671 683 696 778 q 646 450 646 589 q 722 133 646 240 q 933 26 799 26 m 533 56 l 535 61 q 363 160 438 100 q 248 294 289 219 q 207 451 207 368 q 249 610 207 535 q 366 744 290 685 q 540 843 442 804 l 539 849 q 312 751 410 811 q 160 614 214 690 q 106 451 106 538 q 159 291 106 367 q 309 155 213 215 q 533 56 406 94 m 1263 65 q 1389 240 1340 138 q 1438 451 1438 342 q 1389 664 1438 563 q 1263 838 1340 765 l 1254 835 q 1312 649 1290 747 q 1333 451 1333 550 q 1312 255 1333 354 q 1254 68 1290 156 l 1263 65 m 653 1003 l 653 1189 l 1215 1189 l 1215 1003 l 653 1003 m 738 1031 l 813 1031 l 813 1161 l 738 1161 l 738 1031 z "},"Ø":{"ha":1868,"x_min":31,"x_max":1836,"o":"m 933 -31 q 583 7 746 -31 q 295 110 419 44 q 101 264 171 176 q 31 451 31 351 q 94 638 31 551 q 275 791 157 725 q 560 894 393 857 q 933 931 726 931 q 1307 894 1140 931 q 1592 791 1474 857 q 1773 638 1710 725 q 1836 451 1836 551 q 1766 264 1836 351 q 1572 110 1696 176 q 1284 7 1447 44 q 933 -31 1121 -31 m 933 26 q 1145 133 1069 26 q 1221 450 1221 240 q 1197 683 1221 589 q 1110 826 1172 778 q 933 874 1047 874 q 758 826 821 874 q 671 683 696 778 q 646 450 646 589 q 722 133 646 240 q 933 26 799 26 m 533 56 l 535 61 q 363 160 438 100 q 248 294 289 219 q 207 451 207 368 q 249 610 207 535 q 366 744 290 685 q 540 843 442 804 l 539 849 q 312 751 410 811 q 160 614 214 690 q 106 451 106 538 q 159 291 106 367 q 309 155 213 215 q 533 56 406 94 m 1263 65 q 1389 240 1340 138 q 1438 451 1438 342 q 1389 664 1438 563 q 1263 838 1340 765 l 1254 835 q 1312 649 1290 747 q 1333 451 1333 550 q 1312 255 1333 354 q 1254 68 1290 156 l 1263 65 m 624 -124 l 1171 1029 l 1243 1029 l 696 -124 l 624 -124 z "},"Ǿ":{"ha":1868,"x_min":31,"x_max":1836,"o":"m 933 -31 q 583 7 746 -31 q 295 110 419 44 q 101 264 171 176 q 31 451 31 351 q 94 638 31 551 q 275 791 157 725 q 560 894 393 857 q 933 931 726 931 q 1307 894 1140 931 q 1592 791 1474 857 q 1773 638 1710 725 q 1836 451 1836 551 q 1766 264 1836 351 q 1572 110 1696 176 q 1284 7 1447 44 q 933 -31 1121 -31 m 933 26 q 1145 133 1069 26 q 1221 450 1221 240 q 1197 683 1221 589 q 1110 826 1172 778 q 933 874 1047 874 q 758 826 821 874 q 671 683 696 778 q 646 450 646 589 q 722 133 646 240 q 933 26 799 26 m 533 56 l 535 61 q 363 160 438 100 q 248 294 289 219 q 207 451 207 368 q 249 610 207 535 q 366 744 290 685 q 540 843 442 804 l 539 849 q 312 751 410 811 q 160 614 214 690 q 106 451 106 538 q 159 291 106 367 q 309 155 213 215 q 533 56 406 94 m 1263 65 q 1389 240 1340 138 q 1438 451 1438 342 q 1389 664 1438 563 q 1263 838 1340 765 l 1254 835 q 1312 649 1290 747 q 1333 451 1333 550 q 1312 255 1333 354 q 1254 68 1290 156 l 1263 65 m 624 -124 l 1171 1029 l 1243 1029 l 696 -124 l 624 -124 m 553 994 l 553 1044 q 728 1063 661 1044 q 836 1115 794 1081 q 913 1197 878 1149 l 1317 1197 q 1308 1176 1317 1197 q 1278 1124 1300 1154 q 1217 1064 1257 1093 q 1111 1019 1176 1035 q 1008 1005 1071 1010 q 874 998 944 1000 q 739 995 804 996 q 628 994 674 994 l 553 994 m 828 1049 q 947 1072 900 1053 q 1019 1117 993 1092 q 1057 1158 1046 1142 l 968 1158 q 931 1112 956 1133 q 877 1076 906 1090 q 828 1054 849 1061 l 828 1049 z "},"Õ":{"ha":1868,"x_min":31,"x_max":1836,"o":"m 933 -31 q 583 7 746 -31 q 295 110 419 44 q 101 264 171 176 q 31 451 31 351 q 94 638 31 551 q 275 791 157 725 q 560 894 393 857 q 933 931 726 931 q 1307 894 1140 931 q 1592 791 1474 857 q 1773 638 1710 725 q 1836 451 1836 551 q 1766 264 1836 351 q 1572 110 1696 176 q 1284 7 1447 44 q 933 -31 1121 -31 m 933 26 q 1145 133 1069 26 q 1221 450 1221 240 q 1197 683 1221 589 q 1110 826 1172 778 q 933 874 1047 874 q 758 826 821 874 q 671 683 696 778 q 646 450 646 589 q 722 133 646 240 q 933 26 799 26 m 533 56 l 535 61 q 363 160 438 100 q 248 294 289 219 q 207 451 207 368 q 249 610 207 535 q 366 744 290 685 q 540 843 442 804 l 539 849 q 312 751 410 811 q 160 614 214 690 q 106 451 106 538 q 159 291 106 367 q 309 155 213 215 q 533 56 406 94 m 1263 65 q 1389 240 1340 138 q 1438 451 1438 342 q 1389 664 1438 563 q 1263 838 1340 765 l 1254 835 q 1312 649 1290 747 q 1333 451 1333 550 q 1312 255 1333 354 q 1254 68 1290 156 l 1263 65 m 1085 979 q 944 990 1003 979 q 837 1013 886 1000 q 736 1037 788 1026 q 617 1047 685 1047 q 563 1033 586 1047 q 531 996 540 1019 l 492 996 q 515 1060 494 1022 q 574 1134 535 1097 q 671 1196 613 1171 q 806 1221 729 1221 q 938 1213 883 1221 q 1038 1196 993 1206 q 1125 1178 1082 1186 q 1224 1171 1168 1171 q 1294 1184 1269 1171 q 1332 1219 1318 1197 l 1378 1219 q 1356 1151 1375 1192 q 1301 1072 1338 1111 q 1211 1006 1265 1032 q 1085 979 1157 979 m 1094 1026 q 1194 1044 1143 1026 q 1279 1090 1244 1061 l 1276 1096 q 1206 1081 1247 1086 q 1133 1075 1164 1075 q 996 1084 1053 1075 q 894 1106 939 1093 q 804 1127 849 1118 q 703 1136 760 1136 q 638 1124 664 1136 q 592 1094 611 1111 l 596 1089 q 626 1094 611 1092 q 654 1096 640 1096 q 777 1078 713 1096 q 919 1044 842 1061 q 1094 1026 997 1026 z "},"Œ":{"ha":2692,"x_min":31,"x_max":2581,"o":"m 933 0 q 583 35 746 0 q 295 133 419 71 q 101 277 171 194 q 31 453 31 360 q 94 628 31 546 q 275 772 157 710 q 560 868 393 833 q 933 903 726 903 l 2581 903 l 2581 583 l 2540 583 q 2415 703 2496 644 q 2213 801 2335 763 q 1919 840 2092 840 q 1805 803 1847 840 q 1763 706 1763 765 l 1763 658 q 1771 597 1763 631 q 1805 540 1779 564 q 1885 517 1831 517 q 1982 531 1931 517 q 2082 568 2033 544 q 2168 624 2131 592 q 2222 693 2206 656 l 2274 693 l 2274 269 l 2222 269 q 2142 359 2200 322 q 2015 415 2085 396 q 1885 433 1946 433 q 1811 415 1838 433 q 1774 367 1785 396 q 1763 310 1763 339 l 1763 260 q 1769 153 1763 199 q 1801 84 1776 108 q 1882 60 1826 60 l 1917 60 q 2074 65 1992 60 q 2240 92 2157 69 q 2400 162 2324 114 q 2540 294 2476 210 l 2581 294 l 2581 0 l 933 0 m 933 60 l 1071 60 q 1178 93 1135 60 q 1222 210 1222 126 l 1222 690 q 1202 767 1222 732 q 1148 822 1182 801 q 1071 843 1114 843 l 933 843 q 758 799 821 843 q 671 667 696 754 q 646 451 646 581 q 722 159 646 258 q 933 60 799 60 m 1315 60 l 1407 60 l 1407 843 l 1315 843 l 1315 60 m 533 83 l 535 89 q 297 237 388 147 q 207 451 207 326 q 299 667 207 576 q 540 815 392 757 l 539 821 q 312 730 410 783 q 160 607 214 676 q 106 451 106 538 q 159 298 106 367 q 309 176 213 229 q 533 83 406 122 z "},"P":{"ha":2010,"x_min":101,"x_max":1992,"o":"m 101 0 l 101 60 l 269 60 q 377 94 333 60 q 421 210 421 128 l 421 690 q 401 767 421 732 q 347 822 381 801 q 269 843 313 843 l 101 843 l 101 903 l 1503 903 q 1631 898 1564 903 q 1763 878 1699 893 q 1878 836 1826 864 q 1961 763 1931 808 q 1992 651 1992 718 q 1935 500 1992 557 q 1780 419 1878 443 q 1558 394 1682 394 l 1040 394 q 983 373 1001 394 q 964 300 964 351 l 964 210 q 1008 94 964 128 q 1114 60 1051 60 l 1283 60 l 1283 0 l 101 0 m 514 60 l 606 60 l 606 843 l 514 843 l 514 60 m 1035 457 l 1175 457 q 1242 467 1204 457 q 1317 500 1281 478 q 1378 559 1354 522 q 1403 650 1403 596 q 1378 741 1403 704 q 1317 800 1354 778 q 1242 833 1281 822 q 1175 843 1204 843 l 1035 843 q 985 822 1006 843 q 965 772 965 801 l 965 526 q 985 478 965 499 q 1035 457 1006 457 m 1474 463 q 1540 504 1510 475 q 1589 572 1571 533 q 1607 650 1607 611 q 1589 728 1607 690 q 1540 796 1571 767 q 1474 838 1510 825 l 1467 833 q 1501 747 1492 794 q 1511 650 1511 699 q 1501 554 1511 603 q 1467 467 1492 506 l 1474 463 z "},"Þ":{"ha":2010,"x_min":101,"x_max":1990,"o":"m 101 0 l 101 60 l 271 60 q 378 93 333 60 q 422 210 422 126 l 422 690 q 402 767 422 732 q 347 822 382 801 q 271 843 313 843 l 101 843 l 101 903 l 1283 903 l 1283 843 l 963 843 l 963 801 q 981 728 963 750 q 1039 707 1000 707 l 1501 707 q 1630 702 1563 707 q 1761 683 1697 697 q 1877 640 1825 668 q 1960 567 1929 613 q 1990 454 1990 521 q 1933 303 1990 360 q 1778 222 1876 246 q 1557 197 1681 197 l 1039 197 q 981 176 1000 197 q 963 103 963 154 l 963 60 l 1283 60 l 1283 0 l 101 0 m 515 60 l 606 60 l 606 843 l 515 843 l 515 60 m 1033 260 l 1174 260 q 1241 270 1203 260 q 1316 303 1279 281 q 1377 362 1353 325 q 1401 453 1401 399 q 1377 544 1401 507 q 1316 603 1353 581 q 1241 635 1279 625 q 1174 644 1203 644 l 1033 644 q 984 624 1004 644 q 964 574 964 603 l 964 329 q 984 281 964 301 q 1033 260 1004 260 m 1472 265 q 1539 307 1508 278 q 1588 375 1569 336 q 1606 453 1606 414 q 1588 531 1606 493 q 1539 599 1569 569 q 1472 640 1508 628 l 1465 636 q 1500 549 1490 597 q 1510 453 1510 501 q 1500 357 1510 406 q 1465 269 1490 308 l 1472 265 z "},"Q":{"ha":1868,"x_min":31,"x_max":1836,"o":"m 593 -287 l 593 -228 q 660 -148 614 -183 q 767 -84 707 -112 q 886 -35 826 -56 l 886 -29 q 552 15 707 -24 q 280 119 397 54 q 97 269 163 185 q 31 451 31 354 q 94 639 31 551 q 275 792 157 726 q 560 894 393 857 q 933 932 726 932 q 1307 894 1140 932 q 1592 792 1474 857 q 1773 639 1710 726 q 1836 451 1836 551 q 1776 278 1836 360 q 1607 131 1715 196 q 1354 26 1499 67 q 1043 -26 1210 -15 q 1011 -86 1021 -54 q 1001 -147 1001 -118 q 1015 -205 1001 -182 q 1054 -228 1028 -228 l 1272 -228 l 1272 -287 l 593 -287 m 933 28 q 1145 135 1069 28 q 1221 451 1221 242 q 1197 684 1221 590 q 1110 826 1172 778 q 933 874 1047 874 q 758 826 821 874 q 671 684 696 778 q 646 451 646 590 q 722 135 646 242 q 933 28 799 28 m 533 56 l 535 61 q 363 160 438 100 q 248 294 289 219 q 207 451 207 368 q 249 610 207 535 q 366 744 290 685 q 540 843 442 804 l 539 849 q 312 751 410 811 q 160 614 214 690 q 106 451 106 538 q 159 291 106 367 q 309 155 213 215 q 533 56 406 94 m 1263 65 q 1389 240 1340 138 q 1438 451 1438 342 q 1389 664 1438 563 q 1263 838 1340 765 l 1254 835 q 1312 649 1290 747 q 1333 451 1333 550 q 1312 255 1333 354 q 1254 68 1290 156 l 1263 65 m 690 -228 l 775 -228 q 792 -183 775 -208 q 833 -133 810 -158 q 880 -87 857 -108 q 913 -58 903 -67 l 910 -54 q 848 -84 885 -64 q 775 -131 811 -104 q 715 -183 739 -157 q 690 -228 690 -208 z "},"R":{"ha":2201,"x_min":101,"x_max":2182,"o":"m 101 0 l 101 60 l 269 60 q 377 94 333 60 q 421 211 421 128 l 421 690 q 377 798 421 753 q 269 843 333 843 l 101 843 l 101 903 l 1593 903 q 1722 898 1654 903 q 1854 879 1790 893 q 1969 838 1918 865 q 2051 765 2021 810 q 2082 651 2082 719 q 2034 528 2082 575 q 1908 456 1986 481 q 1737 423 1829 432 q 1556 411 1644 414 l 1556 404 q 1658 347 1585 379 q 1832 299 1731 314 l 2018 60 l 2182 60 l 2182 0 l 1358 0 l 1081 356 q 1068 370 1081 356 q 1038 399 1056 385 q 1004 414 1021 414 q 969 390 975 414 q 964 315 964 365 l 964 211 q 1008 94 964 128 q 1114 60 1051 60 l 1218 60 l 1218 0 l 101 0 m 514 60 l 606 60 l 606 843 l 514 843 l 514 60 m 1189 485 q 1301 501 1247 485 q 1390 553 1356 517 q 1425 650 1425 589 q 1401 741 1425 704 q 1340 800 1376 778 q 1265 833 1303 822 q 1197 843 1226 843 l 1035 843 q 985 822 1006 843 q 965 772 965 801 l 965 574 q 997 529 965 550 q 1081 497 1029 508 q 1189 485 1132 485 m 1518 467 q 1613 533 1575 482 q 1650 650 1650 585 q 1613 767 1650 717 q 1517 835 1575 818 l 1513 831 q 1547 747 1539 792 q 1554 650 1554 703 q 1546 555 1554 601 q 1514 471 1538 508 l 1518 467 m 1422 60 l 1538 60 l 1263 414 l 1147 414 l 1422 60 z "},"Ŕ":{"ha":2201,"x_min":101,"x_max":2182,"o":"m 101 0 l 101 60 l 269 60 q 377 94 333 60 q 421 211 421 128 l 421 690 q 377 798 421 753 q 269 843 333 843 l 101 843 l 101 903 l 1593 903 q 1722 898 1654 903 q 1854 879 1790 893 q 1969 838 1918 865 q 2051 765 2021 810 q 2082 651 2082 719 q 2034 528 2082 575 q 1908 456 1986 481 q 1737 423 1829 432 q 1556 411 1644 414 l 1556 404 q 1658 347 1585 379 q 1832 299 1731 314 l 2018 60 l 2182 60 l 2182 0 l 1358 0 l 1081 356 q 1068 370 1081 356 q 1038 399 1056 385 q 1004 414 1021 414 q 969 390 975 414 q 964 315 964 365 l 964 211 q 1008 94 964 128 q 1114 60 1051 60 l 1218 60 l 1218 0 l 101 0 m 514 60 l 606 60 l 606 843 l 514 843 l 514 60 m 1189 485 q 1301 501 1247 485 q 1390 553 1356 517 q 1425 650 1425 589 q 1401 741 1425 704 q 1340 800 1376 778 q 1265 833 1303 822 q 1197 843 1226 843 l 1035 843 q 985 822 1006 843 q 965 772 965 801 l 965 574 q 997 529 965 550 q 1081 497 1029 508 q 1189 485 1132 485 m 1518 467 q 1613 533 1575 482 q 1650 650 1650 585 q 1613 767 1650 717 q 1517 835 1575 818 l 1513 831 q 1547 747 1539 792 q 1554 650 1554 703 q 1546 555 1554 601 q 1514 471 1538 508 l 1518 467 m 1422 60 l 1538 60 l 1263 414 l 1147 414 l 1422 60 m 789 994 l 789 1044 q 964 1063 897 1044 q 1072 1115 1031 1081 q 1149 1197 1114 1149 l 1553 1197 q 1544 1176 1553 1197 q 1515 1124 1536 1154 q 1453 1064 1493 1093 q 1347 1019 1413 1035 q 1244 1005 1307 1010 q 1110 998 1181 1000 q 975 995 1040 996 q 864 994 910 994 l 789 994 m 1064 1049 q 1183 1072 1136 1053 q 1256 1117 1229 1092 q 1293 1158 1282 1142 l 1204 1158 q 1167 1112 1192 1133 q 1113 1076 1142 1090 q 1064 1054 1085 1061 l 1064 1049 z "},"Ř":{"ha":2201,"x_min":101,"x_max":2182,"o":"m 101 0 l 101 60 l 269 60 q 377 94 333 60 q 421 211 421 128 l 421 690 q 377 798 421 753 q 269 843 333 843 l 101 843 l 101 903 l 1593 903 q 1722 898 1654 903 q 1854 879 1790 893 q 1969 838 1918 865 q 2051 765 2021 810 q 2082 651 2082 719 q 2034 528 2082 575 q 1908 456 1986 481 q 1737 423 1829 432 q 1556 411 1644 414 l 1556 404 q 1658 347 1585 379 q 1832 299 1731 314 l 2018 60 l 2182 60 l 2182 0 l 1358 0 l 1081 356 q 1068 370 1081 356 q 1038 399 1056 385 q 1004 414 1021 414 q 969 390 975 414 q 964 315 964 365 l 964 211 q 1008 94 964 128 q 1114 60 1051 60 l 1218 60 l 1218 0 l 101 0 m 514 60 l 606 60 l 606 843 l 514 843 l 514 60 m 1189 485 q 1301 501 1247 485 q 1390 553 1356 517 q 1425 650 1425 589 q 1401 741 1425 704 q 1340 800 1376 778 q 1265 833 1303 822 q 1197 843 1226 843 l 1035 843 q 985 822 1006 843 q 965 772 965 801 l 965 574 q 997 529 965 550 q 1081 497 1029 508 q 1189 485 1132 485 m 1518 467 q 1613 533 1575 482 q 1650 650 1650 585 q 1613 767 1650 717 q 1517 835 1575 818 l 1513 831 q 1547 747 1539 792 q 1554 650 1554 703 q 1546 555 1554 601 q 1514 471 1538 508 l 1518 467 m 1422 60 l 1538 60 l 1263 414 l 1147 414 l 1422 60 m 946 994 l 760 1197 l 1172 1197 l 1317 1042 l 1460 1197 l 1581 1197 l 1396 994 l 946 994 m 1018 1029 l 1104 1029 l 1000 1144 l 914 1144 l 1018 1029 z "},"Ŗ":{"ha":2201,"x_min":101,"x_max":2182,"o":"m 101 0 l 101 60 l 269 60 q 377 94 333 60 q 421 211 421 128 l 421 690 q 377 798 421 753 q 269 843 333 843 l 101 843 l 101 903 l 1593 903 q 1722 898 1654 903 q 1854 879 1790 893 q 1969 838 1918 865 q 2051 765 2021 810 q 2082 651 2082 719 q 2034 528 2082 575 q 1908 456 1986 481 q 1737 423 1829 432 q 1556 411 1644 414 l 1556 404 q 1658 347 1585 379 q 1832 299 1731 314 l 2018 60 l 2182 60 l 2182 0 l 1358 0 l 1081 356 q 1068 370 1081 356 q 1038 399 1056 385 q 1004 414 1021 414 q 969 390 975 414 q 964 315 964 365 l 964 211 q 1008 94 964 128 q 1114 60 1051 60 l 1218 60 l 1218 0 l 101 0 m 514 60 l 606 60 l 606 843 l 514 843 l 514 60 m 1189 485 q 1301 501 1247 485 q 1390 553 1356 517 q 1425 650 1425 589 q 1401 741 1425 704 q 1340 800 1376 778 q 1265 833 1303 822 q 1197 843 1226 843 l 1035 843 q 985 822 1006 843 q 965 772 965 801 l 965 574 q 997 529 965 550 q 1081 497 1029 508 q 1189 485 1132 485 m 1518 467 q 1613 533 1575 482 q 1650 650 1650 585 q 1613 767 1650 717 q 1517 835 1575 818 l 1513 831 q 1547 747 1539 792 q 1554 650 1554 703 q 1546 555 1554 601 q 1514 471 1538 508 l 1518 467 m 1422 60 l 1538 60 l 1263 414 l 1147 414 l 1422 60 m 994 -550 l 994 -499 q 1076 -489 1028 -499 q 1168 -455 1124 -479 q 1232 -390 1213 -431 q 1172 -399 1206 -399 q 1076 -377 1119 -399 q 1006 -319 1032 -356 q 981 -239 981 -282 q 1006 -159 981 -194 q 1076 -103 1032 -124 q 1172 -82 1119 -82 q 1267 -103 1225 -82 q 1335 -162 1310 -125 q 1361 -250 1361 -200 q 1326 -383 1361 -318 q 1211 -494 1292 -449 q 994 -550 1131 -540 m 1119 -351 l 1122 -347 q 1095 -299 1106 -328 q 1085 -239 1085 -271 q 1095 -178 1085 -207 q 1122 -131 1106 -150 l 1119 -126 q 1060 -174 1083 -143 q 1036 -239 1036 -204 q 1060 -304 1036 -274 q 1119 -351 1083 -335 z "},"S":{"ha":1751,"x_min":131,"x_max":1619,"o":"m 894 -29 q 658 -16 765 -29 q 450 22 551 -3 q 235 81 349 46 l 196 0 l 131 0 l 131 390 l 196 390 q 263 301 214 350 q 387 205 313 253 q 553 117 461 157 q 749 52 646 76 q 960 28 853 28 q 1067 33 1014 28 q 1156 53 1121 38 q 1192 97 1192 68 q 1147 151 1192 128 q 1027 196 1103 175 q 857 238 951 217 q 663 283 763 258 q 468 338 563 307 q 298 408 374 368 q 178 501 222 449 q 133 621 133 553 q 175 771 133 713 q 287 862 217 829 q 443 909 357 894 q 619 927 529 924 q 788 931 708 931 q 951 923 860 931 q 1139 902 1043 915 q 1324 874 1235 889 q 1479 843 1413 858 l 1504 903 l 1569 903 l 1569 610 l 1504 610 q 1427 674 1485 639 q 1289 744 1369 708 q 1117 808 1208 779 q 938 856 1026 838 q 775 874 849 874 q 650 858 701 874 q 599 799 599 843 q 642 739 599 763 q 758 699 685 715 q 922 669 831 683 q 1109 637 1013 654 q 1297 593 1206 619 q 1460 527 1388 567 q 1576 428 1533 488 q 1619 286 1619 369 q 1433 44 1619 118 q 894 -29 1246 -29 m 1351 94 l 1357 96 l 1357 128 q 1311 243 1357 200 q 1187 312 1265 286 q 1009 358 1108 338 q 801 404 910 378 q 610 456 704 428 q 439 523 517 485 q 310 613 361 561 q 246 735 258 665 l 236 736 q 223 690 228 718 q 218 639 218 663 q 335 472 218 542 q 700 339 453 403 q 963 275 854 300 q 1147 228 1072 250 q 1269 176 1221 207 q 1351 94 1318 146 z "},"Ś":{"ha":1751,"x_min":131,"x_max":1619,"o":"m 894 -29 q 658 -16 765 -29 q 450 22 551 -3 q 235 81 349 46 l 196 0 l 131 0 l 131 390 l 196 390 q 263 301 214 350 q 387 205 313 253 q 553 117 461 157 q 749 52 646 76 q 960 28 853 28 q 1067 33 1014 28 q 1156 53 1121 38 q 1192 97 1192 68 q 1147 151 1192 128 q 1027 196 1103 175 q 857 238 951 217 q 663 283 763 258 q 468 338 563 307 q 298 408 374 368 q 178 501 222 449 q 133 621 133 553 q 175 771 133 713 q 287 862 217 829 q 443 909 357 894 q 619 927 529 924 q 788 931 708 931 q 951 923 860 931 q 1139 902 1043 915 q 1324 874 1235 889 q 1479 843 1413 858 l 1504 903 l 1569 903 l 1569 610 l 1504 610 q 1427 674 1485 639 q 1289 744 1369 708 q 1117 808 1208 779 q 938 856 1026 838 q 775 874 849 874 q 650 858 701 874 q 599 799 599 843 q 642 739 599 763 q 758 699 685 715 q 922 669 831 683 q 1109 637 1013 654 q 1297 593 1206 619 q 1460 527 1388 567 q 1576 428 1533 488 q 1619 286 1619 369 q 1433 44 1619 118 q 894 -29 1246 -29 m 1351 94 l 1357 96 l 1357 128 q 1311 243 1357 200 q 1187 312 1265 286 q 1009 358 1108 338 q 801 404 910 378 q 610 456 704 428 q 439 523 517 485 q 310 613 361 561 q 246 735 258 665 l 236 736 q 223 690 228 718 q 218 639 218 663 q 335 472 218 542 q 700 339 453 403 q 963 275 854 300 q 1147 228 1072 250 q 1269 176 1221 207 q 1351 94 1318 146 m 494 994 l 494 1044 q 669 1063 603 1044 q 778 1115 736 1081 q 854 1197 819 1149 l 1258 1197 q 1250 1176 1258 1197 q 1220 1124 1242 1154 q 1158 1064 1199 1093 q 1053 1019 1118 1035 q 949 1005 1013 1010 q 816 998 886 1000 q 681 995 746 996 q 569 994 615 994 l 494 994 m 769 1049 q 888 1072 842 1053 q 961 1117 935 1092 q 999 1158 988 1142 l 910 1158 q 872 1112 897 1133 q 819 1076 847 1090 q 769 1054 790 1061 l 769 1049 z "},"Š":{"ha":1751,"x_min":131,"x_max":1619,"o":"m 894 -29 q 658 -16 765 -29 q 450 22 551 -3 q 235 81 349 46 l 196 0 l 131 0 l 131 390 l 196 390 q 263 301 214 350 q 387 205 313 253 q 553 117 461 157 q 749 52 646 76 q 960 28 853 28 q 1067 33 1014 28 q 1156 53 1121 38 q 1192 97 1192 68 q 1147 151 1192 128 q 1027 196 1103 175 q 857 238 951 217 q 663 283 763 258 q 468 338 563 307 q 298 408 374 368 q 178 501 222 449 q 133 621 133 553 q 175 771 133 713 q 287 862 217 829 q 443 909 357 894 q 619 927 529 924 q 788 931 708 931 q 951 923 860 931 q 1139 902 1043 915 q 1324 874 1235 889 q 1479 843 1413 858 l 1504 903 l 1569 903 l 1569 610 l 1504 610 q 1427 674 1485 639 q 1289 744 1369 708 q 1117 808 1208 779 q 938 856 1026 838 q 775 874 849 874 q 650 858 701 874 q 599 799 599 843 q 642 739 599 763 q 758 699 685 715 q 922 669 831 683 q 1109 637 1013 654 q 1297 593 1206 619 q 1460 527 1388 567 q 1576 428 1533 488 q 1619 286 1619 369 q 1433 44 1619 118 q 894 -29 1246 -29 m 1351 94 l 1357 96 l 1357 128 q 1311 243 1357 200 q 1187 312 1265 286 q 1009 358 1108 338 q 801 404 910 378 q 610 456 704 428 q 439 523 517 485 q 310 613 361 561 q 246 735 258 665 l 236 736 q 223 690 228 718 q 218 639 218 663 q 335 472 218 542 q 700 339 453 403 q 963 275 854 300 q 1147 228 1072 250 q 1269 176 1221 207 q 1351 94 1318 146 m 651 994 l 465 1197 l 878 1197 l 1022 1042 l 1165 1197 l 1286 1197 l 1101 994 l 651 994 m 724 1029 l 810 1029 l 706 1144 l 619 1144 l 724 1029 z "},"Ş":{"ha":1751,"x_min":131,"x_max":1619,"o":"m 894 -29 q 658 -16 765 -29 q 450 22 551 -3 q 235 81 349 46 l 196 0 l 131 0 l 131 390 l 196 390 q 263 301 214 350 q 387 205 313 253 q 553 117 461 157 q 749 52 646 76 q 960 28 853 28 q 1067 33 1014 28 q 1156 53 1121 38 q 1192 97 1192 68 q 1147 151 1192 128 q 1027 196 1103 175 q 857 238 951 217 q 663 283 763 258 q 468 338 563 307 q 298 408 374 368 q 178 501 222 449 q 133 621 133 553 q 175 771 133 713 q 287 862 217 829 q 443 909 357 894 q 619 927 529 924 q 788 931 708 931 q 951 923 860 931 q 1139 902 1043 915 q 1324 874 1235 889 q 1479 843 1413 858 l 1504 903 l 1569 903 l 1569 610 l 1504 610 q 1427 674 1485 639 q 1289 744 1369 708 q 1117 808 1208 779 q 938 856 1026 838 q 775 874 849 874 q 650 858 701 874 q 599 799 599 843 q 642 739 599 763 q 758 699 685 715 q 922 669 831 683 q 1109 637 1013 654 q 1297 593 1206 619 q 1460 527 1388 567 q 1576 428 1533 488 q 1619 286 1619 369 q 1433 44 1619 118 q 894 -29 1246 -29 m 1351 94 l 1357 96 l 1357 128 q 1311 243 1357 200 q 1187 312 1265 286 q 1009 358 1108 338 q 801 404 910 378 q 610 456 704 428 q 439 523 517 485 q 310 613 361 561 q 246 735 258 665 l 236 736 q 223 690 228 718 q 218 639 218 663 q 335 472 218 542 q 700 339 453 403 q 963 275 854 300 q 1147 228 1072 250 q 1269 176 1221 207 q 1351 94 1318 146 m 876 -310 q 692 -295 778 -310 q 553 -261 606 -281 l 553 -110 l 607 -110 q 653 -176 622 -146 q 724 -225 685 -207 q 800 -243 764 -243 q 876 -220 844 -243 q 908 -146 908 -197 q 726 0 908 -26 l 726 22 q 899 9 815 22 q 1051 -31 983 -4 q 1160 -95 1119 -57 q 1200 -185 1200 -133 q 1171 -251 1200 -226 q 1094 -288 1142 -275 q 990 -306 1047 -301 q 876 -310 933 -310 m 933 -261 q 991 -238 961 -254 q 1041 -199 1021 -222 q 1061 -149 1061 -175 q 1024 -78 1061 -104 q 933 -33 988 -51 l 928 -42 q 992 -149 992 -81 q 975 -209 992 -179 q 929 -253 958 -239 l 933 -261 z "},"Ŝ":{"ha":1751,"x_min":131,"x_max":1619,"o":"m 894 -29 q 658 -16 765 -29 q 450 22 551 -3 q 235 81 349 46 l 196 0 l 131 0 l 131 390 l 196 390 q 263 301 214 350 q 387 205 313 253 q 553 117 461 157 q 749 52 646 76 q 960 28 853 28 q 1067 33 1014 28 q 1156 53 1121 38 q 1192 97 1192 68 q 1147 151 1192 128 q 1027 196 1103 175 q 857 238 951 217 q 663 283 763 258 q 468 338 563 307 q 298 408 374 368 q 178 501 222 449 q 133 621 133 553 q 175 771 133 713 q 287 862 217 829 q 443 909 357 894 q 619 927 529 924 q 788 931 708 931 q 951 923 860 931 q 1139 902 1043 915 q 1324 874 1235 889 q 1479 843 1413 858 l 1504 903 l 1569 903 l 1569 610 l 1504 610 q 1427 674 1485 639 q 1289 744 1369 708 q 1117 808 1208 779 q 938 856 1026 838 q 775 874 849 874 q 650 858 701 874 q 599 799 599 843 q 642 739 599 763 q 758 699 685 715 q 922 669 831 683 q 1109 637 1013 654 q 1297 593 1206 619 q 1460 527 1388 567 q 1576 428 1533 488 q 1619 286 1619 369 q 1433 44 1619 118 q 894 -29 1246 -29 m 1351 94 l 1357 96 l 1357 128 q 1311 243 1357 200 q 1187 312 1265 286 q 1009 358 1108 338 q 801 404 910 378 q 610 456 704 428 q 439 523 517 485 q 310 613 361 561 q 246 735 258 665 l 236 736 q 223 690 228 718 q 218 639 218 663 q 335 472 218 542 q 700 339 453 403 q 963 275 854 300 q 1147 228 1072 250 q 1269 176 1221 207 q 1351 94 1318 146 m 465 994 l 651 1197 l 1101 1197 l 1286 994 l 1165 994 l 1022 1150 l 878 994 l 465 994 m 619 1047 l 706 1047 l 810 1163 l 724 1163 l 619 1047 z "},"Ș":{"ha":1751,"x_min":131,"x_max":1619,"o":"m 894 -29 q 658 -16 765 -29 q 450 22 551 -3 q 235 81 349 46 l 196 0 l 131 0 l 131 390 l 196 390 q 263 301 214 350 q 387 205 313 253 q 553 117 461 157 q 749 52 646 76 q 960 28 853 28 q 1067 33 1014 28 q 1156 53 1121 38 q 1192 97 1192 68 q 1147 151 1192 128 q 1027 196 1103 175 q 857 238 951 217 q 663 283 763 258 q 468 338 563 307 q 298 408 374 368 q 178 501 222 449 q 133 621 133 553 q 175 771 133 713 q 287 862 217 829 q 443 909 357 894 q 619 927 529 924 q 788 931 708 931 q 951 923 860 931 q 1139 902 1043 915 q 1324 874 1235 889 q 1479 843 1413 858 l 1504 903 l 1569 903 l 1569 610 l 1504 610 q 1427 674 1485 639 q 1289 744 1369 708 q 1117 808 1208 779 q 938 856 1026 838 q 775 874 849 874 q 650 858 701 874 q 599 799 599 843 q 642 739 599 763 q 758 699 685 715 q 922 669 831 683 q 1109 637 1013 654 q 1297 593 1206 619 q 1460 527 1388 567 q 1576 428 1533 488 q 1619 286 1619 369 q 1433 44 1619 118 q 894 -29 1246 -29 m 1351 94 l 1357 96 l 1357 128 q 1311 243 1357 200 q 1187 312 1265 286 q 1009 358 1108 338 q 801 404 910 378 q 610 456 704 428 q 439 523 517 485 q 310 613 361 561 q 246 735 258 665 l 236 736 q 223 690 228 718 q 218 639 218 663 q 335 472 218 542 q 700 339 453 403 q 963 275 854 300 q 1147 228 1072 250 q 1269 176 1221 207 q 1351 94 1318 146 m 700 -550 l 700 -499 q 781 -489 733 -499 q 874 -455 829 -479 q 938 -390 918 -431 q 878 -399 911 -399 q 781 -377 825 -399 q 712 -319 738 -356 q 686 -239 686 -282 q 712 -159 686 -194 q 781 -103 738 -124 q 878 -82 825 -82 q 973 -103 931 -82 q 1041 -162 1015 -125 q 1067 -250 1067 -200 q 1032 -383 1067 -318 q 917 -494 997 -449 q 700 -550 836 -540 m 825 -351 l 828 -347 q 801 -299 811 -328 q 790 -239 790 -271 q 801 -178 790 -207 q 828 -131 811 -150 l 825 -126 q 765 -174 789 -143 q 742 -239 742 -204 q 765 -304 742 -274 q 825 -351 789 -335 z "},"T":{"ha":1533,"x_min":92,"x_max":1465,"o":"m 176 0 l 176 60 l 344 60 q 451 94 407 60 q 494 211 494 128 l 494 774 q 483 824 494 806 q 443 842 471 842 q 390 817 422 842 q 322 755 358 793 q 249 674 285 717 q 185 594 214 632 q 138 531 156 556 q 119 507 119 507 l 92 507 l 92 903 l 1465 903 l 1465 507 l 1413 507 q 1395 531 1413 507 q 1348 594 1378 556 q 1283 674 1318 632 q 1211 755 1247 717 q 1143 817 1175 793 q 1090 842 1111 842 q 1050 824 1063 842 q 1038 774 1038 806 l 1038 211 q 1082 94 1038 128 q 1189 60 1126 60 l 1357 60 l 1357 0 l 176 0 m 589 60 l 679 60 l 679 843 l 589 843 l 589 60 z "},"Ŧ":{"ha":1533,"x_min":92,"x_max":1465,"o":"m 176 0 l 176 60 l 344 60 q 451 94 407 60 q 494 211 494 128 l 494 331 l 300 331 l 300 431 l 494 431 l 494 774 q 483 824 494 806 q 443 842 471 842 q 390 817 422 842 q 322 755 358 793 q 249 674 285 717 q 185 594 214 632 q 138 531 156 556 q 119 507 119 507 l 92 507 l 92 903 l 1465 903 l 1465 507 l 1413 507 q 1395 531 1413 507 q 1348 594 1378 556 q 1283 674 1318 632 q 1211 755 1247 717 q 1143 817 1175 793 q 1090 842 1111 842 q 1050 824 1063 842 q 1038 774 1038 806 l 1038 431 l 1233 431 l 1233 331 l 1038 331 l 1038 211 q 1082 94 1038 128 q 1189 60 1126 60 l 1357 60 l 1357 0 l 176 0 m 589 60 l 679 60 l 679 843 l 589 843 l 589 60 z "},"Ť":{"ha":1533,"x_min":92,"x_max":1465,"o":"m 176 0 l 176 60 l 344 60 q 451 94 407 60 q 494 211 494 128 l 494 774 q 483 824 494 806 q 443 842 471 842 q 390 817 422 842 q 322 755 358 793 q 249 674 285 717 q 185 594 214 632 q 138 531 156 556 q 119 507 119 507 l 92 507 l 92 903 l 1465 903 l 1465 507 l 1413 507 q 1395 531 1413 507 q 1348 594 1378 556 q 1283 674 1318 632 q 1211 755 1247 717 q 1143 817 1175 793 q 1090 842 1111 842 q 1050 824 1063 842 q 1038 774 1038 806 l 1038 211 q 1082 94 1038 128 q 1189 60 1126 60 l 1357 60 l 1357 0 l 176 0 m 589 60 l 679 60 l 679 843 l 589 843 l 589 60 m 542 994 l 356 1197 l 768 1197 l 913 1042 l 1056 1197 l 1176 1197 l 992 994 l 542 994 m 614 1029 l 700 1029 l 596 1144 l 510 1144 l 614 1029 z "},"Ţ":{"ha":1533,"x_min":92,"x_max":1465,"o":"m 176 0 l 176 60 l 344 60 q 451 94 407 60 q 494 211 494 128 l 494 774 q 483 824 494 806 q 443 842 471 842 q 390 817 422 842 q 322 755 358 793 q 249 674 285 717 q 185 594 214 632 q 138 531 156 556 q 119 507 119 507 l 92 507 l 92 903 l 1465 903 l 1465 507 l 1413 507 q 1395 531 1413 507 q 1348 594 1378 556 q 1283 674 1318 632 q 1211 755 1247 717 q 1143 817 1175 793 q 1090 842 1111 842 q 1050 824 1063 842 q 1038 774 1038 806 l 1038 211 q 1082 94 1038 128 q 1189 60 1126 60 l 1357 60 l 1357 0 l 176 0 m 589 60 l 679 60 l 679 843 l 589 843 l 589 60 m 767 -310 q 582 -295 668 -310 q 443 -261 496 -281 l 443 -110 l 497 -110 q 544 -176 513 -146 q 615 -225 575 -207 q 690 -243 654 -243 q 767 -220 735 -243 q 799 -146 799 -197 q 617 0 799 -26 l 617 22 q 790 9 706 22 q 942 -31 874 -4 q 1050 -95 1010 -57 q 1090 -185 1090 -133 q 1061 -251 1090 -226 q 985 -288 1032 -275 q 881 -306 938 -301 q 767 -310 824 -310 m 824 -261 q 881 -238 851 -254 q 931 -199 911 -222 q 951 -149 951 -175 q 915 -78 951 -104 q 824 -33 878 -51 l 818 -42 q 882 -149 882 -81 q 865 -209 882 -179 q 819 -253 849 -239 l 824 -261 z "},"Ț":{"ha":1533,"x_min":92,"x_max":1465,"o":"m 176 0 l 176 60 l 344 60 q 451 94 407 60 q 494 211 494 128 l 494 774 q 483 824 494 806 q 443 842 471 842 q 390 817 422 842 q 322 755 358 793 q 249 674 285 717 q 185 594 214 632 q 138 531 156 556 q 119 507 119 507 l 92 507 l 92 903 l 1465 903 l 1465 507 l 1413 507 q 1395 531 1413 507 q 1348 594 1378 556 q 1283 674 1318 632 q 1211 755 1247 717 q 1143 817 1175 793 q 1090 842 1111 842 q 1050 824 1063 842 q 1038 774 1038 806 l 1038 211 q 1082 94 1038 128 q 1189 60 1126 60 l 1357 60 l 1357 0 l 176 0 m 589 60 l 679 60 l 679 843 l 589 843 l 589 60 m 590 -550 l 590 -499 q 672 -489 624 -499 q 764 -455 719 -479 q 828 -390 808 -431 q 768 -399 801 -399 q 672 -377 715 -399 q 602 -319 628 -356 q 576 -239 576 -282 q 602 -159 576 -194 q 672 -103 628 -124 q 768 -82 715 -82 q 863 -103 821 -82 q 931 -162 906 -125 q 957 -250 957 -200 q 922 -383 957 -318 q 807 -494 888 -449 q 590 -550 726 -540 m 715 -351 l 718 -347 q 691 -299 701 -328 q 681 -239 681 -271 q 691 -178 681 -207 q 718 -131 701 -150 l 715 -126 q 656 -174 679 -143 q 632 -239 632 -204 q 656 -304 632 -274 q 715 -351 679 -335 z "},"U":{"ha":1690,"x_min":56,"x_max":1683,"o":"m 906 -31 q 607 -13 725 -31 q 419 34 489 4 q 314 100 349 64 q 269 174 279 136 q 258 246 258 213 l 258 693 q 215 810 258 776 q 108 843 171 843 l 56 843 l 56 903 l 974 903 l 974 843 l 951 843 q 845 810 889 843 q 801 693 801 776 l 801 232 q 838 89 801 135 q 961 43 874 43 q 1142 59 1072 43 q 1249 103 1211 75 q 1301 166 1286 131 q 1315 242 1315 201 l 1315 571 q 1287 715 1315 661 q 1215 797 1258 769 q 1128 834 1172 825 q 1051 843 1083 843 l 1051 903 l 1683 903 l 1683 843 q 1583 834 1632 843 q 1493 797 1533 825 q 1429 715 1453 769 q 1406 571 1406 661 l 1406 306 q 1399 205 1406 254 q 1369 113 1393 156 q 1291 38 1344 71 q 1144 -12 1238 6 q 906 -31 1050 -31 m 443 122 l 443 843 l 353 843 l 353 292 q 366 193 353 228 q 396 143 379 158 q 427 125 413 128 q 443 122 442 122 z "},"Ú":{"ha":1690,"x_min":56,"x_max":1683,"o":"m 906 -31 q 607 -13 725 -31 q 419 34 489 4 q 314 100 349 64 q 269 174 279 136 q 258 246 258 213 l 258 693 q 215 810 258 776 q 108 843 171 843 l 56 843 l 56 903 l 974 903 l 974 843 l 951 843 q 845 810 889 843 q 801 693 801 776 l 801 232 q 838 89 801 135 q 961 43 874 43 q 1142 59 1072 43 q 1249 103 1211 75 q 1301 166 1286 131 q 1315 242 1315 201 l 1315 571 q 1287 715 1315 661 q 1215 797 1258 769 q 1128 834 1172 825 q 1051 843 1083 843 l 1051 903 l 1683 903 l 1683 843 q 1583 834 1632 843 q 1493 797 1533 825 q 1429 715 1453 769 q 1406 571 1406 661 l 1406 306 q 1399 205 1406 254 q 1369 113 1393 156 q 1291 38 1344 71 q 1144 -12 1238 6 q 906 -31 1050 -31 m 443 122 l 443 843 l 353 843 l 353 292 q 366 193 353 228 q 396 143 379 158 q 427 125 413 128 q 443 122 442 122 m 519 994 l 519 1044 q 694 1063 628 1044 q 803 1115 761 1081 q 879 1197 844 1149 l 1283 1197 q 1275 1176 1283 1197 q 1245 1124 1267 1154 q 1183 1064 1224 1093 q 1078 1019 1143 1035 q 974 1005 1038 1010 q 841 998 911 1000 q 706 995 771 996 q 594 994 640 994 l 519 994 m 794 1049 q 913 1072 867 1053 q 986 1117 960 1092 q 1024 1158 1013 1142 l 935 1158 q 897 1112 922 1133 q 844 1076 872 1090 q 794 1054 815 1061 l 794 1049 z "},"Ŭ":{"ha":1690,"x_min":56,"x_max":1683,"o":"m 906 -31 q 607 -13 725 -31 q 419 34 489 4 q 314 100 349 64 q 269 174 279 136 q 258 246 258 213 l 258 693 q 215 810 258 776 q 108 843 171 843 l 56 843 l 56 903 l 974 903 l 974 843 l 951 843 q 845 810 889 843 q 801 693 801 776 l 801 232 q 838 89 801 135 q 961 43 874 43 q 1142 59 1072 43 q 1249 103 1211 75 q 1301 166 1286 131 q 1315 242 1315 201 l 1315 571 q 1287 715 1315 661 q 1215 797 1258 769 q 1128 834 1172 825 q 1051 843 1083 843 l 1051 903 l 1683 903 l 1683 843 q 1583 834 1632 843 q 1493 797 1533 825 q 1429 715 1453 769 q 1406 571 1406 661 l 1406 306 q 1399 205 1406 254 q 1369 113 1393 156 q 1291 38 1344 71 q 1144 -12 1238 6 q 906 -31 1050 -31 m 443 122 l 443 843 l 353 843 l 353 292 q 366 193 353 228 q 396 143 379 158 q 427 125 413 128 q 443 122 442 122 m 903 949 q 767 984 829 949 q 667 1080 704 1019 q 631 1213 631 1140 l 660 1221 q 760 1161 703 1186 q 903 1136 818 1136 q 1046 1161 989 1136 q 1144 1221 1103 1186 l 1172 1213 q 1136 1080 1172 1140 q 1040 984 1100 1019 q 903 949 979 949 m 903 993 q 1016 1023 964 993 q 1096 1103 1068 1053 l 1089 1107 q 1008 1065 1056 1082 q 903 1049 960 1049 q 801 1065 850 1049 q 718 1107 751 1082 l 711 1103 q 791 1023 739 1053 q 903 993 843 993 z "},"Û":{"ha":1690,"x_min":56,"x_max":1683,"o":"m 906 -31 q 607 -13 725 -31 q 419 34 489 4 q 314 100 349 64 q 269 174 279 136 q 258 246 258 213 l 258 693 q 215 810 258 776 q 108 843 171 843 l 56 843 l 56 903 l 974 903 l 974 843 l 951 843 q 845 810 889 843 q 801 693 801 776 l 801 232 q 838 89 801 135 q 961 43 874 43 q 1142 59 1072 43 q 1249 103 1211 75 q 1301 166 1286 131 q 1315 242 1315 201 l 1315 571 q 1287 715 1315 661 q 1215 797 1258 769 q 1128 834 1172 825 q 1051 843 1083 843 l 1051 903 l 1683 903 l 1683 843 q 1583 834 1632 843 q 1493 797 1533 825 q 1429 715 1453 769 q 1406 571 1406 661 l 1406 306 q 1399 205 1406 254 q 1369 113 1393 156 q 1291 38 1344 71 q 1144 -12 1238 6 q 906 -31 1050 -31 m 443 122 l 443 843 l 353 843 l 353 292 q 366 193 353 228 q 396 143 379 158 q 427 125 413 128 q 443 122 442 122 m 490 994 l 676 1197 l 1126 1197 l 1311 994 l 1190 994 l 1047 1150 l 903 994 l 490 994 m 644 1047 l 731 1047 l 835 1163 l 749 1163 l 644 1047 z "},"Ü":{"ha":1690,"x_min":56,"x_max":1683,"o":"m 906 -31 q 607 -13 725 -31 q 419 34 489 4 q 314 100 349 64 q 269 174 279 136 q 258 246 258 213 l 258 693 q 215 810 258 776 q 108 843 171 843 l 56 843 l 56 903 l 974 903 l 974 843 l 951 843 q 845 810 889 843 q 801 693 801 776 l 801 232 q 838 89 801 135 q 961 43 874 43 q 1142 59 1072 43 q 1249 103 1211 75 q 1301 166 1286 131 q 1315 242 1315 201 l 1315 571 q 1287 715 1315 661 q 1215 797 1258 769 q 1128 834 1172 825 q 1051 843 1083 843 l 1051 903 l 1683 903 l 1683 843 q 1583 834 1632 843 q 1493 797 1533 825 q 1429 715 1453 769 q 1406 571 1406 661 l 1406 306 q 1399 205 1406 254 q 1369 113 1393 156 q 1291 38 1344 71 q 1144 -12 1238 6 q 906 -31 1050 -31 m 443 122 l 443 843 l 353 843 l 353 292 q 366 193 353 228 q 396 143 379 158 q 427 125 413 128 q 443 122 442 122 m 1217 951 q 1122 972 1165 951 q 1053 1029 1079 993 q 1028 1108 1028 1065 q 1053 1189 1028 1153 q 1122 1247 1079 1225 q 1217 1268 1165 1268 q 1314 1247 1271 1268 q 1383 1189 1357 1225 q 1408 1108 1408 1153 q 1383 1029 1408 1065 q 1314 972 1357 993 q 1217 951 1271 951 m 583 951 q 489 972 532 951 q 420 1029 446 993 q 394 1108 394 1065 q 420 1189 394 1153 q 489 1247 446 1225 q 583 1268 532 1268 q 681 1247 638 1268 q 749 1189 724 1225 q 775 1108 775 1153 q 749 1029 775 1065 q 681 972 724 993 q 583 951 638 951 m 542 983 l 546 988 q 515 1040 526 1010 q 503 1108 503 1071 q 515 1176 503 1146 q 546 1229 526 1207 l 542 1233 q 473 1182 500 1215 q 446 1108 446 1149 q 473 1035 446 1069 q 542 983 500 1001 m 1175 983 l 1179 988 q 1148 1040 1160 1010 q 1136 1108 1136 1071 q 1148 1176 1136 1146 q 1179 1229 1160 1207 l 1175 1233 q 1106 1182 1133 1215 q 1079 1108 1079 1149 q 1106 1035 1079 1069 q 1175 983 1133 1001 z "},"Ù":{"ha":1690,"x_min":56,"x_max":1683,"o":"m 906 -31 q 607 -13 725 -31 q 419 34 489 4 q 314 100 349 64 q 269 174 279 136 q 258 246 258 213 l 258 693 q 215 810 258 776 q 108 843 171 843 l 56 843 l 56 903 l 974 903 l 974 843 l 951 843 q 845 810 889 843 q 801 693 801 776 l 801 232 q 838 89 801 135 q 961 43 874 43 q 1142 59 1072 43 q 1249 103 1211 75 q 1301 166 1286 131 q 1315 242 1315 201 l 1315 571 q 1287 715 1315 661 q 1215 797 1258 769 q 1128 834 1172 825 q 1051 843 1083 843 l 1051 903 l 1683 903 l 1683 843 q 1583 834 1632 843 q 1493 797 1533 825 q 1429 715 1453 769 q 1406 571 1406 661 l 1406 306 q 1399 205 1406 254 q 1369 113 1393 156 q 1291 38 1344 71 q 1144 -12 1238 6 q 906 -31 1050 -31 m 443 122 l 443 843 l 353 843 l 353 292 q 366 193 353 228 q 396 143 379 158 q 427 125 413 128 q 443 122 442 122 m 1208 994 q 1097 995 1163 994 q 962 998 1032 996 q 828 1005 892 1000 q 725 1019 765 1010 q 620 1064 661 1035 q 558 1124 579 1093 q 528 1176 536 1154 q 519 1197 519 1197 l 924 1197 q 1000 1115 958 1149 q 1108 1063 1042 1081 q 1283 1044 1175 1044 l 1283 994 l 1208 994 m 850 1049 l 850 1054 q 801 1076 829 1061 q 747 1112 772 1090 q 710 1158 722 1133 l 621 1158 q 659 1117 633 1142 q 731 1072 685 1092 q 850 1049 778 1053 z "},"Ű":{"ha":1690,"x_min":56,"x_max":1683,"o":"m 906 -31 q 607 -13 725 -31 q 419 34 489 4 q 314 100 349 64 q 269 174 279 136 q 258 246 258 213 l 258 693 q 215 810 258 776 q 108 843 171 843 l 56 843 l 56 903 l 974 903 l 974 843 l 951 843 q 845 810 889 843 q 801 693 801 776 l 801 232 q 838 89 801 135 q 961 43 874 43 q 1142 59 1072 43 q 1249 103 1211 75 q 1301 166 1286 131 q 1315 242 1315 201 l 1315 571 q 1287 715 1315 661 q 1215 797 1258 769 q 1128 834 1172 825 q 1051 843 1083 843 l 1051 903 l 1683 903 l 1683 843 q 1583 834 1632 843 q 1493 797 1533 825 q 1429 715 1453 769 q 1406 571 1406 661 l 1406 306 q 1399 205 1406 254 q 1369 113 1393 156 q 1291 38 1344 71 q 1144 -12 1238 6 q 906 -31 1050 -31 m 443 122 l 443 843 l 353 843 l 353 292 q 366 193 353 228 q 396 143 379 158 q 427 125 413 128 q 443 122 442 122 m 935 994 l 935 1044 q 1053 1063 1006 1044 q 1135 1115 1101 1081 q 1197 1197 1168 1149 l 1532 1197 q 1524 1176 1532 1197 q 1495 1125 1517 1156 q 1434 1065 1474 1094 q 1332 1019 1394 1036 q 1215 1003 1283 1008 q 1076 996 1146 997 q 956 994 1007 994 l 935 994 m 381 994 l 381 1044 q 499 1063 451 1044 q 581 1115 547 1081 q 643 1197 614 1149 l 978 1197 q 970 1176 978 1197 q 941 1125 963 1156 q 880 1065 919 1094 q 778 1019 840 1036 q 660 1003 729 1008 q 522 996 592 997 q 401 994 453 994 l 381 994 m 558 1049 q 677 1072 631 1053 q 750 1117 724 1092 q 788 1158 776 1142 l 699 1158 q 661 1112 686 1133 q 608 1076 636 1090 q 558 1054 579 1061 l 558 1049 m 1113 1049 q 1231 1072 1185 1053 q 1304 1117 1278 1092 q 1342 1158 1331 1142 l 1253 1158 q 1215 1112 1240 1133 q 1161 1076 1189 1090 q 1113 1054 1133 1061 l 1113 1049 z "},"Ū":{"ha":1690,"x_min":56,"x_max":1683,"o":"m 906 -31 q 607 -13 725 -31 q 419 34 489 4 q 314 100 349 64 q 269 174 279 136 q 258 246 258 213 l 258 693 q 215 810 258 776 q 108 843 171 843 l 56 843 l 56 903 l 974 903 l 974 843 l 951 843 q 845 810 889 843 q 801 693 801 776 l 801 232 q 838 89 801 135 q 961 43 874 43 q 1142 59 1072 43 q 1249 103 1211 75 q 1301 166 1286 131 q 1315 242 1315 201 l 1315 571 q 1287 715 1315 661 q 1215 797 1258 769 q 1128 834 1172 825 q 1051 843 1083 843 l 1051 903 l 1683 903 l 1683 843 q 1583 834 1632 843 q 1493 797 1533 825 q 1429 715 1453 769 q 1406 571 1406 661 l 1406 306 q 1399 205 1406 254 q 1369 113 1393 156 q 1291 38 1344 71 q 1144 -12 1238 6 q 906 -31 1050 -31 m 443 122 l 443 843 l 353 843 l 353 292 q 366 193 353 228 q 396 143 379 158 q 427 125 413 128 q 443 122 442 122 m 619 1003 l 619 1189 l 1182 1189 l 1182 1003 l 619 1003 m 704 1031 l 779 1031 l 779 1161 l 704 1161 l 704 1031 z "},"Ų":{"ha":1690,"x_min":56,"x_max":1683,"o":"m 906 -31 q 607 -13 725 -31 q 419 34 489 4 q 314 100 349 64 q 269 174 279 136 q 258 246 258 213 l 258 693 q 215 810 258 776 q 108 843 171 843 l 56 843 l 56 903 l 974 903 l 974 843 l 951 843 q 845 810 889 843 q 801 693 801 776 l 801 232 q 838 89 801 135 q 961 43 874 43 q 1142 59 1072 43 q 1249 103 1211 75 q 1301 166 1286 131 q 1315 242 1315 201 l 1315 571 q 1287 715 1315 661 q 1215 797 1258 769 q 1128 834 1172 825 q 1051 843 1083 843 l 1051 903 l 1683 903 l 1683 843 q 1583 834 1632 843 q 1493 797 1533 825 q 1429 715 1453 769 q 1406 571 1406 661 l 1406 306 q 1399 205 1406 254 q 1369 113 1393 156 q 1291 38 1344 71 q 1144 -12 1238 6 q 906 -31 1050 -31 m 443 122 l 443 843 l 353 843 l 353 292 q 366 193 353 228 q 396 143 379 158 q 427 125 413 128 q 443 122 442 122 m 928 -311 q 815 -307 872 -311 q 710 -290 757 -303 q 633 -252 663 -276 q 604 -186 604 -228 q 644 -97 604 -135 q 753 -32 685 -58 q 905 10 821 -6 q 1078 31 989 25 l 1078 8 q 941 -48 986 -6 q 896 -147 896 -90 q 928 -222 896 -199 q 1004 -244 960 -244 q 1081 -226 1042 -244 q 1151 -178 1119 -208 q 1197 -111 1183 -147 l 1251 -111 l 1251 -262 q 1113 -297 1199 -282 q 928 -311 1026 -311 m 801 -279 l 804 -272 q 752 -228 775 -260 q 729 -165 729 -196 q 792 -61 729 -97 l 788 -54 q 697 -101 733 -71 q 660 -172 660 -131 q 697 -241 660 -211 q 801 -279 733 -271 z "},"Ů":{"ha":1690,"x_min":56,"x_max":1683,"o":"m 906 -31 q 607 -13 725 -31 q 419 34 489 4 q 314 100 349 64 q 269 174 279 136 q 258 246 258 213 l 258 693 q 215 810 258 776 q 108 843 171 843 l 56 843 l 56 903 l 974 903 l 974 843 l 951 843 q 845 810 889 843 q 801 693 801 776 l 801 232 q 838 89 801 135 q 961 43 874 43 q 1142 59 1072 43 q 1249 103 1211 75 q 1301 166 1286 131 q 1315 242 1315 201 l 1315 571 q 1287 715 1315 661 q 1215 797 1258 769 q 1128 834 1172 825 q 1051 843 1083 843 l 1051 903 l 1683 903 l 1683 843 q 1583 834 1632 843 q 1493 797 1533 825 q 1429 715 1453 769 q 1406 571 1406 661 l 1406 306 q 1399 205 1406 254 q 1369 113 1393 156 q 1291 38 1344 71 q 1144 -12 1238 6 q 906 -31 1050 -31 m 443 122 l 443 843 l 353 843 l 353 292 q 366 193 353 228 q 396 143 379 158 q 427 125 413 128 q 443 122 442 122 m 900 928 q 791 952 840 928 q 712 1017 742 976 q 682 1108 682 1058 q 712 1200 682 1158 q 791 1267 742 1242 q 900 1292 840 1292 q 1011 1267 961 1292 q 1091 1200 1061 1242 q 1121 1108 1121 1158 q 1091 1017 1121 1058 q 1011 952 1061 976 q 900 928 961 928 m 900 971 q 947 1011 928 971 q 967 1108 967 1051 q 947 1206 967 1165 q 900 1246 928 1246 q 853 1206 874 1246 q 833 1108 833 1165 q 853 1011 833 1051 q 900 971 874 971 m 821 979 l 825 983 q 794 1039 806 1007 q 782 1108 782 1071 q 825 1233 782 1183 l 821 1238 q 753 1184 779 1219 q 726 1108 726 1149 q 753 1034 726 1069 q 821 979 779 999 z "},"Ũ":{"ha":1690,"x_min":56,"x_max":1683,"o":"m 906 -31 q 607 -13 725 -31 q 419 34 489 4 q 314 100 349 64 q 269 174 279 136 q 258 246 258 213 l 258 693 q 215 810 258 776 q 108 843 171 843 l 56 843 l 56 903 l 974 903 l 974 843 l 951 843 q 845 810 889 843 q 801 693 801 776 l 801 232 q 838 89 801 135 q 961 43 874 43 q 1142 59 1072 43 q 1249 103 1211 75 q 1301 166 1286 131 q 1315 242 1315 201 l 1315 571 q 1287 715 1315 661 q 1215 797 1258 769 q 1128 834 1172 825 q 1051 843 1083 843 l 1051 903 l 1683 903 l 1683 843 q 1583 834 1632 843 q 1493 797 1533 825 q 1429 715 1453 769 q 1406 571 1406 661 l 1406 306 q 1399 205 1406 254 q 1369 113 1393 156 q 1291 38 1344 71 q 1144 -12 1238 6 q 906 -31 1050 -31 m 443 122 l 443 843 l 353 843 l 353 292 q 366 193 353 228 q 396 143 379 158 q 427 125 413 128 q 443 122 442 122 m 1051 979 q 911 990 969 979 q 803 1013 853 1000 q 703 1037 754 1026 q 583 1047 651 1047 q 530 1033 553 1047 q 497 996 507 1019 l 458 996 q 481 1060 461 1022 q 540 1134 501 1097 q 638 1196 579 1171 q 772 1221 696 1221 q 905 1213 850 1221 q 1004 1196 960 1206 q 1092 1178 1049 1186 q 1190 1171 1135 1171 q 1260 1184 1236 1171 q 1299 1219 1285 1197 l 1344 1219 q 1323 1151 1342 1192 q 1268 1072 1304 1111 q 1178 1006 1232 1032 q 1051 979 1124 979 m 1061 1026 q 1160 1044 1110 1026 q 1246 1090 1211 1061 l 1243 1096 q 1172 1081 1214 1086 q 1100 1075 1131 1075 q 963 1084 1019 1075 q 860 1106 906 1093 q 771 1127 815 1118 q 669 1136 726 1136 q 604 1124 631 1136 q 558 1094 578 1111 l 563 1089 q 592 1094 578 1092 q 621 1096 607 1096 q 744 1078 679 1096 q 886 1044 808 1061 q 1061 1026 964 1026 z "},"V":{"ha":1749,"x_min":-19,"x_max":1768,"o":"m 858 -32 l 74 843 l -19 843 l -19 903 l 958 903 l 958 843 l 919 843 q 854 813 876 843 q 832 740 832 782 q 844 680 832 711 q 881 625 857 649 l 1140 361 l 1321 558 q 1353 607 1343 582 q 1363 658 1363 632 q 1332 747 1363 706 q 1247 816 1301 789 q 1118 843 1192 843 l 1049 843 l 1049 903 l 1768 903 l 1768 843 l 1697 843 l 908 -32 l 858 -32 m 904 53 l 960 115 l 307 843 l 196 843 l 904 53 z "},"W":{"ha":2817,"x_min":-19,"x_max":2835,"o":"m 858 -32 l 74 843 l -19 843 l -19 903 l 958 903 l 958 843 l 919 843 q 854 813 876 843 q 832 740 832 782 q 844 680 832 711 q 881 625 857 649 l 1140 361 l 1358 601 l 1142 843 l 1049 843 l 1049 903 l 2026 903 l 2026 843 l 1989 843 q 1924 813 1946 843 q 1901 740 1901 782 q 1914 680 1901 711 q 1950 625 1926 649 l 2207 361 l 2389 558 q 2421 607 2411 582 q 2431 658 2431 632 q 2400 748 2431 706 q 2314 817 2369 790 q 2185 843 2258 843 l 2117 843 l 2117 903 l 2835 903 l 2835 843 l 2767 843 l 1976 -32 l 1926 -32 l 1418 532 l 908 -32 l 858 -32 m 904 53 l 960 115 l 307 843 l 196 843 l 904 53 m 1972 53 l 2028 115 l 1375 843 l 1264 843 l 1972 53 z "},"Ẃ":{"ha":2817,"x_min":-19,"x_max":2835,"o":"m 858 -32 l 74 843 l -19 843 l -19 903 l 958 903 l 958 843 l 919 843 q 854 813 876 843 q 832 740 832 782 q 844 680 832 711 q 881 625 857 649 l 1140 361 l 1358 601 l 1142 843 l 1049 843 l 1049 903 l 2026 903 l 2026 843 l 1989 843 q 1924 813 1946 843 q 1901 740 1901 782 q 1914 680 1901 711 q 1950 625 1926 649 l 2207 361 l 2389 558 q 2421 607 2411 582 q 2431 658 2431 632 q 2400 748 2431 706 q 2314 817 2369 790 q 2185 843 2258 843 l 2117 843 l 2117 903 l 2835 903 l 2835 843 l 2767 843 l 1976 -32 l 1926 -32 l 1418 532 l 908 -32 l 858 -32 m 904 53 l 960 115 l 307 843 l 196 843 l 904 53 m 1972 53 l 2028 115 l 1375 843 l 1264 843 l 1972 53 m 1165 994 l 1165 1044 q 1340 1063 1274 1044 q 1449 1115 1407 1081 q 1525 1197 1490 1149 l 1929 1197 q 1921 1176 1929 1197 q 1891 1124 1913 1154 q 1829 1064 1869 1093 q 1724 1019 1789 1035 q 1620 1005 1683 1010 q 1487 998 1557 1000 q 1351 995 1417 996 q 1240 994 1286 994 l 1165 994 m 1440 1049 q 1559 1072 1513 1053 q 1632 1117 1606 1092 q 1669 1158 1658 1142 l 1581 1158 q 1543 1112 1568 1133 q 1490 1076 1518 1090 q 1440 1054 1461 1061 l 1440 1049 z "},"Ŵ":{"ha":2817,"x_min":-19,"x_max":2835,"o":"m 858 -32 l 74 843 l -19 843 l -19 903 l 958 903 l 958 843 l 919 843 q 854 813 876 843 q 832 740 832 782 q 844 680 832 711 q 881 625 857 649 l 1140 361 l 1358 601 l 1142 843 l 1049 843 l 1049 903 l 2026 903 l 2026 843 l 1989 843 q 1924 813 1946 843 q 1901 740 1901 782 q 1914 680 1901 711 q 1950 625 1926 649 l 2207 361 l 2389 558 q 2421 607 2411 582 q 2431 658 2431 632 q 2400 748 2431 706 q 2314 817 2369 790 q 2185 843 2258 843 l 2117 843 l 2117 903 l 2835 903 l 2835 843 l 2767 843 l 1976 -32 l 1926 -32 l 1418 532 l 908 -32 l 858 -32 m 904 53 l 960 115 l 307 843 l 196 843 l 904 53 m 1972 53 l 2028 115 l 1375 843 l 1264 843 l 1972 53 m 1136 994 l 1322 1197 l 1772 1197 l 1957 994 l 1836 994 l 1693 1150 l 1549 994 l 1136 994 m 1290 1047 l 1376 1047 l 1481 1163 l 1394 1163 l 1290 1047 z "},"Ẅ":{"ha":2817,"x_min":-19,"x_max":2835,"o":"m 858 -32 l 74 843 l -19 843 l -19 903 l 958 903 l 958 843 l 919 843 q 854 813 876 843 q 832 740 832 782 q 844 680 832 711 q 881 625 857 649 l 1140 361 l 1358 601 l 1142 843 l 1049 843 l 1049 903 l 2026 903 l 2026 843 l 1989 843 q 1924 813 1946 843 q 1901 740 1901 782 q 1914 680 1901 711 q 1950 625 1926 649 l 2207 361 l 2389 558 q 2421 607 2411 582 q 2431 658 2431 632 q 2400 748 2431 706 q 2314 817 2369 790 q 2185 843 2258 843 l 2117 843 l 2117 903 l 2835 903 l 2835 843 l 2767 843 l 1976 -32 l 1926 -32 l 1418 532 l 908 -32 l 858 -32 m 904 53 l 960 115 l 307 843 l 196 843 l 904 53 m 1972 53 l 2028 115 l 1375 843 l 1264 843 l 1972 53 m 1863 951 q 1768 972 1811 951 q 1699 1029 1725 993 q 1674 1108 1674 1065 q 1699 1189 1674 1153 q 1768 1247 1725 1225 q 1863 1268 1811 1268 q 1960 1247 1917 1268 q 2028 1189 2003 1225 q 2054 1108 2054 1153 q 2028 1029 2054 1065 q 1960 972 2003 993 q 1863 951 1917 951 m 1229 951 q 1135 972 1178 951 q 1066 1029 1092 993 q 1040 1108 1040 1065 q 1066 1189 1040 1153 q 1135 1247 1092 1225 q 1229 1268 1178 1268 q 1326 1247 1283 1268 q 1395 1189 1369 1225 q 1421 1108 1421 1153 q 1395 1029 1421 1065 q 1326 972 1369 993 q 1229 951 1283 951 m 1188 983 l 1192 988 q 1160 1040 1172 1010 q 1149 1108 1149 1071 q 1160 1176 1149 1146 q 1192 1229 1172 1207 l 1188 1233 q 1119 1182 1146 1215 q 1092 1108 1092 1149 q 1119 1035 1092 1069 q 1188 983 1146 1001 m 1821 983 l 1825 988 q 1794 1040 1806 1010 q 1782 1108 1782 1071 q 1794 1176 1782 1146 q 1825 1229 1806 1207 l 1821 1233 q 1752 1182 1779 1215 q 1725 1108 1725 1149 q 1752 1035 1725 1069 q 1821 983 1779 1001 z "},"Ẁ":{"ha":2817,"x_min":-19,"x_max":2835,"o":"m 858 -32 l 74 843 l -19 843 l -19 903 l 958 903 l 958 843 l 919 843 q 854 813 876 843 q 832 740 832 782 q 844 680 832 711 q 881 625 857 649 l 1140 361 l 1358 601 l 1142 843 l 1049 843 l 1049 903 l 2026 903 l 2026 843 l 1989 843 q 1924 813 1946 843 q 1901 740 1901 782 q 1914 680 1901 711 q 1950 625 1926 649 l 2207 361 l 2389 558 q 2421 607 2411 582 q 2431 658 2431 632 q 2400 748 2431 706 q 2314 817 2369 790 q 2185 843 2258 843 l 2117 843 l 2117 903 l 2835 903 l 2835 843 l 2767 843 l 1976 -32 l 1926 -32 l 1418 532 l 908 -32 l 858 -32 m 904 53 l 960 115 l 307 843 l 196 843 l 904 53 m 1972 53 l 2028 115 l 1375 843 l 1264 843 l 1972 53 m 1854 994 q 1743 995 1808 994 q 1608 998 1678 996 q 1474 1005 1538 1000 q 1371 1019 1411 1010 q 1266 1064 1307 1035 q 1203 1124 1225 1093 q 1174 1176 1182 1154 q 1165 1197 1165 1197 l 1569 1197 q 1646 1115 1604 1149 q 1754 1063 1688 1081 q 1929 1044 1821 1044 l 1929 994 l 1854 994 m 1496 1049 l 1496 1054 q 1447 1076 1475 1061 q 1393 1112 1418 1090 q 1356 1158 1368 1133 l 1267 1158 q 1305 1117 1279 1142 q 1377 1072 1331 1092 q 1496 1049 1424 1053 z "},"X":{"ha":1907,"x_min":18,"x_max":1889,"o":"m 18 0 l 18 60 l 65 60 q 183 80 124 60 q 292 126 243 100 q 365 168 340 153 l 743 411 l 472 690 q 378 767 432 732 q 269 822 324 801 q 174 843 215 843 l 89 843 l 89 903 l 1043 903 l 1043 843 l 1018 843 q 970 829 986 843 q 954 794 954 815 q 1014 690 954 750 l 1118 583 l 1157 610 q 1251 692 1225 656 q 1278 758 1278 729 q 1253 820 1278 797 q 1194 843 1229 843 l 1168 843 l 1168 901 l 1843 901 l 1843 843 l 1797 843 q 1679 822 1739 843 q 1572 773 1619 800 q 1499 729 1524 746 l 1179 522 l 1482 210 q 1640 93 1564 126 q 1781 60 1717 60 l 1889 60 l 1889 0 l 881 0 l 881 60 l 936 60 q 990 69 969 60 q 1010 100 1010 79 q 993 144 1010 118 q 940 210 976 171 l 801 353 l 706 290 q 611 208 638 246 q 585 142 585 171 q 609 81 585 103 q 668 60 633 60 l 800 60 l 800 0 l 18 0 m 1201 60 l 1308 60 l 542 843 l 435 843 l 1201 60 z "},"Y":{"ha":1818,"x_min":-19,"x_max":1838,"o":"m 274 0 l 274 60 l 443 60 q 549 94 506 60 q 593 210 593 128 l 593 375 l 121 843 l -19 843 l -19 903 l 1021 903 l 1021 843 l 982 843 q 933 825 951 843 q 915 779 915 807 q 925 736 915 760 q 957 692 935 713 l 1136 514 l 1218 581 q 1293 663 1268 621 q 1318 742 1318 706 q 1283 814 1318 785 q 1181 843 1247 843 l 1111 843 l 1111 903 l 1838 903 l 1838 843 l 1746 843 l 1136 404 l 1136 210 q 1181 94 1136 128 q 1288 60 1225 60 l 1456 60 l 1456 0 l 274 0 m 688 60 l 778 60 l 778 425 l 354 843 l 244 843 l 688 406 l 688 60 z "},"Ý":{"ha":1818,"x_min":-19,"x_max":1838,"o":"m 274 0 l 274 60 l 443 60 q 549 94 506 60 q 593 210 593 128 l 593 375 l 121 843 l -19 843 l -19 903 l 1021 903 l 1021 843 l 982 843 q 933 825 951 843 q 915 779 915 807 q 925 736 915 760 q 957 692 935 713 l 1136 514 l 1218 581 q 1293 663 1268 621 q 1318 742 1318 706 q 1283 814 1318 785 q 1181 843 1247 843 l 1111 843 l 1111 903 l 1838 903 l 1838 843 l 1746 843 l 1136 404 l 1136 210 q 1181 94 1136 128 q 1288 60 1225 60 l 1456 60 l 1456 0 l 274 0 m 688 60 l 778 60 l 778 425 l 354 843 l 244 843 l 688 406 l 688 60 m 528 994 l 528 1044 q 703 1063 636 1044 q 811 1115 769 1081 q 888 1197 853 1149 l 1292 1197 q 1283 1176 1292 1197 q 1253 1124 1275 1154 q 1192 1064 1232 1093 q 1086 1019 1151 1035 q 983 1005 1046 1010 q 849 998 919 1000 q 714 995 779 996 q 603 994 649 994 l 528 994 m 803 1049 q 922 1072 875 1053 q 994 1117 968 1092 q 1032 1158 1021 1142 l 943 1158 q 906 1112 931 1133 q 852 1076 881 1090 q 803 1054 824 1061 l 803 1049 z "},"Ŷ":{"ha":1818,"x_min":-19,"x_max":1838,"o":"m 274 0 l 274 60 l 443 60 q 549 94 506 60 q 593 210 593 128 l 593 375 l 121 843 l -19 843 l -19 903 l 1021 903 l 1021 843 l 982 843 q 933 825 951 843 q 915 779 915 807 q 925 736 915 760 q 957 692 935 713 l 1136 514 l 1218 581 q 1293 663 1268 621 q 1318 742 1318 706 q 1283 814 1318 785 q 1181 843 1247 843 l 1111 843 l 1111 903 l 1838 903 l 1838 843 l 1746 843 l 1136 404 l 1136 210 q 1181 94 1136 128 q 1288 60 1225 60 l 1456 60 l 1456 0 l 274 0 m 688 60 l 778 60 l 778 425 l 354 843 l 244 843 l 688 406 l 688 60 m 499 994 l 685 1197 l 1135 1197 l 1319 994 l 1199 994 l 1056 1150 l 911 994 l 499 994 m 653 1047 l 739 1047 l 843 1163 l 757 1163 l 653 1047 z "},"Ÿ":{"ha":1818,"x_min":-19,"x_max":1838,"o":"m 274 0 l 274 60 l 443 60 q 549 94 506 60 q 593 210 593 128 l 593 375 l 121 843 l -19 843 l -19 903 l 1021 903 l 1021 843 l 982 843 q 933 825 951 843 q 915 779 915 807 q 925 736 915 760 q 957 692 935 713 l 1136 514 l 1218 581 q 1293 663 1268 621 q 1318 742 1318 706 q 1283 814 1318 785 q 1181 843 1247 843 l 1111 843 l 1111 903 l 1838 903 l 1838 843 l 1746 843 l 1136 404 l 1136 210 q 1181 94 1136 128 q 1288 60 1225 60 l 1456 60 l 1456 0 l 274 0 m 688 60 l 778 60 l 778 425 l 354 843 l 244 843 l 688 406 l 688 60 m 1225 951 q 1131 972 1174 951 q 1062 1029 1088 993 q 1036 1108 1036 1065 q 1062 1189 1036 1153 q 1131 1247 1088 1225 q 1225 1268 1174 1268 q 1322 1247 1279 1268 q 1391 1189 1365 1225 q 1417 1108 1417 1153 q 1391 1029 1417 1065 q 1322 972 1365 993 q 1225 951 1279 951 m 592 951 q 497 972 540 951 q 428 1029 454 993 q 403 1108 403 1065 q 428 1189 403 1153 q 497 1247 454 1225 q 592 1268 540 1268 q 689 1247 646 1268 q 758 1189 732 1225 q 783 1108 783 1153 q 758 1029 783 1065 q 689 972 732 993 q 592 951 646 951 m 550 983 l 554 988 q 523 1040 535 1010 q 511 1108 511 1071 q 523 1176 511 1146 q 554 1229 535 1207 l 550 1233 q 481 1182 508 1215 q 454 1108 454 1149 q 481 1035 454 1069 q 550 983 508 1001 m 1183 983 l 1188 988 q 1156 1040 1168 1010 q 1144 1108 1144 1071 q 1156 1176 1144 1146 q 1188 1229 1168 1207 l 1183 1233 q 1115 1182 1142 1215 q 1088 1108 1088 1149 q 1115 1035 1088 1069 q 1183 983 1142 1001 z "},"Ỳ":{"ha":1818,"x_min":-19,"x_max":1838,"o":"m 274 0 l 274 60 l 443 60 q 549 94 506 60 q 593 210 593 128 l 593 375 l 121 843 l -19 843 l -19 903 l 1021 903 l 1021 843 l 982 843 q 933 825 951 843 q 915 779 915 807 q 925 736 915 760 q 957 692 935 713 l 1136 514 l 1218 581 q 1293 663 1268 621 q 1318 742 1318 706 q 1283 814 1318 785 q 1181 843 1247 843 l 1111 843 l 1111 903 l 1838 903 l 1838 843 l 1746 843 l 1136 404 l 1136 210 q 1181 94 1136 128 q 1288 60 1225 60 l 1456 60 l 1456 0 l 274 0 m 688 60 l 778 60 l 778 425 l 354 843 l 244 843 l 688 406 l 688 60 m 1217 994 q 1106 995 1171 994 q 970 998 1040 996 q 837 1005 900 1000 q 733 1019 774 1010 q 628 1064 669 1035 q 566 1124 588 1093 q 536 1176 544 1154 q 528 1197 528 1197 l 932 1197 q 1008 1115 967 1149 q 1117 1063 1050 1081 q 1292 1044 1183 1044 l 1292 994 l 1217 994 m 858 1049 l 858 1054 q 809 1076 838 1061 q 756 1112 781 1090 q 718 1158 731 1133 l 629 1158 q 667 1117 642 1142 q 740 1072 693 1092 q 858 1049 786 1053 z "},"Z":{"ha":1629,"x_min":75,"x_max":1554,"o":"m 75 0 l 75 60 l 107 60 l 869 843 l 790 843 q 568 817 664 843 q 401 750 472 790 q 279 666 329 710 q 196 589 229 622 l 156 589 l 156 903 l 1554 903 l 1554 843 l 1525 843 l 761 60 l 925 60 q 1147 85 1054 60 q 1306 149 1240 110 q 1417 233 1372 189 q 1493 314 1463 276 l 1533 314 l 1533 0 l 75 0 m 229 60 l 347 60 l 1104 843 l 992 843 l 229 60 z "},"Ź":{"ha":1629,"x_min":75,"x_max":1554,"o":"m 75 0 l 75 60 l 107 60 l 869 843 l 790 843 q 568 817 664 843 q 401 750 472 790 q 279 666 329 710 q 196 589 229 622 l 156 589 l 156 903 l 1554 903 l 1554 843 l 1525 843 l 761 60 l 925 60 q 1147 85 1054 60 q 1306 149 1240 110 q 1417 233 1372 189 q 1493 314 1463 276 l 1533 314 l 1533 0 l 75 0 m 229 60 l 347 60 l 1104 843 l 992 843 l 229 60 m 544 994 l 544 1044 q 719 1063 653 1044 q 828 1115 786 1081 q 904 1197 869 1149 l 1308 1197 q 1300 1176 1308 1197 q 1270 1124 1292 1154 q 1208 1064 1249 1093 q 1103 1019 1168 1035 q 999 1005 1063 1010 q 866 998 936 1000 q 731 995 796 996 q 619 994 665 994 l 544 994 m 819 1049 q 938 1072 892 1053 q 1011 1117 985 1092 q 1049 1158 1038 1142 l 960 1158 q 922 1112 947 1133 q 869 1076 897 1090 q 819 1054 840 1061 l 819 1049 z "},"Ž":{"ha":1629,"x_min":75,"x_max":1554,"o":"m 75 0 l 75 60 l 107 60 l 869 843 l 790 843 q 568 817 664 843 q 401 750 472 790 q 279 666 329 710 q 196 589 229 622 l 156 589 l 156 903 l 1554 903 l 1554 843 l 1525 843 l 761 60 l 925 60 q 1147 85 1054 60 q 1306 149 1240 110 q 1417 233 1372 189 q 1493 314 1463 276 l 1533 314 l 1533 0 l 75 0 m 229 60 l 347 60 l 1104 843 l 992 843 l 229 60 m 701 994 l 515 1197 l 928 1197 l 1072 1042 l 1215 1197 l 1336 1197 l 1151 994 l 701 994 m 774 1029 l 860 1029 l 756 1144 l 669 1144 l 774 1029 z "},"Ż":{"ha":1629,"x_min":75,"x_max":1554,"o":"m 75 0 l 75 60 l 107 60 l 869 843 l 790 843 q 568 817 664 843 q 401 750 472 790 q 279 666 329 710 q 196 589 229 622 l 156 589 l 156 903 l 1554 903 l 1554 843 l 1525 843 l 761 60 l 925 60 q 1147 85 1054 60 q 1306 149 1240 110 q 1417 233 1372 189 q 1493 314 1463 276 l 1533 314 l 1533 0 l 75 0 m 229 60 l 347 60 l 1104 843 l 992 843 l 229 60 m 925 951 q 831 972 874 951 q 762 1029 788 993 q 736 1108 736 1065 q 762 1189 736 1153 q 831 1247 788 1225 q 925 1268 874 1268 q 1022 1247 979 1268 q 1091 1189 1065 1225 q 1117 1108 1117 1153 q 1091 1029 1117 1065 q 1022 972 1065 993 q 925 951 979 951 m 857 996 l 860 1000 q 833 1048 843 1019 q 822 1108 822 1076 q 833 1169 822 1140 q 860 1217 843 1197 l 857 1221 q 797 1174 821 1204 q 774 1108 774 1143 q 797 1043 774 1074 q 857 996 821 1013 z "},"a":{"ha":1650,"x_min":-19,"x_max":1668,"o":"m -19 0 l -19 60 q 78 74 38 60 q 147 107 119 89 q 187 140 174 125 q 200 154 200 154 l 553 606 l 514 654 q 483 687 499 674 q 443 708 468 700 q 371 715 418 715 l 274 715 l 274 775 l 956 775 l 1531 60 l 1668 60 l 1668 0 l 774 0 l 774 60 l 865 60 q 912 72 893 60 q 931 106 931 83 q 899 176 931 136 l 856 231 l 336 231 q 304 136 304 176 q 328 80 304 100 q 389 60 353 60 l 503 60 l 503 0 l -19 0 m 1117 60 l 1200 60 l 672 715 l 588 715 l 1117 60 m 381 288 l 810 288 l 592 560 l 381 288 z "},"á":{"ha":1650,"x_min":-19,"x_max":1668,"o":"m -19 0 l -19 60 q 78 74 38 60 q 147 107 119 89 q 187 140 174 125 q 200 154 200 154 l 553 606 l 514 654 q 483 687 499 674 q 443 708 468 700 q 371 715 418 715 l 274 715 l 274 775 l 956 775 l 1531 60 l 1668 60 l 1668 0 l 774 0 l 774 60 l 865 60 q 912 72 893 60 q 931 106 931 83 q 899 176 931 136 l 856 231 l 336 231 q 304 136 304 176 q 328 80 304 100 q 389 60 353 60 l 503 60 l 503 0 l -19 0 m 1117 60 l 1200 60 l 672 715 l 588 715 l 1117 60 m 381 288 l 810 288 l 592 560 l 381 288 m 303 867 l 303 917 q 478 935 411 917 q 586 987 544 953 q 663 1069 628 1021 l 1067 1069 q 1058 1048 1067 1069 q 1028 996 1050 1026 q 967 936 1007 965 q 861 892 926 907 q 758 877 821 882 q 624 870 694 872 q 489 867 554 868 q 378 867 424 867 l 303 867 m 578 921 q 697 944 650 925 q 769 989 743 964 q 807 1031 796 1014 l 718 1031 q 681 984 706 1006 q 627 948 656 963 q 578 926 599 933 l 578 921 z "},"ă":{"ha":1650,"x_min":-19,"x_max":1668,"o":"m -19 0 l -19 60 q 78 74 38 60 q 147 107 119 89 q 187 140 174 125 q 200 154 200 154 l 553 606 l 514 654 q 483 687 499 674 q 443 708 468 700 q 371 715 418 715 l 274 715 l 274 775 l 956 775 l 1531 60 l 1668 60 l 1668 0 l 774 0 l 774 60 l 865 60 q 912 72 893 60 q 931 106 931 83 q 899 176 931 136 l 856 231 l 336 231 q 304 136 304 176 q 328 80 304 100 q 389 60 353 60 l 503 60 l 503 0 l -19 0 m 1117 60 l 1200 60 l 672 715 l 588 715 l 1117 60 m 381 288 l 810 288 l 592 560 l 381 288 m 686 821 q 550 856 613 821 q 451 952 488 892 q 414 1085 414 1013 l 443 1093 q 544 1033 486 1058 q 686 1008 601 1008 q 829 1033 772 1008 q 928 1093 886 1058 l 956 1085 q 919 952 956 1013 q 823 856 883 892 q 686 821 763 821 m 686 865 q 799 895 747 865 q 879 975 851 925 l 872 979 q 791 938 839 954 q 686 921 743 921 q 584 938 633 921 q 501 979 535 954 l 494 975 q 574 895 522 925 q 686 865 626 865 z "},"â":{"ha":1650,"x_min":-19,"x_max":1668,"o":"m -19 0 l -19 60 q 78 74 38 60 q 147 107 119 89 q 187 140 174 125 q 200 154 200 154 l 553 606 l 514 654 q 483 687 499 674 q 443 708 468 700 q 371 715 418 715 l 274 715 l 274 775 l 956 775 l 1531 60 l 1668 60 l 1668 0 l 774 0 l 774 60 l 865 60 q 912 72 893 60 q 931 106 931 83 q 899 176 931 136 l 856 231 l 336 231 q 304 136 304 176 q 328 80 304 100 q 389 60 353 60 l 503 60 l 503 0 l -19 0 m 1117 60 l 1200 60 l 672 715 l 588 715 l 1117 60 m 381 288 l 810 288 l 592 560 l 381 288 m 274 867 l 460 1069 l 910 1069 l 1094 867 l 974 867 l 831 1022 l 686 867 l 274 867 m 428 919 l 514 919 l 618 1035 l 532 1035 l 428 919 z "},"ä":{"ha":1650,"x_min":-19,"x_max":1668,"o":"m -19 0 l -19 60 q 78 74 38 60 q 147 107 119 89 q 187 140 174 125 q 200 154 200 154 l 553 606 l 514 654 q 483 687 499 674 q 443 708 468 700 q 371 715 418 715 l 274 715 l 274 775 l 956 775 l 1531 60 l 1668 60 l 1668 0 l 774 0 l 774 60 l 865 60 q 912 72 893 60 q 931 106 931 83 q 899 176 931 136 l 856 231 l 336 231 q 304 136 304 176 q 328 80 304 100 q 389 60 353 60 l 503 60 l 503 0 l -19 0 m 1117 60 l 1200 60 l 672 715 l 588 715 l 1117 60 m 381 288 l 810 288 l 592 560 l 381 288 m 1000 824 q 906 844 949 824 q 837 901 863 865 q 811 981 811 938 q 837 1061 811 1025 q 906 1119 863 1097 q 1000 1140 949 1140 q 1097 1119 1054 1140 q 1166 1061 1140 1097 q 1192 981 1192 1025 q 1166 901 1192 938 q 1097 844 1140 865 q 1000 824 1054 824 m 367 824 q 272 844 315 824 q 203 901 229 865 q 178 981 178 938 q 203 1061 178 1025 q 272 1119 229 1097 q 367 1140 315 1140 q 464 1119 421 1140 q 533 1061 507 1097 q 558 981 558 1025 q 533 901 558 938 q 464 844 507 865 q 367 824 421 824 m 325 856 l 329 860 q 298 913 310 882 q 286 981 286 943 q 298 1049 286 1018 q 329 1101 310 1079 l 325 1106 q 256 1054 283 1088 q 229 981 229 1021 q 256 908 229 942 q 325 856 283 874 m 958 856 l 963 860 q 931 913 943 882 q 919 981 919 943 q 931 1049 919 1018 q 963 1101 943 1079 l 958 1106 q 890 1054 917 1088 q 863 981 863 1021 q 890 908 863 942 q 958 856 917 874 z "},"à":{"ha":1650,"x_min":-19,"x_max":1668,"o":"m -19 0 l -19 60 q 78 74 38 60 q 147 107 119 89 q 187 140 174 125 q 200 154 200 154 l 553 606 l 514 654 q 483 687 499 674 q 443 708 468 700 q 371 715 418 715 l 274 715 l 274 775 l 956 775 l 1531 60 l 1668 60 l 1668 0 l 774 0 l 774 60 l 865 60 q 912 72 893 60 q 931 106 931 83 q 899 176 931 136 l 856 231 l 336 231 q 304 136 304 176 q 328 80 304 100 q 389 60 353 60 l 503 60 l 503 0 l -19 0 m 1117 60 l 1200 60 l 672 715 l 588 715 l 1117 60 m 381 288 l 810 288 l 592 560 l 381 288 m 992 867 q 881 867 946 867 q 745 870 815 868 q 612 877 675 872 q 508 892 549 882 q 403 936 444 907 q 341 996 363 965 q 311 1048 319 1026 q 303 1069 303 1069 l 707 1069 q 783 987 742 1021 q 892 935 825 953 q 1067 917 958 917 l 1067 867 l 992 867 m 633 921 l 633 926 q 584 948 613 933 q 531 984 556 963 q 493 1031 506 1006 l 404 1031 q 442 989 417 1014 q 515 944 468 964 q 633 921 561 925 z "},"ā":{"ha":1650,"x_min":-19,"x_max":1668,"o":"m -19 0 l -19 60 q 78 74 38 60 q 147 107 119 89 q 187 140 174 125 q 200 154 200 154 l 553 606 l 514 654 q 483 687 499 674 q 443 708 468 700 q 371 715 418 715 l 274 715 l 274 775 l 956 775 l 1531 60 l 1668 60 l 1668 0 l 774 0 l 774 60 l 865 60 q 912 72 893 60 q 931 106 931 83 q 899 176 931 136 l 856 231 l 336 231 q 304 136 304 176 q 328 80 304 100 q 389 60 353 60 l 503 60 l 503 0 l -19 0 m 1117 60 l 1200 60 l 672 715 l 588 715 l 1117 60 m 381 288 l 810 288 l 592 560 l 381 288 m 403 875 l 403 1061 l 965 1061 l 965 875 l 403 875 m 488 903 l 563 903 l 563 1033 l 488 1033 l 488 903 z "},"ą":{"ha":1650,"x_min":-19,"x_max":1668,"o":"m -19 0 l -19 60 q 78 74 38 60 q 147 107 119 89 q 187 140 174 125 q 200 154 200 154 l 553 606 l 514 654 q 483 687 499 674 q 443 708 468 700 q 371 715 418 715 l 274 715 l 274 775 l 956 775 l 1531 60 l 1668 60 l 1668 0 l 774 0 l 774 60 l 865 60 q 912 72 893 60 q 931 106 931 83 q 899 176 931 136 l 856 231 l 336 231 q 304 136 304 176 q 328 80 304 100 q 389 60 353 60 l 503 60 l 503 0 l -19 0 m 1117 60 l 1200 60 l 672 715 l 588 715 l 1117 60 m 381 288 l 810 288 l 592 560 l 381 288 m 1344 -311 q 1231 -307 1289 -311 q 1126 -290 1174 -303 q 1050 -252 1079 -276 q 1021 -186 1021 -228 q 1061 -97 1021 -135 q 1169 -32 1101 -58 q 1322 10 1238 -6 q 1494 31 1406 25 l 1494 8 q 1358 -48 1403 -6 q 1313 -147 1313 -90 q 1344 -222 1313 -199 q 1421 -244 1376 -244 q 1497 -226 1458 -244 q 1568 -178 1536 -208 q 1614 -111 1600 -147 l 1668 -111 l 1668 -262 q 1529 -297 1615 -282 q 1344 -311 1443 -311 m 1218 -279 l 1221 -272 q 1169 -228 1192 -260 q 1146 -165 1146 -196 q 1208 -61 1146 -97 l 1204 -54 q 1113 -101 1150 -71 q 1076 -172 1076 -131 q 1113 -241 1076 -211 q 1218 -279 1150 -271 z "},"å":{"ha":1650,"x_min":-19,"x_max":1668,"o":"m -19 0 l -19 60 q 78 74 38 60 q 147 107 119 89 q 187 140 174 125 q 200 154 200 154 l 553 606 l 514 654 q 483 687 499 674 q 443 708 468 700 q 371 715 418 715 l 274 715 l 274 775 l 956 775 l 1531 60 l 1668 60 l 1668 0 l 774 0 l 774 60 l 865 60 q 912 72 893 60 q 931 106 931 83 q 899 176 931 136 l 856 231 l 336 231 q 304 136 304 176 q 328 80 304 100 q 389 60 353 60 l 503 60 l 503 0 l -19 0 m 1117 60 l 1200 60 l 672 715 l 588 715 l 1117 60 m 381 288 l 810 288 l 592 560 l 381 288 m 683 800 q 574 824 624 800 q 495 890 525 849 q 465 981 465 931 q 495 1072 465 1031 q 574 1139 525 1114 q 683 1164 624 1164 q 794 1139 744 1164 q 874 1072 844 1114 q 904 981 904 1031 q 874 890 904 931 q 794 824 844 849 q 683 800 744 800 m 683 843 q 731 883 711 843 q 750 981 750 924 q 731 1078 750 1038 q 683 1118 711 1118 q 637 1078 657 1118 q 617 981 617 1038 q 637 883 617 924 q 683 843 657 843 m 604 851 l 608 856 q 577 911 589 879 q 565 981 565 943 q 608 1106 565 1056 l 604 1110 q 536 1056 563 1092 q 510 981 510 1021 q 536 906 510 942 q 604 851 563 871 z "},"ǻ":{"ha":1650,"x_min":-19,"x_max":1668,"o":"m 676 800 q 567 822 617 800 q 488 883 518 844 q 458 967 458 921 q 483 1051 458 1019 q 547 1102 508 1082 q 629 1142 586 1122 q 708 1190 672 1161 q 763 1265 744 1218 l 1036 1265 q 1009 1211 1032 1246 q 938 1144 986 1176 q 807 1103 889 1113 q 872 1044 847 1079 q 897 967 897 1008 q 867 883 897 921 q 788 822 838 844 q 676 800 738 800 m 668 1117 q 784 1140 739 1121 q 856 1185 829 1160 q 893 1226 882 1210 l 804 1226 q 766 1180 792 1201 q 713 1144 740 1158 q 664 1122 685 1129 l 668 1117 m 676 843 q 724 879 704 843 q 743 967 743 915 q 724 1054 743 1018 q 676 1090 704 1090 q 630 1054 650 1090 q 610 967 610 1018 q 630 879 610 915 q 676 843 650 843 m 597 851 l 601 856 q 570 905 582 876 q 558 967 558 933 q 570 1030 558 1000 q 601 1082 582 1060 l 597 1086 q 529 1035 556 1068 q 503 967 503 1003 q 529 900 503 932 q 597 851 556 868 m -19 0 l -19 60 q 78 74 38 60 q 147 107 119 89 q 187 140 174 125 q 200 154 200 154 l 553 606 l 514 654 q 483 687 499 674 q 443 708 468 700 q 371 715 418 715 l 274 715 l 274 775 l 956 775 l 1531 60 l 1668 60 l 1668 0 l 774 0 l 774 60 l 865 60 q 912 72 893 60 q 931 106 931 83 q 899 176 931 136 l 856 231 l 336 231 q 304 136 304 176 q 328 80 304 100 q 389 60 353 60 l 503 60 l 503 0 l -19 0 m 1117 60 l 1200 60 l 672 715 l 588 715 l 1117 60 m 381 288 l 810 288 l 592 560 l 381 288 z "},"ã":{"ha":1650,"x_min":-19,"x_max":1668,"o":"m -19 0 l -19 60 q 78 74 38 60 q 147 107 119 89 q 187 140 174 125 q 200 154 200 154 l 553 606 l 514 654 q 483 687 499 674 q 443 708 468 700 q 371 715 418 715 l 274 715 l 274 775 l 956 775 l 1531 60 l 1668 60 l 1668 0 l 774 0 l 774 60 l 865 60 q 912 72 893 60 q 931 106 931 83 q 899 176 931 136 l 856 231 l 336 231 q 304 136 304 176 q 328 80 304 100 q 389 60 353 60 l 503 60 l 503 0 l -19 0 m 1117 60 l 1200 60 l 672 715 l 588 715 l 1117 60 m 381 288 l 810 288 l 592 560 l 381 288 m 835 851 q 694 862 753 851 q 587 885 636 872 q 486 909 538 899 q 367 919 435 919 q 313 906 336 919 q 281 868 290 892 l 242 868 q 265 932 244 894 q 324 1006 285 969 q 421 1068 363 1043 q 556 1093 479 1093 q 688 1085 633 1093 q 788 1068 743 1078 q 875 1051 832 1058 q 974 1043 918 1043 q 1044 1056 1019 1043 q 1082 1092 1068 1069 l 1128 1092 q 1106 1024 1125 1064 q 1051 944 1088 983 q 961 878 1015 904 q 835 851 907 851 m 844 899 q 944 916 893 899 q 1029 963 994 933 l 1026 968 q 956 953 997 958 q 883 947 914 947 q 746 956 803 947 q 644 978 689 965 q 554 999 599 990 q 453 1008 510 1008 q 388 996 414 1008 q 342 967 361 983 l 346 961 q 376 966 361 964 q 404 968 390 968 q 527 951 463 968 q 669 916 592 933 q 844 899 747 899 z "},"æ":{"ha":2165,"x_min":-19,"x_max":2054,"o":"m -19 0 l -19 60 q 78 74 38 60 q 147 107 119 89 q 187 140 174 125 q 200 154 200 154 l 553 606 l 514 654 q 483 687 499 674 q 443 708 468 700 q 371 715 418 715 l 274 715 l 274 775 l 2054 775 l 2054 497 l 2014 497 q 1909 599 1976 549 q 1738 682 1842 649 q 1489 715 1635 715 q 1395 684 1429 715 q 1361 604 1361 653 l 1361 549 q 1381 480 1361 513 q 1460 447 1400 447 q 1569 467 1511 447 q 1676 522 1628 488 q 1743 597 1724 557 l 1794 597 l 1794 231 l 1743 231 q 1676 306 1724 275 q 1569 353 1628 338 q 1460 369 1511 369 q 1381 338 1400 369 q 1361 268 1361 306 l 1361 175 q 1382 92 1361 124 q 1456 60 1403 60 l 1563 60 q 1721 76 1639 60 q 1879 135 1803 92 q 2014 258 1956 178 l 2054 258 l 2054 0 l 622 0 l 622 60 l 768 60 q 856 87 821 60 q 892 182 892 114 l 892 376 l 449 376 l 336 231 q 311 181 318 207 q 304 136 304 156 q 328 80 304 100 q 389 60 353 60 l 503 60 l 503 0 l -19 0 m 768 715 l 713 715 l 499 440 l 892 440 l 892 592 q 856 678 892 642 q 768 715 821 715 m 978 60 l 1049 60 l 1049 715 l 978 715 l 978 60 z "},"ǽ":{"ha":2165,"x_min":-19,"x_max":2054,"o":"m -19 0 l -19 60 q 78 74 38 60 q 147 107 119 89 q 187 140 174 125 q 200 154 200 154 l 553 606 l 514 654 q 483 687 499 674 q 443 708 468 700 q 371 715 418 715 l 274 715 l 274 775 l 2054 775 l 2054 497 l 2014 497 q 1909 599 1976 549 q 1738 682 1842 649 q 1489 715 1635 715 q 1395 684 1429 715 q 1361 604 1361 653 l 1361 549 q 1381 480 1361 513 q 1460 447 1400 447 q 1569 467 1511 447 q 1676 522 1628 488 q 1743 597 1724 557 l 1794 597 l 1794 231 l 1743 231 q 1676 306 1724 275 q 1569 353 1628 338 q 1460 369 1511 369 q 1381 338 1400 369 q 1361 268 1361 306 l 1361 175 q 1382 92 1361 124 q 1456 60 1403 60 l 1563 60 q 1721 76 1639 60 q 1879 135 1803 92 q 2014 258 1956 178 l 2054 258 l 2054 0 l 622 0 l 622 60 l 768 60 q 856 87 821 60 q 892 182 892 114 l 892 376 l 449 376 l 336 231 q 311 181 318 207 q 304 136 304 156 q 328 80 304 100 q 389 60 353 60 l 503 60 l 503 0 l -19 0 m 768 715 l 713 715 l 499 440 l 892 440 l 892 592 q 856 678 892 642 q 768 715 821 715 m 978 60 l 1049 60 l 1049 715 l 978 715 l 978 60 m 850 867 l 850 917 q 1025 935 958 917 q 1133 987 1092 953 q 1210 1069 1175 1021 l 1614 1069 q 1606 1048 1614 1069 q 1576 996 1597 1026 q 1514 936 1554 965 q 1408 892 1474 907 q 1305 877 1368 882 q 1172 870 1242 872 q 1036 867 1101 868 q 925 867 971 867 l 850 867 m 1125 921 q 1244 944 1197 925 q 1317 989 1290 964 q 1354 1031 1343 1014 l 1265 1031 q 1228 984 1253 1006 q 1174 948 1203 963 q 1125 926 1146 933 l 1125 921 z "},"b":{"ha":1744,"x_min":101,"x_max":1701,"o":"m 101 0 l 101 60 l 247 60 q 335 87 299 60 q 371 182 371 114 l 371 590 q 335 678 371 640 q 247 715 299 715 l 101 715 l 101 775 l 1217 775 q 1378 770 1303 775 q 1510 748 1453 765 q 1599 694 1567 731 q 1631 594 1631 657 q 1603 502 1631 539 q 1539 445 1575 465 q 1479 417 1503 425 l 1479 411 q 1540 394 1503 407 q 1614 359 1576 382 q 1676 300 1651 336 q 1701 211 1701 264 q 1665 106 1701 147 q 1570 42 1628 65 q 1449 9 1513 18 q 1335 0 1386 0 l 101 0 m 458 60 l 528 60 l 528 715 l 458 715 l 458 60 m 840 435 l 1021 435 q 1090 449 1056 435 q 1149 495 1125 464 q 1172 575 1172 526 q 1121 679 1172 643 q 975 715 1069 715 q 876 685 913 715 q 840 603 840 654 l 840 435 m 1236 431 q 1319 489 1285 450 q 1353 568 1353 528 q 1319 647 1353 608 q 1236 704 1285 686 l 1231 700 q 1263 638 1250 672 q 1276 568 1276 604 q 1263 499 1276 533 q 1231 436 1250 464 l 1236 431 m 1267 56 q 1363 124 1326 79 q 1399 221 1399 169 q 1363 318 1399 272 q 1267 386 1326 364 l 1263 381 q 1307 308 1290 350 q 1324 221 1324 267 q 1307 133 1324 175 q 1263 61 1290 92 l 1267 56 m 935 60 l 1043 60 q 1122 74 1082 60 q 1190 123 1163 88 q 1218 221 1218 158 q 1163 344 1218 307 q 1031 382 1108 382 l 840 382 l 840 176 q 861 92 840 125 q 935 60 882 60 z "},"c":{"ha":1310,"x_min":31,"x_max":1292,"o":"m 793 -31 q 503 -6 640 -31 q 259 69 365 18 q 92 199 153 119 q 31 390 31 279 q 73 549 31 481 q 189 666 115 617 q 356 746 263 715 q 551 791 449 776 q 751 806 653 806 q 976 779 869 806 q 1172 721 1083 753 l 1172 776 l 1238 776 l 1238 488 l 1175 488 q 1110 560 1154 517 q 1008 647 1067 604 q 883 717 950 689 q 746 746 815 746 q 608 697 644 746 q 571 576 571 649 l 571 250 q 621 79 571 132 q 797 26 671 26 q 985 48 906 26 q 1121 99 1065 69 q 1210 149 1176 128 q 1260 171 1244 171 q 1280 165 1268 171 q 1292 143 1292 160 q 1259 100 1292 125 q 1167 44 1226 75 q 1018 -8 1107 15 q 793 -31 929 -31 m 399 58 l 401 64 q 247 197 311 115 q 183 388 183 279 q 247 579 183 497 q 401 713 311 661 l 399 718 q 254 637 321 686 q 147 524 188 588 q 107 388 107 461 q 147 252 107 315 q 254 140 188 189 q 399 58 321 90 z "},"ć":{"ha":1310,"x_min":31,"x_max":1292,"o":"m 793 -31 q 503 -6 640 -31 q 259 69 365 18 q 92 199 153 119 q 31 390 31 279 q 73 549 31 481 q 189 666 115 617 q 356 746 263 715 q 551 791 449 776 q 751 806 653 806 q 976 779 869 806 q 1172 721 1083 753 l 1172 776 l 1238 776 l 1238 488 l 1175 488 q 1110 560 1154 517 q 1008 647 1067 604 q 883 717 950 689 q 746 746 815 746 q 608 697 644 746 q 571 576 571 649 l 571 250 q 621 79 571 132 q 797 26 671 26 q 985 48 906 26 q 1121 99 1065 69 q 1210 149 1176 128 q 1260 171 1244 171 q 1280 165 1268 171 q 1292 143 1292 160 q 1259 100 1292 125 q 1167 44 1226 75 q 1018 -8 1107 15 q 793 -31 929 -31 m 399 58 l 401 64 q 247 197 311 115 q 183 388 183 279 q 247 579 183 497 q 401 713 311 661 l 399 718 q 254 637 321 686 q 147 524 188 588 q 107 388 107 461 q 147 252 107 315 q 254 140 188 189 q 399 58 321 90 m 357 867 l 357 917 q 532 935 465 917 q 640 987 599 953 q 717 1069 682 1021 l 1121 1069 q 1113 1048 1121 1069 q 1083 996 1104 1026 q 1021 936 1061 965 q 915 892 981 907 q 812 877 875 882 q 678 870 749 872 q 543 867 608 868 q 432 867 478 867 l 357 867 m 632 921 q 751 944 704 925 q 824 989 797 964 q 861 1031 850 1014 l 772 1031 q 735 984 760 1006 q 681 948 710 963 q 632 926 653 933 l 632 921 z "},"č":{"ha":1310,"x_min":31,"x_max":1292,"o":"m 793 -31 q 503 -6 640 -31 q 259 69 365 18 q 92 199 153 119 q 31 390 31 279 q 73 549 31 481 q 189 666 115 617 q 356 746 263 715 q 551 791 449 776 q 751 806 653 806 q 976 779 869 806 q 1172 721 1083 753 l 1172 776 l 1238 776 l 1238 488 l 1175 488 q 1110 560 1154 517 q 1008 647 1067 604 q 883 717 950 689 q 746 746 815 746 q 608 697 644 746 q 571 576 571 649 l 571 250 q 621 79 571 132 q 797 26 671 26 q 985 48 906 26 q 1121 99 1065 69 q 1210 149 1176 128 q 1260 171 1244 171 q 1280 165 1268 171 q 1292 143 1292 160 q 1259 100 1292 125 q 1167 44 1226 75 q 1018 -8 1107 15 q 793 -31 929 -31 m 399 58 l 401 64 q 247 197 311 115 q 183 388 183 279 q 247 579 183 497 q 401 713 311 661 l 399 718 q 254 637 321 686 q 147 524 188 588 q 107 388 107 461 q 147 252 107 315 q 254 140 188 189 q 399 58 321 90 m 514 867 l 328 1069 l 740 1069 l 885 914 l 1028 1069 l 1149 1069 l 964 867 l 514 867 m 586 901 l 672 901 l 568 1017 l 482 1017 l 586 901 z "},"ç":{"ha":1310,"x_min":31,"x_max":1292,"o":"m 793 -31 q 503 -6 640 -31 q 259 69 365 18 q 92 199 153 119 q 31 390 31 279 q 73 549 31 481 q 189 666 115 617 q 356 746 263 715 q 551 791 449 776 q 751 806 653 806 q 976 779 869 806 q 1172 721 1083 753 l 1172 776 l 1238 776 l 1238 488 l 1175 488 q 1110 560 1154 517 q 1008 647 1067 604 q 883 717 950 689 q 746 746 815 746 q 608 697 644 746 q 571 576 571 649 l 571 250 q 621 79 571 132 q 797 26 671 26 q 985 48 906 26 q 1121 99 1065 69 q 1210 149 1176 128 q 1260 171 1244 171 q 1280 165 1268 171 q 1292 143 1292 160 q 1259 100 1292 125 q 1167 44 1226 75 q 1018 -8 1107 15 q 793 -31 929 -31 m 399 58 l 401 64 q 247 197 311 115 q 183 388 183 279 q 247 579 183 497 q 401 713 311 661 l 399 718 q 254 637 321 686 q 147 524 188 588 q 107 388 107 461 q 147 252 107 315 q 254 140 188 189 q 399 58 321 90 m 656 -310 q 471 -295 557 -310 q 332 -261 385 -281 l 332 -110 l 386 -110 q 433 -176 401 -146 q 503 -225 464 -207 q 579 -243 543 -243 q 656 -220 624 -243 q 688 -146 688 -197 q 506 0 688 -26 l 506 22 q 678 9 594 22 q 831 -31 763 -4 q 939 -95 899 -57 q 979 -185 979 -133 q 950 -251 979 -226 q 874 -288 921 -275 q 769 -306 826 -301 q 656 -310 713 -310 m 713 -261 q 770 -238 740 -254 q 820 -199 800 -222 q 840 -149 840 -175 q 803 -78 840 -104 q 713 -33 767 -51 l 707 -42 q 771 -149 771 -81 q 754 -209 771 -179 q 708 -253 738 -239 l 713 -261 z "},"ĉ":{"ha":1310,"x_min":31,"x_max":1292,"o":"m 793 -31 q 503 -6 640 -31 q 259 69 365 18 q 92 199 153 119 q 31 390 31 279 q 73 549 31 481 q 189 666 115 617 q 356 746 263 715 q 551 791 449 776 q 751 806 653 806 q 976 779 869 806 q 1172 721 1083 753 l 1172 776 l 1238 776 l 1238 488 l 1175 488 q 1110 560 1154 517 q 1008 647 1067 604 q 883 717 950 689 q 746 746 815 746 q 608 697 644 746 q 571 576 571 649 l 571 250 q 621 79 571 132 q 797 26 671 26 q 985 48 906 26 q 1121 99 1065 69 q 1210 149 1176 128 q 1260 171 1244 171 q 1280 165 1268 171 q 1292 143 1292 160 q 1259 100 1292 125 q 1167 44 1226 75 q 1018 -8 1107 15 q 793 -31 929 -31 m 399 58 l 401 64 q 247 197 311 115 q 183 388 183 279 q 247 579 183 497 q 401 713 311 661 l 399 718 q 254 637 321 686 q 147 524 188 588 q 107 388 107 461 q 147 252 107 315 q 254 140 188 189 q 399 58 321 90 m 328 867 l 514 1069 l 964 1069 l 1149 867 l 1028 867 l 885 1022 l 740 867 l 328 867 m 482 919 l 568 919 l 672 1035 l 586 1035 l 482 919 z "},"ċ":{"ha":1310,"x_min":31,"x_max":1292,"o":"m 793 -31 q 503 -6 640 -31 q 259 69 365 18 q 92 199 153 119 q 31 390 31 279 q 73 549 31 481 q 189 666 115 617 q 356 746 263 715 q 551 791 449 776 q 751 806 653 806 q 976 779 869 806 q 1172 721 1083 753 l 1172 776 l 1238 776 l 1238 488 l 1175 488 q 1110 560 1154 517 q 1008 647 1067 604 q 883 717 950 689 q 746 746 815 746 q 608 697 644 746 q 571 576 571 649 l 571 250 q 621 79 571 132 q 797 26 671 26 q 985 48 906 26 q 1121 99 1065 69 q 1210 149 1176 128 q 1260 171 1244 171 q 1280 165 1268 171 q 1292 143 1292 160 q 1259 100 1292 125 q 1167 44 1226 75 q 1018 -8 1107 15 q 793 -31 929 -31 m 399 58 l 401 64 q 247 197 311 115 q 183 388 183 279 q 247 579 183 497 q 401 713 311 661 l 399 718 q 254 637 321 686 q 147 524 188 588 q 107 388 107 461 q 147 252 107 315 q 254 140 188 189 q 399 58 321 90 m 738 824 q 643 844 686 824 q 574 901 600 865 q 549 981 549 938 q 574 1061 549 1025 q 643 1119 600 1097 q 738 1140 686 1140 q 835 1119 792 1140 q 903 1061 878 1097 q 929 981 929 1025 q 903 901 929 938 q 835 844 878 865 q 738 824 792 824 m 669 868 l 672 872 q 645 920 656 892 q 635 981 635 949 q 645 1041 635 1013 q 672 1089 656 1069 l 669 1093 q 610 1046 633 1076 q 586 981 586 1015 q 610 915 586 946 q 669 868 633 885 z "},"d":{"ha":1761,"x_min":97,"x_max":1731,"o":"m 97 0 l 97 60 l 243 60 q 331 88 294 60 q 368 183 368 115 l 368 592 q 331 678 368 642 q 243 715 294 715 l 97 715 l 97 775 l 1003 775 q 1269 755 1139 775 q 1503 691 1399 735 q 1669 576 1607 647 q 1731 403 1731 506 q 1688 233 1731 303 q 1576 117 1646 163 q 1424 46 1507 71 q 1258 10 1340 21 q 1110 0 1176 0 l 97 0 m 456 58 l 524 58 l 524 715 l 456 715 l 456 58 m 931 60 l 1038 60 q 1151 107 1110 60 q 1212 229 1193 154 q 1231 386 1231 304 q 1208 553 1231 479 q 1128 672 1185 628 q 971 715 1071 715 q 871 685 907 715 q 835 604 835 654 l 835 175 q 856 92 835 124 q 931 60 876 60 m 1250 68 q 1384 203 1338 117 q 1431 386 1431 289 q 1384 569 1431 483 q 1250 704 1338 656 l 1244 700 q 1318 555 1293 638 q 1343 386 1343 472 q 1318 217 1343 300 q 1244 72 1293 135 l 1250 68 z "},"ð":{"ha":1589,"x_min":31,"x_max":1575,"o":"m 794 -31 q 498 -1 636 -31 q 255 78 360 28 q 90 197 150 129 q 31 340 31 264 q 84 484 31 417 q 238 603 138 551 q 478 685 338 656 q 794 715 619 715 q 915 710 857 715 q 1028 694 974 704 q 1022 771 1028 733 q 1003 842 1017 808 l 825 811 l 825 894 l 951 915 q 873 963 921 946 q 758 981 825 981 q 633 961 694 981 q 516 913 571 942 q 419 854 461 883 q 353 806 376 825 q 329 786 329 786 l 281 786 l 281 1006 l 329 1006 l 329 954 q 571 1015 444 990 q 851 1040 697 1040 q 1042 1023 949 1040 q 1219 969 1136 1006 l 1575 1040 l 1575 957 l 1329 908 q 1477 741 1421 842 q 1533 500 1533 640 q 1490 306 1533 400 q 1355 135 1446 211 q 1125 15 1264 60 q 794 -31 986 -31 m 1069 81 q 1184 266 1142 158 q 1226 500 1226 374 q 1185 734 1226 626 q 1071 918 1143 842 l 1065 913 q 1113 715 1096 819 q 1131 500 1131 611 q 1113 285 1131 389 q 1064 86 1096 182 l 1069 81 m 794 29 q 978 108 913 29 q 1043 339 1043 186 q 1022 512 1043 442 q 947 618 1000 582 q 794 654 893 654 q 643 618 697 654 q 567 512 589 582 q 546 339 546 442 q 611 108 546 186 q 794 29 676 29 m 533 31 l 536 40 q 353 107 433 64 q 226 210 272 150 q 181 340 181 269 q 226 472 181 413 q 353 575 272 532 q 538 642 433 618 l 535 649 q 303 581 404 625 q 144 476 201 536 q 86 340 86 415 q 144 205 86 267 q 302 99 201 143 q 533 31 403 56 z "},"ď":{"ha":1761,"x_min":97,"x_max":1731,"o":"m 97 0 l 97 60 l 243 60 q 331 88 294 60 q 368 183 368 115 l 368 592 q 331 678 368 642 q 243 715 294 715 l 97 715 l 97 775 l 1003 775 q 1269 755 1139 775 q 1503 691 1399 735 q 1669 576 1607 647 q 1731 403 1731 506 q 1688 233 1731 303 q 1576 117 1646 163 q 1424 46 1507 71 q 1258 10 1340 21 q 1110 0 1176 0 l 97 0 m 456 58 l 524 58 l 524 715 l 456 715 l 456 58 m 931 60 l 1038 60 q 1151 107 1110 60 q 1212 229 1193 154 q 1231 386 1231 304 q 1208 553 1231 479 q 1128 672 1185 628 q 971 715 1071 715 q 871 685 907 715 q 835 604 835 654 l 835 175 q 856 92 835 124 q 931 60 876 60 m 1250 68 q 1384 203 1338 117 q 1431 386 1431 289 q 1384 569 1431 483 q 1250 704 1338 656 l 1244 700 q 1318 555 1293 638 q 1343 386 1343 472 q 1318 217 1343 300 q 1244 72 1293 135 l 1250 68 m 656 867 l 469 1069 l 882 1069 l 1026 914 l 1169 1069 l 1290 1069 l 1106 867 l 656 867 m 728 901 l 814 901 l 710 1017 l 624 1017 l 728 901 z "},"đ":{"ha":1761,"x_min":97,"x_max":1731,"o":"m 97 0 l 97 60 l 243 60 q 331 88 294 60 q 368 183 368 115 l 368 332 l 188 332 l 188 443 l 368 443 l 368 592 q 331 678 368 642 q 243 715 294 715 l 97 715 l 97 775 l 1003 775 q 1269 755 1139 775 q 1503 691 1399 735 q 1669 576 1607 647 q 1731 403 1731 506 q 1688 233 1731 303 q 1576 117 1646 163 q 1424 46 1507 71 q 1258 10 1340 21 q 1110 0 1176 0 l 97 0 m 456 58 l 524 58 l 524 715 l 456 715 l 456 58 m 931 60 l 1038 60 q 1151 107 1110 60 q 1212 229 1193 154 q 1231 386 1231 304 q 1208 553 1231 479 q 1128 672 1185 628 q 971 715 1071 715 q 871 685 907 715 q 835 604 835 654 l 835 443 l 1060 443 l 1060 332 l 835 332 l 835 175 q 856 92 835 124 q 931 60 876 60 m 1250 68 q 1384 203 1338 117 q 1431 386 1431 289 q 1384 569 1431 483 q 1250 704 1338 656 l 1244 700 q 1318 555 1293 638 q 1343 386 1343 472 q 1318 217 1343 300 q 1244 72 1293 135 l 1250 68 z "},"e":{"ha":1644,"x_min":101,"x_max":1533,"o":"m 101 0 l 101 60 l 247 60 q 335 87 300 60 q 371 182 371 114 l 371 592 q 335 678 371 642 q 247 715 300 715 l 101 715 l 101 775 l 1533 775 l 1533 497 l 1493 497 q 1388 599 1456 549 q 1217 682 1321 649 q 968 715 1114 715 q 874 684 908 715 q 840 604 840 653 l 840 549 q 860 480 840 513 q 939 447 879 447 q 1049 467 990 447 q 1155 522 1107 488 q 1222 597 1203 557 l 1274 597 l 1274 231 l 1222 231 q 1155 306 1203 275 q 1049 353 1107 338 q 939 369 990 369 q 860 338 879 369 q 840 268 840 306 l 840 175 q 861 92 840 124 q 935 60 882 60 l 1042 60 q 1200 76 1118 60 q 1358 135 1282 92 q 1493 258 1435 178 l 1533 258 l 1533 0 l 101 0 m 457 60 l 528 60 l 528 715 l 457 715 l 457 60 z "},"é":{"ha":1644,"x_min":101,"x_max":1533,"o":"m 101 0 l 101 60 l 247 60 q 335 87 300 60 q 371 182 371 114 l 371 592 q 335 678 371 642 q 247 715 300 715 l 101 715 l 101 775 l 1533 775 l 1533 497 l 1493 497 q 1388 599 1456 549 q 1217 682 1321 649 q 968 715 1114 715 q 874 684 908 715 q 840 604 840 653 l 840 549 q 860 480 840 513 q 939 447 879 447 q 1049 467 990 447 q 1155 522 1107 488 q 1222 597 1203 557 l 1274 597 l 1274 231 l 1222 231 q 1155 306 1203 275 q 1049 353 1107 338 q 939 369 990 369 q 860 338 879 369 q 840 268 840 306 l 840 175 q 861 92 840 124 q 935 60 882 60 l 1042 60 q 1200 76 1118 60 q 1358 135 1282 92 q 1493 258 1435 178 l 1533 258 l 1533 0 l 101 0 m 457 60 l 528 60 l 528 715 l 457 715 l 457 60 m 532 867 l 532 917 q 707 935 640 917 q 815 987 774 953 q 892 1069 857 1021 l 1296 1069 q 1288 1048 1296 1069 q 1258 996 1279 1026 q 1196 936 1236 965 q 1090 892 1156 907 q 987 877 1050 882 q 853 870 924 872 q 718 867 783 868 q 607 867 653 867 l 532 867 m 807 921 q 926 944 879 925 q 999 989 972 964 q 1036 1031 1025 1014 l 947 1031 q 910 984 935 1006 q 856 948 885 963 q 807 926 828 933 l 807 921 z "},"ĕ":{"ha":1644,"x_min":101,"x_max":1533,"o":"m 101 0 l 101 60 l 247 60 q 335 87 300 60 q 371 182 371 114 l 371 592 q 335 678 371 642 q 247 715 300 715 l 101 715 l 101 775 l 1533 775 l 1533 497 l 1493 497 q 1388 599 1456 549 q 1217 682 1321 649 q 968 715 1114 715 q 874 684 908 715 q 840 604 840 653 l 840 549 q 860 480 840 513 q 939 447 879 447 q 1049 467 990 447 q 1155 522 1107 488 q 1222 597 1203 557 l 1274 597 l 1274 231 l 1222 231 q 1155 306 1203 275 q 1049 353 1107 338 q 939 369 990 369 q 860 338 879 369 q 840 268 840 306 l 840 175 q 861 92 840 124 q 935 60 882 60 l 1042 60 q 1200 76 1118 60 q 1358 135 1282 92 q 1493 258 1435 178 l 1533 258 l 1533 0 l 101 0 m 457 60 l 528 60 l 528 715 l 457 715 l 457 60 m 915 821 q 779 856 842 821 q 680 952 717 892 q 643 1085 643 1013 l 672 1093 q 773 1033 715 1058 q 915 1008 831 1008 q 1058 1033 1001 1008 q 1157 1093 1115 1058 l 1185 1085 q 1149 952 1185 1013 q 1052 856 1113 892 q 915 821 992 821 m 915 865 q 1028 895 976 865 q 1108 975 1081 925 l 1101 979 q 1020 938 1068 954 q 915 921 972 921 q 813 938 863 921 q 731 979 764 954 l 724 975 q 803 895 751 925 q 915 865 856 865 z "},"ě":{"ha":1644,"x_min":101,"x_max":1533,"o":"m 101 0 l 101 60 l 247 60 q 335 87 300 60 q 371 182 371 114 l 371 592 q 335 678 371 642 q 247 715 300 715 l 101 715 l 101 775 l 1533 775 l 1533 497 l 1493 497 q 1388 599 1456 549 q 1217 682 1321 649 q 968 715 1114 715 q 874 684 908 715 q 840 604 840 653 l 840 549 q 860 480 840 513 q 939 447 879 447 q 1049 467 990 447 q 1155 522 1107 488 q 1222 597 1203 557 l 1274 597 l 1274 231 l 1222 231 q 1155 306 1203 275 q 1049 353 1107 338 q 939 369 990 369 q 860 338 879 369 q 840 268 840 306 l 840 175 q 861 92 840 124 q 935 60 882 60 l 1042 60 q 1200 76 1118 60 q 1358 135 1282 92 q 1493 258 1435 178 l 1533 258 l 1533 0 l 101 0 m 457 60 l 528 60 l 528 715 l 457 715 l 457 60 m 689 867 l 503 1069 l 915 1069 l 1060 914 l 1203 1069 l 1324 1069 l 1139 867 l 689 867 m 761 901 l 847 901 l 743 1017 l 657 1017 l 761 901 z "},"ê":{"ha":1644,"x_min":101,"x_max":1533,"o":"m 101 0 l 101 60 l 247 60 q 335 87 300 60 q 371 182 371 114 l 371 592 q 335 678 371 642 q 247 715 300 715 l 101 715 l 101 775 l 1533 775 l 1533 497 l 1493 497 q 1388 599 1456 549 q 1217 682 1321 649 q 968 715 1114 715 q 874 684 908 715 q 840 604 840 653 l 840 549 q 860 480 840 513 q 939 447 879 447 q 1049 467 990 447 q 1155 522 1107 488 q 1222 597 1203 557 l 1274 597 l 1274 231 l 1222 231 q 1155 306 1203 275 q 1049 353 1107 338 q 939 369 990 369 q 860 338 879 369 q 840 268 840 306 l 840 175 q 861 92 840 124 q 935 60 882 60 l 1042 60 q 1200 76 1118 60 q 1358 135 1282 92 q 1493 258 1435 178 l 1533 258 l 1533 0 l 101 0 m 457 60 l 528 60 l 528 715 l 457 715 l 457 60 m 503 867 l 689 1069 l 1139 1069 l 1324 867 l 1203 867 l 1060 1022 l 915 867 l 503 867 m 657 919 l 743 919 l 847 1035 l 761 1035 l 657 919 z "},"ë":{"ha":1644,"x_min":101,"x_max":1533,"o":"m 101 0 l 101 60 l 247 60 q 335 87 300 60 q 371 182 371 114 l 371 592 q 335 678 371 642 q 247 715 300 715 l 101 715 l 101 775 l 1533 775 l 1533 497 l 1493 497 q 1388 599 1456 549 q 1217 682 1321 649 q 968 715 1114 715 q 874 684 908 715 q 840 604 840 653 l 840 549 q 860 480 840 513 q 939 447 879 447 q 1049 467 990 447 q 1155 522 1107 488 q 1222 597 1203 557 l 1274 597 l 1274 231 l 1222 231 q 1155 306 1203 275 q 1049 353 1107 338 q 939 369 990 369 q 860 338 879 369 q 840 268 840 306 l 840 175 q 861 92 840 124 q 935 60 882 60 l 1042 60 q 1200 76 1118 60 q 1358 135 1282 92 q 1493 258 1435 178 l 1533 258 l 1533 0 l 101 0 m 457 60 l 528 60 l 528 715 l 457 715 l 457 60 m 1229 824 q 1135 844 1178 824 q 1066 901 1092 865 q 1040 981 1040 938 q 1066 1061 1040 1025 q 1135 1119 1092 1097 q 1229 1140 1178 1140 q 1326 1119 1283 1140 q 1395 1061 1369 1097 q 1421 981 1421 1025 q 1395 901 1421 938 q 1326 844 1369 865 q 1229 824 1283 824 m 596 824 q 501 844 544 824 q 433 901 458 865 q 407 981 407 938 q 433 1061 407 1025 q 501 1119 458 1097 q 596 1140 544 1140 q 693 1119 650 1140 q 762 1061 736 1097 q 788 981 788 1025 q 762 901 788 938 q 693 844 736 865 q 596 824 650 824 m 554 856 l 558 860 q 527 913 539 882 q 515 981 515 943 q 527 1049 515 1018 q 558 1101 539 1079 l 554 1106 q 485 1054 513 1088 q 458 981 458 1021 q 485 908 458 942 q 554 856 513 874 m 1188 856 l 1192 860 q 1160 913 1172 882 q 1149 981 1149 943 q 1160 1049 1149 1018 q 1192 1101 1172 1079 l 1188 1106 q 1119 1054 1146 1088 q 1092 981 1092 1021 q 1119 908 1092 942 q 1188 856 1146 874 z "},"ė":{"ha":1644,"x_min":101,"x_max":1533,"o":"m 101 0 l 101 60 l 247 60 q 335 87 300 60 q 371 182 371 114 l 371 592 q 335 678 371 642 q 247 715 300 715 l 101 715 l 101 775 l 1533 775 l 1533 497 l 1493 497 q 1388 599 1456 549 q 1217 682 1321 649 q 968 715 1114 715 q 874 684 908 715 q 840 604 840 653 l 840 549 q 860 480 840 513 q 939 447 879 447 q 1049 467 990 447 q 1155 522 1107 488 q 1222 597 1203 557 l 1274 597 l 1274 231 l 1222 231 q 1155 306 1203 275 q 1049 353 1107 338 q 939 369 990 369 q 860 338 879 369 q 840 268 840 306 l 840 175 q 861 92 840 124 q 935 60 882 60 l 1042 60 q 1200 76 1118 60 q 1358 135 1282 92 q 1493 258 1435 178 l 1533 258 l 1533 0 l 101 0 m 457 60 l 528 60 l 528 715 l 457 715 l 457 60 m 913 824 q 818 844 861 824 q 749 901 775 865 q 724 981 724 938 q 749 1061 724 1025 q 818 1119 775 1097 q 913 1140 861 1140 q 1010 1119 967 1140 q 1078 1061 1053 1097 q 1104 981 1104 1025 q 1078 901 1104 938 q 1010 844 1053 865 q 913 824 967 824 m 844 868 l 847 872 q 820 920 831 892 q 810 981 810 949 q 820 1041 810 1013 q 847 1089 831 1069 l 844 1093 q 785 1046 808 1076 q 761 981 761 1015 q 785 915 761 946 q 844 868 808 885 z "},"è":{"ha":1644,"x_min":101,"x_max":1533,"o":"m 101 0 l 101 60 l 247 60 q 335 87 300 60 q 371 182 371 114 l 371 592 q 335 678 371 642 q 247 715 300 715 l 101 715 l 101 775 l 1533 775 l 1533 497 l 1493 497 q 1388 599 1456 549 q 1217 682 1321 649 q 968 715 1114 715 q 874 684 908 715 q 840 604 840 653 l 840 549 q 860 480 840 513 q 939 447 879 447 q 1049 467 990 447 q 1155 522 1107 488 q 1222 597 1203 557 l 1274 597 l 1274 231 l 1222 231 q 1155 306 1203 275 q 1049 353 1107 338 q 939 369 990 369 q 860 338 879 369 q 840 268 840 306 l 840 175 q 861 92 840 124 q 935 60 882 60 l 1042 60 q 1200 76 1118 60 q 1358 135 1282 92 q 1493 258 1435 178 l 1533 258 l 1533 0 l 101 0 m 457 60 l 528 60 l 528 715 l 457 715 l 457 60 m 1221 867 q 1110 867 1175 867 q 974 870 1044 868 q 841 877 904 872 q 738 892 778 882 q 633 936 674 907 q 570 996 592 965 q 540 1048 549 1026 q 532 1069 532 1069 l 936 1069 q 1013 987 971 1021 q 1121 935 1054 953 q 1296 917 1188 917 l 1296 867 l 1221 867 m 863 921 l 863 926 q 813 948 842 933 q 760 984 785 963 q 722 1031 735 1006 l 633 1031 q 672 989 646 1014 q 744 944 697 964 q 863 921 790 925 z "},"ē":{"ha":1644,"x_min":101,"x_max":1533,"o":"m 101 0 l 101 60 l 247 60 q 335 87 300 60 q 371 182 371 114 l 371 592 q 335 678 371 642 q 247 715 300 715 l 101 715 l 101 775 l 1533 775 l 1533 497 l 1493 497 q 1388 599 1456 549 q 1217 682 1321 649 q 968 715 1114 715 q 874 684 908 715 q 840 604 840 653 l 840 549 q 860 480 840 513 q 939 447 879 447 q 1049 467 990 447 q 1155 522 1107 488 q 1222 597 1203 557 l 1274 597 l 1274 231 l 1222 231 q 1155 306 1203 275 q 1049 353 1107 338 q 939 369 990 369 q 860 338 879 369 q 840 268 840 306 l 840 175 q 861 92 840 124 q 935 60 882 60 l 1042 60 q 1200 76 1118 60 q 1358 135 1282 92 q 1493 258 1435 178 l 1533 258 l 1533 0 l 101 0 m 457 60 l 528 60 l 528 715 l 457 715 l 457 60 m 632 875 l 632 1061 l 1194 1061 l 1194 875 l 632 875 m 717 903 l 792 903 l 792 1033 l 717 1033 l 717 903 z "},"ę":{"ha":1644,"x_min":101,"x_max":1533,"o":"m 101 0 l 101 60 l 247 60 q 335 87 300 60 q 371 182 371 114 l 371 592 q 335 678 371 642 q 247 715 300 715 l 101 715 l 101 775 l 1533 775 l 1533 497 l 1493 497 q 1388 599 1456 549 q 1217 682 1321 649 q 968 715 1114 715 q 874 684 908 715 q 840 604 840 653 l 840 549 q 860 480 840 513 q 939 447 879 447 q 1049 467 990 447 q 1155 522 1107 488 q 1222 597 1203 557 l 1274 597 l 1274 231 l 1222 231 q 1155 306 1203 275 q 1049 353 1107 338 q 939 369 990 369 q 860 338 879 369 q 840 268 840 306 l 840 175 q 861 92 840 124 q 935 60 882 60 l 1042 60 q 1200 76 1118 60 q 1358 135 1282 92 q 1493 258 1435 178 l 1533 258 l 1533 0 l 101 0 m 457 60 l 528 60 l 528 715 l 457 715 l 457 60 m 1208 -311 q 1095 -307 1153 -311 q 990 -290 1038 -303 q 914 -252 943 -276 q 885 -186 885 -228 q 925 -97 885 -135 q 1033 -32 965 -58 q 1185 10 1101 -6 q 1358 31 1269 25 l 1358 8 q 1222 -48 1267 -6 q 1176 -147 1176 -90 q 1208 -222 1176 -199 q 1285 -244 1240 -244 q 1361 -226 1322 -244 q 1432 -178 1400 -208 q 1478 -111 1464 -147 l 1532 -111 l 1532 -262 q 1393 -297 1479 -282 q 1208 -311 1307 -311 m 1082 -279 l 1085 -272 q 1033 -228 1056 -260 q 1010 -165 1010 -196 q 1072 -61 1010 -97 l 1068 -54 q 977 -101 1014 -71 q 940 -172 940 -131 q 977 -241 940 -211 q 1082 -279 1014 -271 z "},"f":{"ha":1486,"x_min":101,"x_max":1449,"o":"m 101 0 l 101 60 l 247 60 q 335 88 299 60 q 371 183 371 115 l 371 590 q 335 678 371 642 q 247 715 299 715 l 101 715 l 101 775 l 1449 775 l 1449 546 l 1411 546 q 1356 605 1388 575 q 1274 660 1324 635 q 1151 700 1225 685 q 968 715 1076 715 q 874 684 908 715 q 840 604 840 653 l 840 547 q 860 478 840 511 q 939 446 881 446 q 1069 478 1014 446 q 1153 554 1124 511 l 1203 554 l 1203 251 l 1151 251 q 1068 345 1122 321 q 939 369 1014 369 q 860 338 881 369 q 840 268 840 306 l 840 176 q 861 86 840 113 q 935 60 882 60 l 1097 60 l 1097 0 l 101 0 m 458 60 l 528 60 l 528 715 l 458 715 l 458 60 z "},"g":{"ha":1624,"x_min":31,"x_max":1668,"o":"m 793 -31 q 494 -6 633 -31 q 251 70 356 18 q 89 204 147 122 q 31 401 31 286 q 88 603 31 524 q 247 726 146 682 q 478 788 349 771 q 751 806 608 806 q 1014 788 876 806 q 1278 732 1151 769 l 1278 782 l 1343 782 l 1343 526 l 1281 526 q 1213 595 1260 557 q 1103 669 1167 633 q 966 727 1040 704 q 815 750 892 750 q 693 733 749 750 q 604 678 638 715 q 571 578 571 640 l 571 243 q 588 140 571 189 q 655 59 606 90 q 797 28 704 28 q 857 35 825 28 q 919 60 889 42 q 967 115 949 79 q 986 206 986 150 l 986 290 q 967 349 986 324 q 917 390 947 375 q 856 406 888 406 l 717 406 l 717 464 l 1668 464 l 1668 406 l 1443 406 l 1443 -6 l 1381 -6 q 1360 48 1381 26 q 1300 69 1340 69 q 1223 54 1267 69 q 1119 19 1179 39 q 979 -15 1060 0 q 793 -31 899 -31 m 336 88 l 340 94 q 231 228 268 146 q 193 399 193 310 q 231 571 193 489 q 340 704 268 653 l 336 711 q 224 640 275 683 q 142 538 172 597 q 113 399 113 478 q 142 261 113 321 q 224 158 172 201 q 336 88 275 115 m 1088 86 q 1125 135 1107 86 q 1143 253 1143 185 l 1143 404 l 1072 404 l 1072 175 q 1077 103 1072 119 q 1088 86 1082 86 z "},"ğ":{"ha":1624,"x_min":31,"x_max":1668,"o":"m 793 -31 q 494 -6 633 -31 q 251 70 356 18 q 89 204 147 122 q 31 401 31 286 q 88 603 31 524 q 247 726 146 682 q 478 788 349 771 q 751 806 608 806 q 1014 788 876 806 q 1278 732 1151 769 l 1278 782 l 1343 782 l 1343 526 l 1281 526 q 1213 595 1260 557 q 1103 669 1167 633 q 966 727 1040 704 q 815 750 892 750 q 693 733 749 750 q 604 678 638 715 q 571 578 571 640 l 571 243 q 588 140 571 189 q 655 59 606 90 q 797 28 704 28 q 857 35 825 28 q 919 60 889 42 q 967 115 949 79 q 986 206 986 150 l 986 290 q 967 349 986 324 q 917 390 947 375 q 856 406 888 406 l 717 406 l 717 464 l 1668 464 l 1668 406 l 1443 406 l 1443 -6 l 1381 -6 q 1360 48 1381 26 q 1300 69 1340 69 q 1223 54 1267 69 q 1119 19 1179 39 q 979 -15 1060 0 q 793 -31 899 -31 m 336 88 l 340 94 q 231 228 268 146 q 193 399 193 310 q 231 571 193 489 q 340 704 268 653 l 336 711 q 224 640 275 683 q 142 538 172 597 q 113 399 113 478 q 142 261 113 321 q 224 158 172 201 q 336 88 275 115 m 1088 86 q 1125 135 1107 86 q 1143 253 1143 185 l 1143 404 l 1072 404 l 1072 175 q 1077 103 1072 119 q 1088 86 1082 86 m 778 821 q 642 856 704 821 q 542 952 579 892 q 506 1085 506 1013 l 535 1093 q 635 1033 578 1058 q 778 1008 693 1008 q 921 1033 864 1008 q 1019 1093 978 1058 l 1047 1085 q 1011 952 1047 1013 q 915 856 975 892 q 778 821 854 821 m 778 865 q 891 895 839 865 q 971 975 943 925 l 964 979 q 883 938 931 954 q 778 921 835 921 q 676 938 725 921 q 593 979 626 954 l 586 975 q 666 895 614 925 q 778 865 718 865 z "},"ĝ":{"ha":1624,"x_min":31,"x_max":1668,"o":"m 793 -31 q 494 -6 633 -31 q 251 70 356 18 q 89 204 147 122 q 31 401 31 286 q 88 603 31 524 q 247 726 146 682 q 478 788 349 771 q 751 806 608 806 q 1014 788 876 806 q 1278 732 1151 769 l 1278 782 l 1343 782 l 1343 526 l 1281 526 q 1213 595 1260 557 q 1103 669 1167 633 q 966 727 1040 704 q 815 750 892 750 q 693 733 749 750 q 604 678 638 715 q 571 578 571 640 l 571 243 q 588 140 571 189 q 655 59 606 90 q 797 28 704 28 q 857 35 825 28 q 919 60 889 42 q 967 115 949 79 q 986 206 986 150 l 986 290 q 967 349 986 324 q 917 390 947 375 q 856 406 888 406 l 717 406 l 717 464 l 1668 464 l 1668 406 l 1443 406 l 1443 -6 l 1381 -6 q 1360 48 1381 26 q 1300 69 1340 69 q 1223 54 1267 69 q 1119 19 1179 39 q 979 -15 1060 0 q 793 -31 899 -31 m 336 88 l 340 94 q 231 228 268 146 q 193 399 193 310 q 231 571 193 489 q 340 704 268 653 l 336 711 q 224 640 275 683 q 142 538 172 597 q 113 399 113 478 q 142 261 113 321 q 224 158 172 201 q 336 88 275 115 m 1088 86 q 1125 135 1107 86 q 1143 253 1143 185 l 1143 404 l 1072 404 l 1072 175 q 1077 103 1072 119 q 1088 86 1082 86 m 365 867 l 551 1069 l 1001 1069 l 1186 867 l 1065 867 l 922 1022 l 778 867 l 365 867 m 519 919 l 606 919 l 710 1035 l 624 1035 l 519 919 z "},"ģ":{"ha":1624,"x_min":31,"x_max":1668,"o":"m 793 -31 q 494 -6 633 -31 q 251 70 356 18 q 89 204 147 122 q 31 401 31 286 q 88 603 31 524 q 247 726 146 682 q 478 788 349 771 q 751 806 608 806 q 1014 788 876 806 q 1278 732 1151 769 l 1278 782 l 1343 782 l 1343 526 l 1281 526 q 1213 595 1260 557 q 1103 669 1167 633 q 966 727 1040 704 q 815 750 892 750 q 693 733 749 750 q 604 678 638 715 q 571 578 571 640 l 571 243 q 588 140 571 189 q 655 59 606 90 q 797 28 704 28 q 857 35 825 28 q 919 60 889 42 q 967 115 949 79 q 986 206 986 150 l 986 290 q 967 349 986 324 q 917 390 947 375 q 856 406 888 406 l 717 406 l 717 464 l 1668 464 l 1668 406 l 1443 406 l 1443 -6 l 1381 -6 q 1360 48 1381 26 q 1300 69 1340 69 q 1223 54 1267 69 q 1119 19 1179 39 q 979 -15 1060 0 q 793 -31 899 -31 m 336 88 l 340 94 q 231 228 268 146 q 193 399 193 310 q 231 571 193 489 q 340 704 268 653 l 336 711 q 224 640 275 683 q 142 538 172 597 q 113 399 113 478 q 142 261 113 321 q 224 158 172 201 q 336 88 275 115 m 1088 86 q 1125 135 1107 86 q 1143 253 1143 185 l 1143 404 l 1072 404 l 1072 175 q 1077 103 1072 119 q 1088 86 1082 86 m 596 -549 l 596 -497 q 677 -487 629 -497 q 769 -453 725 -478 q 833 -389 814 -429 q 774 -397 807 -397 q 677 -376 721 -397 q 608 -317 633 -354 q 582 -237 582 -281 q 608 -158 582 -193 q 677 -101 633 -122 q 774 -81 721 -81 q 869 -102 826 -81 q 937 -161 911 -124 q 963 -249 963 -199 q 928 -382 963 -317 q 813 -493 893 -447 q 596 -549 732 -539 m 721 -350 l 724 -346 q 697 -298 707 -326 q 686 -237 686 -269 q 697 -177 686 -206 q 724 -129 707 -149 l 721 -125 q 661 -172 685 -142 q 638 -237 638 -203 q 661 -303 638 -272 q 721 -350 685 -333 z "},"ġ":{"ha":1624,"x_min":31,"x_max":1668,"o":"m 793 -31 q 494 -6 633 -31 q 251 70 356 18 q 89 204 147 122 q 31 401 31 286 q 88 603 31 524 q 247 726 146 682 q 478 788 349 771 q 751 806 608 806 q 1014 788 876 806 q 1278 732 1151 769 l 1278 782 l 1343 782 l 1343 526 l 1281 526 q 1213 595 1260 557 q 1103 669 1167 633 q 966 727 1040 704 q 815 750 892 750 q 693 733 749 750 q 604 678 638 715 q 571 578 571 640 l 571 243 q 588 140 571 189 q 655 59 606 90 q 797 28 704 28 q 857 35 825 28 q 919 60 889 42 q 967 115 949 79 q 986 206 986 150 l 986 290 q 967 349 986 324 q 917 390 947 375 q 856 406 888 406 l 717 406 l 717 464 l 1668 464 l 1668 406 l 1443 406 l 1443 -6 l 1381 -6 q 1360 48 1381 26 q 1300 69 1340 69 q 1223 54 1267 69 q 1119 19 1179 39 q 979 -15 1060 0 q 793 -31 899 -31 m 336 88 l 340 94 q 231 228 268 146 q 193 399 193 310 q 231 571 193 489 q 340 704 268 653 l 336 711 q 224 640 275 683 q 142 538 172 597 q 113 399 113 478 q 142 261 113 321 q 224 158 172 201 q 336 88 275 115 m 1088 86 q 1125 135 1107 86 q 1143 253 1143 185 l 1143 404 l 1072 404 l 1072 175 q 1077 103 1072 119 q 1088 86 1082 86 m 775 824 q 681 844 724 824 q 612 901 638 865 q 586 981 586 938 q 612 1061 586 1025 q 681 1119 638 1097 q 775 1140 724 1140 q 872 1119 829 1140 q 941 1061 915 1097 q 967 981 967 1025 q 941 901 967 938 q 872 844 915 865 q 775 824 829 824 m 707 868 l 710 872 q 683 920 693 892 q 672 981 672 949 q 683 1041 672 1013 q 710 1089 693 1069 l 707 1093 q 647 1046 671 1076 q 624 981 624 1015 q 647 915 624 946 q 707 868 671 885 z "},"h":{"ha":2058,"x_min":101,"x_max":1949,"o":"m 101 0 l 101 60 l 247 60 q 335 88 299 60 q 371 183 371 115 l 371 592 q 335 678 371 642 q 247 715 299 715 l 101 715 l 101 775 l 999 775 l 999 715 q 900 701 935 715 q 853 663 865 688 q 840 604 840 638 l 840 440 l 1210 440 l 1210 604 q 1197 663 1210 638 q 1151 701 1185 688 q 1051 715 1117 715 l 1051 775 l 1949 775 l 1949 715 l 1803 715 q 1715 678 1751 715 q 1678 592 1678 642 l 1678 182 q 1715 87 1678 114 q 1803 60 1751 60 l 1949 60 l 1949 0 l 1051 0 l 1051 60 q 1163 75 1131 60 q 1203 117 1196 90 q 1210 176 1210 143 l 1210 333 q 1201 365 1210 350 q 1164 381 1192 381 l 886 381 q 850 365 860 381 q 840 333 840 350 l 840 176 q 847 117 840 143 q 886 75 853 90 q 999 60 919 60 l 999 0 l 101 0 m 458 60 l 528 60 l 528 715 l 458 715 l 458 60 m 1299 60 l 1368 60 l 1368 715 l 1299 715 l 1299 60 z "}}}
